G04 #@! TF.GenerationSoftware,KiCad,Pcbnew,(5.1.8)-1*
G04 #@! TF.CreationDate,2020-12-29T10:05:06+01:00*
G04 #@! TF.ProjectId,TinXsat,54696e58-7361-4742-9e6b-696361645f70,rev?*
G04 #@! TF.SameCoordinates,Original*
G04 #@! TF.FileFunction,Legend,Bot*
G04 #@! TF.FilePolarity,Positive*
%FSLAX46Y46*%
G04 Gerber Fmt 4.6, Leading zero omitted, Abs format (unit mm)*
G04 Created by KiCad (PCBNEW (5.1.8)-1) date 2020-12-29 10:05:06*
%MOMM*%
%LPD*%
G01*
G04 APERTURE LIST*
G04 #@! TA.AperFunction,Profile*
%ADD10C,0.150000*%
G04 #@! TD*
%ADD11C,0.010000*%
%ADD12C,0.150000*%
%ADD13C,0.120000*%
G04 APERTURE END LIST*
D10*
X79000000Y-124000000D02*
X71000000Y-124000000D01*
X79000000Y-130000000D02*
X79000000Y-124000000D01*
X71000000Y-130000000D02*
X71000000Y-124000000D01*
X100000000Y-130000000D02*
X79000000Y-130000000D01*
X71000000Y-130000000D02*
X50000000Y-130000000D01*
X50000000Y-130000000D02*
X50000000Y-50000000D01*
X100000000Y-50000000D02*
X100000000Y-130000000D01*
X50000000Y-50000000D02*
X100000000Y-50000000D01*
D11*
G04 #@! TO.C,G\u002A\u002A\u002A*
G36*
X58157322Y-61323695D02*
G01*
X57684478Y-61398696D01*
X57221415Y-61528873D01*
X56769841Y-61713867D01*
X56396466Y-61913852D01*
X56045969Y-62152487D01*
X55711723Y-62437973D01*
X55401840Y-62761307D01*
X55124437Y-63113484D01*
X54887627Y-63485500D01*
X54762462Y-63726998D01*
X54687670Y-63899888D01*
X54613228Y-64097694D01*
X54544100Y-64304766D01*
X54485244Y-64505456D01*
X54441623Y-64684114D01*
X54420306Y-64806330D01*
X54401192Y-64906629D01*
X54373579Y-64990947D01*
X54353457Y-65027178D01*
X54334899Y-65046937D01*
X54314649Y-65054046D01*
X54286315Y-65043764D01*
X54243508Y-65011354D01*
X54179836Y-64952077D01*
X54088907Y-64861192D01*
X53980929Y-64750960D01*
X53688156Y-64448212D01*
X53387415Y-64131690D01*
X53087908Y-63811341D01*
X52798836Y-63497108D01*
X52529400Y-63198936D01*
X52288801Y-62926771D01*
X52222860Y-62850800D01*
X52191914Y-62815089D01*
X52167766Y-62787979D01*
X52152350Y-62772440D01*
X52147601Y-62771440D01*
X52155451Y-62787949D01*
X52177834Y-62824936D01*
X52216685Y-62885371D01*
X52273935Y-62972222D01*
X52351521Y-63088460D01*
X52451374Y-63237052D01*
X52575429Y-63420969D01*
X52725619Y-63643180D01*
X52903878Y-63906655D01*
X53078003Y-64163927D01*
X53245137Y-64411361D01*
X53402418Y-64645183D01*
X53547046Y-64861164D01*
X53676222Y-65055079D01*
X53787148Y-65222701D01*
X53877024Y-65359802D01*
X53943051Y-65462157D01*
X53982430Y-65525537D01*
X53992874Y-65545468D01*
X53977780Y-65576186D01*
X53935302Y-65647076D01*
X53869642Y-65751529D01*
X53785002Y-65882938D01*
X53685585Y-66034696D01*
X53593059Y-66174068D01*
X53484626Y-66336997D01*
X53387363Y-66484195D01*
X53305448Y-66609255D01*
X53243058Y-66705765D01*
X53204371Y-66767319D01*
X53193244Y-66787399D01*
X53219803Y-66792586D01*
X53292833Y-66796961D01*
X53402362Y-66800165D01*
X53538418Y-66801840D01*
X53598389Y-66802000D01*
X54003534Y-66802000D01*
X54203056Y-66501235D01*
X54402579Y-66200469D01*
X54421586Y-66310735D01*
X54527784Y-66763841D01*
X54685279Y-67199969D01*
X54890462Y-67615221D01*
X55139722Y-68005697D01*
X55429449Y-68367499D01*
X55756032Y-68696728D01*
X56115861Y-68989485D01*
X56505326Y-69241871D01*
X56920817Y-69449988D01*
X57358723Y-69609936D01*
X57517532Y-69654050D01*
X57869975Y-69729067D01*
X58224695Y-69773022D01*
X58593852Y-69786461D01*
X58989607Y-69769934D01*
X59331577Y-69735741D01*
X59786458Y-69667658D01*
X60197344Y-69578271D01*
X60573697Y-69464402D01*
X60924976Y-69322872D01*
X61260643Y-69150502D01*
X61490577Y-69010316D01*
X61895915Y-68716357D01*
X62254835Y-68390316D01*
X62567215Y-68032371D01*
X62832933Y-67642696D01*
X63051864Y-67221469D01*
X63223885Y-66768865D01*
X63329663Y-66375295D01*
X63354733Y-66253957D01*
X63372578Y-66141488D01*
X63384322Y-66023975D01*
X63391090Y-65887509D01*
X63394004Y-65718177D01*
X63394355Y-65574334D01*
X63391119Y-65390889D01*
X62492466Y-65390889D01*
X62491692Y-65599322D01*
X62488766Y-65763336D01*
X62482782Y-65894942D01*
X62472834Y-66006152D01*
X62458014Y-66108977D01*
X62437417Y-66215429D01*
X62426454Y-66265778D01*
X62294849Y-66735063D01*
X62116163Y-67178785D01*
X61893119Y-67593854D01*
X61628443Y-67977180D01*
X61324856Y-68325674D01*
X60985082Y-68636246D01*
X60611846Y-68905806D01*
X60207870Y-69131265D01*
X59775878Y-69309532D01*
X59729625Y-69325181D01*
X59311087Y-69438251D01*
X58862507Y-69511802D01*
X58394966Y-69544979D01*
X57919545Y-69536928D01*
X57511244Y-69496158D01*
X57352576Y-69473741D01*
X57236290Y-69455718D01*
X57148885Y-69438538D01*
X57076862Y-69418647D01*
X57006719Y-69392495D01*
X56924958Y-69356527D01*
X56851094Y-69322457D01*
X56424626Y-69094699D01*
X56032390Y-68823196D01*
X55676791Y-68510821D01*
X55360235Y-68160445D01*
X55085127Y-67774939D01*
X54853871Y-67357175D01*
X54668874Y-66910025D01*
X54574389Y-66604306D01*
X54547762Y-66498574D01*
X54530374Y-66415340D01*
X54524915Y-66368134D01*
X54526304Y-66362644D01*
X54544941Y-66381487D01*
X54590784Y-66441425D01*
X54659677Y-66536622D01*
X54747465Y-66661242D01*
X54849994Y-66809448D01*
X54963109Y-66975405D01*
X54974238Y-66991858D01*
X55408688Y-67634556D01*
X55824966Y-67642366D01*
X55975017Y-67643550D01*
X56099774Y-67641371D01*
X56190087Y-67636217D01*
X56236810Y-67628474D01*
X56241244Y-67624730D01*
X56225107Y-67591393D01*
X56179475Y-67518567D01*
X56108514Y-67412074D01*
X56016392Y-67277732D01*
X55907276Y-67121361D01*
X55785332Y-66948782D01*
X55654729Y-66765814D01*
X55519632Y-66578277D01*
X55384209Y-66391991D01*
X55312264Y-66294000D01*
X54519688Y-66294000D01*
X54509362Y-66317230D01*
X54500874Y-66312815D01*
X54497496Y-66279322D01*
X54500874Y-66275186D01*
X54517652Y-66279060D01*
X54519688Y-66294000D01*
X55312264Y-66294000D01*
X55252627Y-66212775D01*
X55129054Y-66046450D01*
X55017655Y-65898836D01*
X54922599Y-65775752D01*
X54870835Y-65710778D01*
X54798360Y-65621444D01*
X55236677Y-64964337D01*
X55349980Y-64793869D01*
X55451908Y-64639343D01*
X55538559Y-64506772D01*
X55606031Y-64402164D01*
X55650421Y-64331532D01*
X55667828Y-64300886D01*
X55667880Y-64300118D01*
X55638692Y-64297308D01*
X55563227Y-64294388D01*
X55451650Y-64291639D01*
X55314129Y-64289344D01*
X55252506Y-64288599D01*
X54844244Y-64284193D01*
X54691646Y-64513258D01*
X54625870Y-64609354D01*
X54571925Y-64683221D01*
X54536981Y-64725315D01*
X54527933Y-64731208D01*
X54528242Y-64698545D01*
X54542684Y-64624400D01*
X54567972Y-64520980D01*
X54600821Y-64400492D01*
X54637944Y-64275145D01*
X54676055Y-64157144D01*
X54702307Y-64083466D01*
X54882134Y-63678604D01*
X55109481Y-63287079D01*
X55377013Y-62919061D01*
X55677397Y-62584725D01*
X55977300Y-62314953D01*
X56364713Y-62037895D01*
X56778013Y-61807509D01*
X57211768Y-61625610D01*
X57660545Y-61494010D01*
X58118913Y-61414524D01*
X58581439Y-61388964D01*
X58738911Y-61392891D01*
X59228751Y-61442246D01*
X59698816Y-61544320D01*
X60147716Y-61698501D01*
X60574063Y-61904177D01*
X60976470Y-62160737D01*
X61353548Y-62467569D01*
X61504220Y-62611469D01*
X61626409Y-62739354D01*
X61750630Y-62879342D01*
X61869207Y-63021775D01*
X61974466Y-63156995D01*
X62058732Y-63275343D01*
X62114328Y-63367161D01*
X62127295Y-63395522D01*
X62130490Y-63416773D01*
X62114519Y-63430675D01*
X62070333Y-63438754D01*
X61988883Y-63442536D01*
X61861117Y-63443548D01*
X61842539Y-63443556D01*
X61539350Y-63443556D01*
X61556769Y-63570646D01*
X61610533Y-63763917D01*
X61711590Y-63938351D01*
X61851831Y-64085913D01*
X62023148Y-64198566D01*
X62217432Y-64268273D01*
X62270854Y-64278393D01*
X62387908Y-64296512D01*
X62440187Y-64554423D01*
X62460144Y-64667541D01*
X62474633Y-64788197D01*
X62484356Y-64927648D01*
X62490018Y-65097155D01*
X62492323Y-65307975D01*
X62492466Y-65390889D01*
X63391119Y-65390889D01*
X63389274Y-65286385D01*
X63373516Y-65039004D01*
X63345235Y-64817007D01*
X63302584Y-64605212D01*
X63254576Y-64425023D01*
X63215617Y-64291712D01*
X63630153Y-64283912D01*
X64044688Y-64276112D01*
X64052499Y-63859834D01*
X64060309Y-63443556D01*
X62257419Y-63443556D01*
X62166391Y-63295389D01*
X61895830Y-62908111D01*
X61583256Y-62555809D01*
X61233038Y-62241291D01*
X60849543Y-61967365D01*
X60437141Y-61736839D01*
X60000199Y-61552522D01*
X59543085Y-61417220D01*
X59125521Y-61340655D01*
X58638239Y-61304228D01*
X58157322Y-61323695D01*
G37*
X58157322Y-61323695D02*
X57684478Y-61398696D01*
X57221415Y-61528873D01*
X56769841Y-61713867D01*
X56396466Y-61913852D01*
X56045969Y-62152487D01*
X55711723Y-62437973D01*
X55401840Y-62761307D01*
X55124437Y-63113484D01*
X54887627Y-63485500D01*
X54762462Y-63726998D01*
X54687670Y-63899888D01*
X54613228Y-64097694D01*
X54544100Y-64304766D01*
X54485244Y-64505456D01*
X54441623Y-64684114D01*
X54420306Y-64806330D01*
X54401192Y-64906629D01*
X54373579Y-64990947D01*
X54353457Y-65027178D01*
X54334899Y-65046937D01*
X54314649Y-65054046D01*
X54286315Y-65043764D01*
X54243508Y-65011354D01*
X54179836Y-64952077D01*
X54088907Y-64861192D01*
X53980929Y-64750960D01*
X53688156Y-64448212D01*
X53387415Y-64131690D01*
X53087908Y-63811341D01*
X52798836Y-63497108D01*
X52529400Y-63198936D01*
X52288801Y-62926771D01*
X52222860Y-62850800D01*
X52191914Y-62815089D01*
X52167766Y-62787979D01*
X52152350Y-62772440D01*
X52147601Y-62771440D01*
X52155451Y-62787949D01*
X52177834Y-62824936D01*
X52216685Y-62885371D01*
X52273935Y-62972222D01*
X52351521Y-63088460D01*
X52451374Y-63237052D01*
X52575429Y-63420969D01*
X52725619Y-63643180D01*
X52903878Y-63906655D01*
X53078003Y-64163927D01*
X53245137Y-64411361D01*
X53402418Y-64645183D01*
X53547046Y-64861164D01*
X53676222Y-65055079D01*
X53787148Y-65222701D01*
X53877024Y-65359802D01*
X53943051Y-65462157D01*
X53982430Y-65525537D01*
X53992874Y-65545468D01*
X53977780Y-65576186D01*
X53935302Y-65647076D01*
X53869642Y-65751529D01*
X53785002Y-65882938D01*
X53685585Y-66034696D01*
X53593059Y-66174068D01*
X53484626Y-66336997D01*
X53387363Y-66484195D01*
X53305448Y-66609255D01*
X53243058Y-66705765D01*
X53204371Y-66767319D01*
X53193244Y-66787399D01*
X53219803Y-66792586D01*
X53292833Y-66796961D01*
X53402362Y-66800165D01*
X53538418Y-66801840D01*
X53598389Y-66802000D01*
X54003534Y-66802000D01*
X54203056Y-66501235D01*
X54402579Y-66200469D01*
X54421586Y-66310735D01*
X54527784Y-66763841D01*
X54685279Y-67199969D01*
X54890462Y-67615221D01*
X55139722Y-68005697D01*
X55429449Y-68367499D01*
X55756032Y-68696728D01*
X56115861Y-68989485D01*
X56505326Y-69241871D01*
X56920817Y-69449988D01*
X57358723Y-69609936D01*
X57517532Y-69654050D01*
X57869975Y-69729067D01*
X58224695Y-69773022D01*
X58593852Y-69786461D01*
X58989607Y-69769934D01*
X59331577Y-69735741D01*
X59786458Y-69667658D01*
X60197344Y-69578271D01*
X60573697Y-69464402D01*
X60924976Y-69322872D01*
X61260643Y-69150502D01*
X61490577Y-69010316D01*
X61895915Y-68716357D01*
X62254835Y-68390316D01*
X62567215Y-68032371D01*
X62832933Y-67642696D01*
X63051864Y-67221469D01*
X63223885Y-66768865D01*
X63329663Y-66375295D01*
X63354733Y-66253957D01*
X63372578Y-66141488D01*
X63384322Y-66023975D01*
X63391090Y-65887509D01*
X63394004Y-65718177D01*
X63394355Y-65574334D01*
X63391119Y-65390889D01*
X62492466Y-65390889D01*
X62491692Y-65599322D01*
X62488766Y-65763336D01*
X62482782Y-65894942D01*
X62472834Y-66006152D01*
X62458014Y-66108977D01*
X62437417Y-66215429D01*
X62426454Y-66265778D01*
X62294849Y-66735063D01*
X62116163Y-67178785D01*
X61893119Y-67593854D01*
X61628443Y-67977180D01*
X61324856Y-68325674D01*
X60985082Y-68636246D01*
X60611846Y-68905806D01*
X60207870Y-69131265D01*
X59775878Y-69309532D01*
X59729625Y-69325181D01*
X59311087Y-69438251D01*
X58862507Y-69511802D01*
X58394966Y-69544979D01*
X57919545Y-69536928D01*
X57511244Y-69496158D01*
X57352576Y-69473741D01*
X57236290Y-69455718D01*
X57148885Y-69438538D01*
X57076862Y-69418647D01*
X57006719Y-69392495D01*
X56924958Y-69356527D01*
X56851094Y-69322457D01*
X56424626Y-69094699D01*
X56032390Y-68823196D01*
X55676791Y-68510821D01*
X55360235Y-68160445D01*
X55085127Y-67774939D01*
X54853871Y-67357175D01*
X54668874Y-66910025D01*
X54574389Y-66604306D01*
X54547762Y-66498574D01*
X54530374Y-66415340D01*
X54524915Y-66368134D01*
X54526304Y-66362644D01*
X54544941Y-66381487D01*
X54590784Y-66441425D01*
X54659677Y-66536622D01*
X54747465Y-66661242D01*
X54849994Y-66809448D01*
X54963109Y-66975405D01*
X54974238Y-66991858D01*
X55408688Y-67634556D01*
X55824966Y-67642366D01*
X55975017Y-67643550D01*
X56099774Y-67641371D01*
X56190087Y-67636217D01*
X56236810Y-67628474D01*
X56241244Y-67624730D01*
X56225107Y-67591393D01*
X56179475Y-67518567D01*
X56108514Y-67412074D01*
X56016392Y-67277732D01*
X55907276Y-67121361D01*
X55785332Y-66948782D01*
X55654729Y-66765814D01*
X55519632Y-66578277D01*
X55384209Y-66391991D01*
X55312264Y-66294000D01*
X54519688Y-66294000D01*
X54509362Y-66317230D01*
X54500874Y-66312815D01*
X54497496Y-66279322D01*
X54500874Y-66275186D01*
X54517652Y-66279060D01*
X54519688Y-66294000D01*
X55312264Y-66294000D01*
X55252627Y-66212775D01*
X55129054Y-66046450D01*
X55017655Y-65898836D01*
X54922599Y-65775752D01*
X54870835Y-65710778D01*
X54798360Y-65621444D01*
X55236677Y-64964337D01*
X55349980Y-64793869D01*
X55451908Y-64639343D01*
X55538559Y-64506772D01*
X55606031Y-64402164D01*
X55650421Y-64331532D01*
X55667828Y-64300886D01*
X55667880Y-64300118D01*
X55638692Y-64297308D01*
X55563227Y-64294388D01*
X55451650Y-64291639D01*
X55314129Y-64289344D01*
X55252506Y-64288599D01*
X54844244Y-64284193D01*
X54691646Y-64513258D01*
X54625870Y-64609354D01*
X54571925Y-64683221D01*
X54536981Y-64725315D01*
X54527933Y-64731208D01*
X54528242Y-64698545D01*
X54542684Y-64624400D01*
X54567972Y-64520980D01*
X54600821Y-64400492D01*
X54637944Y-64275145D01*
X54676055Y-64157144D01*
X54702307Y-64083466D01*
X54882134Y-63678604D01*
X55109481Y-63287079D01*
X55377013Y-62919061D01*
X55677397Y-62584725D01*
X55977300Y-62314953D01*
X56364713Y-62037895D01*
X56778013Y-61807509D01*
X57211768Y-61625610D01*
X57660545Y-61494010D01*
X58118913Y-61414524D01*
X58581439Y-61388964D01*
X58738911Y-61392891D01*
X59228751Y-61442246D01*
X59698816Y-61544320D01*
X60147716Y-61698501D01*
X60574063Y-61904177D01*
X60976470Y-62160737D01*
X61353548Y-62467569D01*
X61504220Y-62611469D01*
X61626409Y-62739354D01*
X61750630Y-62879342D01*
X61869207Y-63021775D01*
X61974466Y-63156995D01*
X62058732Y-63275343D01*
X62114328Y-63367161D01*
X62127295Y-63395522D01*
X62130490Y-63416773D01*
X62114519Y-63430675D01*
X62070333Y-63438754D01*
X61988883Y-63442536D01*
X61861117Y-63443548D01*
X61842539Y-63443556D01*
X61539350Y-63443556D01*
X61556769Y-63570646D01*
X61610533Y-63763917D01*
X61711590Y-63938351D01*
X61851831Y-64085913D01*
X62023148Y-64198566D01*
X62217432Y-64268273D01*
X62270854Y-64278393D01*
X62387908Y-64296512D01*
X62440187Y-64554423D01*
X62460144Y-64667541D01*
X62474633Y-64788197D01*
X62484356Y-64927648D01*
X62490018Y-65097155D01*
X62492323Y-65307975D01*
X62492466Y-65390889D01*
X63391119Y-65390889D01*
X63389274Y-65286385D01*
X63373516Y-65039004D01*
X63345235Y-64817007D01*
X63302584Y-64605212D01*
X63254576Y-64425023D01*
X63215617Y-64291712D01*
X63630153Y-64283912D01*
X64044688Y-64276112D01*
X64052499Y-63859834D01*
X64060309Y-63443556D01*
X62257419Y-63443556D01*
X62166391Y-63295389D01*
X61895830Y-62908111D01*
X61583256Y-62555809D01*
X61233038Y-62241291D01*
X60849543Y-61967365D01*
X60437141Y-61736839D01*
X60000199Y-61552522D01*
X59543085Y-61417220D01*
X59125521Y-61340655D01*
X58638239Y-61304228D01*
X58157322Y-61323695D01*
G36*
X56781490Y-62986837D02*
G01*
X56700793Y-63049944D01*
X56608358Y-63152062D01*
X56508531Y-63286388D01*
X56405657Y-63446117D01*
X56304082Y-63624447D01*
X56208152Y-63814573D01*
X56122212Y-64009693D01*
X56050607Y-64203003D01*
X56042635Y-64227469D01*
X55960644Y-64515433D01*
X55908437Y-64783352D01*
X55882887Y-65054230D01*
X55880867Y-65351074D01*
X55882610Y-65405000D01*
X55908534Y-65742824D01*
X55962321Y-66046974D01*
X56048065Y-66334973D01*
X56165278Y-66614703D01*
X56367106Y-66982361D01*
X56606901Y-67317872D01*
X56880162Y-67618512D01*
X57182389Y-67881560D01*
X57509083Y-68104292D01*
X57855743Y-68283986D01*
X58217871Y-68417919D01*
X58590967Y-68503368D01*
X58970530Y-68537611D01*
X59317466Y-68522009D01*
X59689252Y-68452843D01*
X60051492Y-68331492D01*
X60398650Y-68162074D01*
X60725189Y-67948708D01*
X61025572Y-67695510D01*
X61294262Y-67406598D01*
X61525722Y-67086090D01*
X61713443Y-66740216D01*
X61849250Y-66386266D01*
X61928817Y-66036967D01*
X61952147Y-65692369D01*
X61919242Y-65352521D01*
X61830102Y-65017472D01*
X61684730Y-64687274D01*
X61644233Y-64613584D01*
X61584268Y-64511046D01*
X61531840Y-64426231D01*
X61495049Y-64372048D01*
X61485749Y-64361093D01*
X61465046Y-64355842D01*
X61465010Y-64393210D01*
X61483055Y-64464387D01*
X61516595Y-64560558D01*
X61563047Y-64672913D01*
X61601577Y-64755889D01*
X61688402Y-64944574D01*
X61748565Y-65105423D01*
X61786522Y-65257696D01*
X61806729Y-65420649D01*
X61813642Y-65613539D01*
X61813808Y-65673112D01*
X61807740Y-65895058D01*
X61787502Y-66082340D01*
X61748529Y-66254878D01*
X61686257Y-66432595D01*
X61596120Y-66635410D01*
X61590699Y-66646778D01*
X61448461Y-66913056D01*
X61286174Y-67152589D01*
X61090315Y-67384341D01*
X60991002Y-67487741D01*
X60686887Y-67757881D01*
X60362943Y-67977220D01*
X60022736Y-68145137D01*
X59669830Y-68261015D01*
X59307791Y-68324231D01*
X58940184Y-68334168D01*
X58570574Y-68290205D01*
X58202525Y-68191723D01*
X57839603Y-68038102D01*
X57835800Y-68036177D01*
X57480614Y-67824936D01*
X57154227Y-67567453D01*
X56861187Y-67268457D01*
X56606044Y-66932677D01*
X56393345Y-66564842D01*
X56365832Y-66508143D01*
X56220788Y-66137459D01*
X56129129Y-65753750D01*
X56090413Y-65360985D01*
X56104201Y-64963137D01*
X56170052Y-64564176D01*
X56287526Y-64168074D01*
X56456182Y-63778800D01*
X56675580Y-63400327D01*
X56717388Y-63338082D01*
X56808963Y-63199812D01*
X56866773Y-63099637D01*
X56892775Y-63031951D01*
X56888927Y-62991148D01*
X56857188Y-62971621D01*
X56846104Y-62969544D01*
X56781490Y-62986837D01*
G37*
X56781490Y-62986837D02*
X56700793Y-63049944D01*
X56608358Y-63152062D01*
X56508531Y-63286388D01*
X56405657Y-63446117D01*
X56304082Y-63624447D01*
X56208152Y-63814573D01*
X56122212Y-64009693D01*
X56050607Y-64203003D01*
X56042635Y-64227469D01*
X55960644Y-64515433D01*
X55908437Y-64783352D01*
X55882887Y-65054230D01*
X55880867Y-65351074D01*
X55882610Y-65405000D01*
X55908534Y-65742824D01*
X55962321Y-66046974D01*
X56048065Y-66334973D01*
X56165278Y-66614703D01*
X56367106Y-66982361D01*
X56606901Y-67317872D01*
X56880162Y-67618512D01*
X57182389Y-67881560D01*
X57509083Y-68104292D01*
X57855743Y-68283986D01*
X58217871Y-68417919D01*
X58590967Y-68503368D01*
X58970530Y-68537611D01*
X59317466Y-68522009D01*
X59689252Y-68452843D01*
X60051492Y-68331492D01*
X60398650Y-68162074D01*
X60725189Y-67948708D01*
X61025572Y-67695510D01*
X61294262Y-67406598D01*
X61525722Y-67086090D01*
X61713443Y-66740216D01*
X61849250Y-66386266D01*
X61928817Y-66036967D01*
X61952147Y-65692369D01*
X61919242Y-65352521D01*
X61830102Y-65017472D01*
X61684730Y-64687274D01*
X61644233Y-64613584D01*
X61584268Y-64511046D01*
X61531840Y-64426231D01*
X61495049Y-64372048D01*
X61485749Y-64361093D01*
X61465046Y-64355842D01*
X61465010Y-64393210D01*
X61483055Y-64464387D01*
X61516595Y-64560558D01*
X61563047Y-64672913D01*
X61601577Y-64755889D01*
X61688402Y-64944574D01*
X61748565Y-65105423D01*
X61786522Y-65257696D01*
X61806729Y-65420649D01*
X61813642Y-65613539D01*
X61813808Y-65673112D01*
X61807740Y-65895058D01*
X61787502Y-66082340D01*
X61748529Y-66254878D01*
X61686257Y-66432595D01*
X61596120Y-66635410D01*
X61590699Y-66646778D01*
X61448461Y-66913056D01*
X61286174Y-67152589D01*
X61090315Y-67384341D01*
X60991002Y-67487741D01*
X60686887Y-67757881D01*
X60362943Y-67977220D01*
X60022736Y-68145137D01*
X59669830Y-68261015D01*
X59307791Y-68324231D01*
X58940184Y-68334168D01*
X58570574Y-68290205D01*
X58202525Y-68191723D01*
X57839603Y-68038102D01*
X57835800Y-68036177D01*
X57480614Y-67824936D01*
X57154227Y-67567453D01*
X56861187Y-67268457D01*
X56606044Y-66932677D01*
X56393345Y-66564842D01*
X56365832Y-66508143D01*
X56220788Y-66137459D01*
X56129129Y-65753750D01*
X56090413Y-65360985D01*
X56104201Y-64963137D01*
X56170052Y-64564176D01*
X56287526Y-64168074D01*
X56456182Y-63778800D01*
X56675580Y-63400327D01*
X56717388Y-63338082D01*
X56808963Y-63199812D01*
X56866773Y-63099637D01*
X56892775Y-63031951D01*
X56888927Y-62991148D01*
X56857188Y-62971621D01*
X56846104Y-62969544D01*
X56781490Y-62986837D01*
G36*
X56921834Y-63067942D02*
G01*
X56918577Y-63084015D01*
X56902534Y-63125125D01*
X56860534Y-63195048D01*
X56803467Y-63276181D01*
X56594214Y-63592960D01*
X56414844Y-63941611D01*
X56274419Y-64303063D01*
X56211747Y-64521718D01*
X56156714Y-64830805D01*
X56134195Y-65164252D01*
X56143567Y-65504801D01*
X56184207Y-65835195D01*
X56255489Y-66138175D01*
X56272031Y-66189979D01*
X56425768Y-66562364D01*
X56627985Y-66911926D01*
X56873703Y-67233959D01*
X57157945Y-67523756D01*
X57475732Y-67776610D01*
X57822086Y-67987813D01*
X58192028Y-68152660D01*
X58428466Y-68228807D01*
X58548191Y-68252375D01*
X58706933Y-68270307D01*
X58889034Y-68282174D01*
X59078836Y-68287551D01*
X59260681Y-68286009D01*
X59418911Y-68277121D01*
X59537867Y-68260459D01*
X59543244Y-68259242D01*
X59933472Y-68140238D01*
X60301258Y-67969878D01*
X60648925Y-67747070D01*
X60676269Y-67726699D01*
X60977546Y-67465107D01*
X61238322Y-67164443D01*
X61458999Y-66824207D01*
X61559456Y-66628477D01*
X61653387Y-66414664D01*
X61718149Y-66227166D01*
X61758241Y-66046996D01*
X61778166Y-65855167D01*
X61782598Y-65687223D01*
X61775438Y-65465960D01*
X61749589Y-65272073D01*
X61700348Y-65084947D01*
X61623012Y-64883968D01*
X61575084Y-64777708D01*
X61520202Y-64649522D01*
X61507880Y-64615950D01*
X61349034Y-64615950D01*
X61329705Y-64643513D01*
X61276236Y-64700015D01*
X61195887Y-64778886D01*
X61095918Y-64873558D01*
X60983589Y-64977464D01*
X60866159Y-65084034D01*
X60750888Y-65186700D01*
X60645037Y-65278895D01*
X60555864Y-65354048D01*
X60490630Y-65405594D01*
X60456594Y-65426962D01*
X60453438Y-65426250D01*
X60459868Y-65391788D01*
X60483479Y-65314909D01*
X60520881Y-65205758D01*
X60568687Y-65074479D01*
X60588634Y-65021537D01*
X60664332Y-64832430D01*
X60731149Y-64690852D01*
X60758763Y-64646521D01*
X60646346Y-64646521D01*
X60494562Y-65039872D01*
X60439592Y-65182527D01*
X60390725Y-65309719D01*
X60352123Y-65410582D01*
X60327950Y-65474250D01*
X60323086Y-65487331D01*
X60298298Y-65520883D01*
X60279954Y-65515553D01*
X60262354Y-65481442D01*
X60237071Y-65422832D01*
X60135911Y-65422832D01*
X60131326Y-65433930D01*
X60114503Y-65430301D01*
X60080838Y-65408176D01*
X60025725Y-65363786D01*
X59944561Y-65293363D01*
X59832742Y-65193137D01*
X59685662Y-65059340D01*
X59632706Y-65010931D01*
X59504489Y-64891127D01*
X59394271Y-64783283D01*
X59308171Y-64693758D01*
X59252310Y-64628911D01*
X59232800Y-64595378D01*
X59257504Y-64547850D01*
X59319531Y-64501442D01*
X59400752Y-64467812D01*
X59444466Y-64459255D01*
X59554241Y-64455531D01*
X59645874Y-64474684D01*
X59724958Y-64522432D01*
X59797087Y-64604493D01*
X59867853Y-64726584D01*
X59942850Y-64894424D01*
X59992052Y-65019065D01*
X60043647Y-65155792D01*
X60087043Y-65274325D01*
X60118589Y-65364413D01*
X60134633Y-65415806D01*
X60135911Y-65422832D01*
X60237071Y-65422832D01*
X60228970Y-65404053D01*
X60183748Y-65292993D01*
X60130634Y-65157869D01*
X60096192Y-65068119D01*
X59935870Y-64646571D01*
X60018073Y-64564368D01*
X60134020Y-64485120D01*
X60266681Y-64453147D01*
X60401964Y-64468429D01*
X60525780Y-64530944D01*
X60565034Y-64565209D01*
X60646346Y-64646521D01*
X60758763Y-64646521D01*
X60794190Y-64589649D01*
X60858563Y-64521667D01*
X60929376Y-64479750D01*
X60988468Y-64461410D01*
X61094764Y-64454350D01*
X61198391Y-64475260D01*
X61284533Y-64517789D01*
X61338375Y-64575589D01*
X61349034Y-64615950D01*
X61507880Y-64615950D01*
X61471583Y-64517059D01*
X61437942Y-64404550D01*
X61432939Y-64382597D01*
X61370823Y-64168931D01*
X61274692Y-63985277D01*
X61150235Y-63828095D01*
X60963752Y-63663190D01*
X60753128Y-63544597D01*
X60526350Y-63472731D01*
X60291405Y-63448005D01*
X60056278Y-63470837D01*
X59828958Y-63541640D01*
X59617430Y-63660830D01*
X59515160Y-63743122D01*
X59458406Y-63801828D01*
X59389991Y-63883056D01*
X59319982Y-63973390D01*
X59258444Y-64059415D01*
X59215445Y-64127719D01*
X59200998Y-64161765D01*
X59192663Y-64194753D01*
X59173111Y-64263005D01*
X59159711Y-64308057D01*
X59135032Y-64413008D01*
X59121076Y-64516861D01*
X59119911Y-64546109D01*
X59121587Y-64579102D01*
X59129702Y-64611024D01*
X59148887Y-64646961D01*
X59183772Y-64691996D01*
X59238988Y-64751214D01*
X59319166Y-64829700D01*
X59428935Y-64932538D01*
X59572928Y-65064813D01*
X59687707Y-65169568D01*
X59838481Y-65305903D01*
X59976753Y-65428790D01*
X60096778Y-65533296D01*
X60192814Y-65614488D01*
X60259115Y-65667431D01*
X60289939Y-65687192D01*
X60290352Y-65687223D01*
X60319844Y-65668914D01*
X60384898Y-65617354D01*
X60479613Y-65537591D01*
X60598088Y-65434674D01*
X60734423Y-65313650D01*
X60867612Y-65193334D01*
X61014395Y-65060117D01*
X61147763Y-64939908D01*
X61261962Y-64837826D01*
X61351240Y-64758988D01*
X61409841Y-64708514D01*
X61431627Y-64691558D01*
X61452838Y-64711358D01*
X61489175Y-64770914D01*
X61533420Y-64858149D01*
X61541273Y-64875002D01*
X61651260Y-65179372D01*
X61707584Y-65493574D01*
X61711283Y-65813509D01*
X61663393Y-66135075D01*
X61564948Y-66454173D01*
X61416985Y-66766702D01*
X61220541Y-67068562D01*
X60976650Y-67355651D01*
X60893434Y-67439207D01*
X60586526Y-67704576D01*
X60269620Y-67915116D01*
X59940336Y-68071927D01*
X59596296Y-68176105D01*
X59235123Y-68228751D01*
X59176355Y-68232426D01*
X58810268Y-68223546D01*
X58447660Y-68160792D01*
X58093633Y-68046710D01*
X57753290Y-67883848D01*
X57431734Y-67674753D01*
X57134066Y-67421972D01*
X56865389Y-67128051D01*
X56802698Y-67047579D01*
X56628224Y-66816112D01*
X56999179Y-66808237D01*
X57370133Y-66800362D01*
X57370133Y-66121058D01*
X57370697Y-65898762D01*
X57372676Y-65725569D01*
X57376499Y-65594144D01*
X57382595Y-65497153D01*
X57391393Y-65427262D01*
X57403322Y-65377138D01*
X57415471Y-65346210D01*
X57494314Y-65238983D01*
X57603060Y-65168954D01*
X57729158Y-65136124D01*
X57860058Y-65140491D01*
X57983209Y-65182057D01*
X58086061Y-65260821D01*
X58143239Y-65346210D01*
X58157988Y-65385737D01*
X58169264Y-65439126D01*
X58177497Y-65513706D01*
X58183114Y-65616806D01*
X58186545Y-65755754D01*
X58188218Y-65937879D01*
X58188577Y-66121877D01*
X58188577Y-66802000D01*
X59039227Y-66802000D01*
X59030180Y-66018834D01*
X59021133Y-65235667D01*
X58931107Y-65045622D01*
X58815748Y-64836984D01*
X58683389Y-64669361D01*
X58521742Y-64527524D01*
X58500783Y-64512222D01*
X58285482Y-64391238D01*
X58049082Y-64317291D01*
X57801553Y-64290293D01*
X57552860Y-64310153D01*
X57312971Y-64376782D01*
X57091853Y-64490092D01*
X57041217Y-64525303D01*
X56904383Y-64637666D01*
X56795928Y-64756922D01*
X56702074Y-64900400D01*
X56627743Y-65045325D01*
X56537577Y-65235667D01*
X56523466Y-65913000D01*
X56509355Y-66590334D01*
X56457209Y-66477445D01*
X56315440Y-66105030D01*
X56227835Y-65721918D01*
X56193978Y-65331808D01*
X56213457Y-64938396D01*
X56285856Y-64545382D01*
X56410761Y-64156462D01*
X56587757Y-63775334D01*
X56798632Y-63431291D01*
X56888677Y-63295679D01*
X56945140Y-63196986D01*
X56970600Y-63128789D01*
X56967638Y-63084670D01*
X56946800Y-63062556D01*
X56921834Y-63067942D01*
G37*
X56921834Y-63067942D02*
X56918577Y-63084015D01*
X56902534Y-63125125D01*
X56860534Y-63195048D01*
X56803467Y-63276181D01*
X56594214Y-63592960D01*
X56414844Y-63941611D01*
X56274419Y-64303063D01*
X56211747Y-64521718D01*
X56156714Y-64830805D01*
X56134195Y-65164252D01*
X56143567Y-65504801D01*
X56184207Y-65835195D01*
X56255489Y-66138175D01*
X56272031Y-66189979D01*
X56425768Y-66562364D01*
X56627985Y-66911926D01*
X56873703Y-67233959D01*
X57157945Y-67523756D01*
X57475732Y-67776610D01*
X57822086Y-67987813D01*
X58192028Y-68152660D01*
X58428466Y-68228807D01*
X58548191Y-68252375D01*
X58706933Y-68270307D01*
X58889034Y-68282174D01*
X59078836Y-68287551D01*
X59260681Y-68286009D01*
X59418911Y-68277121D01*
X59537867Y-68260459D01*
X59543244Y-68259242D01*
X59933472Y-68140238D01*
X60301258Y-67969878D01*
X60648925Y-67747070D01*
X60676269Y-67726699D01*
X60977546Y-67465107D01*
X61238322Y-67164443D01*
X61458999Y-66824207D01*
X61559456Y-66628477D01*
X61653387Y-66414664D01*
X61718149Y-66227166D01*
X61758241Y-66046996D01*
X61778166Y-65855167D01*
X61782598Y-65687223D01*
X61775438Y-65465960D01*
X61749589Y-65272073D01*
X61700348Y-65084947D01*
X61623012Y-64883968D01*
X61575084Y-64777708D01*
X61520202Y-64649522D01*
X61507880Y-64615950D01*
X61349034Y-64615950D01*
X61329705Y-64643513D01*
X61276236Y-64700015D01*
X61195887Y-64778886D01*
X61095918Y-64873558D01*
X60983589Y-64977464D01*
X60866159Y-65084034D01*
X60750888Y-65186700D01*
X60645037Y-65278895D01*
X60555864Y-65354048D01*
X60490630Y-65405594D01*
X60456594Y-65426962D01*
X60453438Y-65426250D01*
X60459868Y-65391788D01*
X60483479Y-65314909D01*
X60520881Y-65205758D01*
X60568687Y-65074479D01*
X60588634Y-65021537D01*
X60664332Y-64832430D01*
X60731149Y-64690852D01*
X60758763Y-64646521D01*
X60646346Y-64646521D01*
X60494562Y-65039872D01*
X60439592Y-65182527D01*
X60390725Y-65309719D01*
X60352123Y-65410582D01*
X60327950Y-65474250D01*
X60323086Y-65487331D01*
X60298298Y-65520883D01*
X60279954Y-65515553D01*
X60262354Y-65481442D01*
X60237071Y-65422832D01*
X60135911Y-65422832D01*
X60131326Y-65433930D01*
X60114503Y-65430301D01*
X60080838Y-65408176D01*
X60025725Y-65363786D01*
X59944561Y-65293363D01*
X59832742Y-65193137D01*
X59685662Y-65059340D01*
X59632706Y-65010931D01*
X59504489Y-64891127D01*
X59394271Y-64783283D01*
X59308171Y-64693758D01*
X59252310Y-64628911D01*
X59232800Y-64595378D01*
X59257504Y-64547850D01*
X59319531Y-64501442D01*
X59400752Y-64467812D01*
X59444466Y-64459255D01*
X59554241Y-64455531D01*
X59645874Y-64474684D01*
X59724958Y-64522432D01*
X59797087Y-64604493D01*
X59867853Y-64726584D01*
X59942850Y-64894424D01*
X59992052Y-65019065D01*
X60043647Y-65155792D01*
X60087043Y-65274325D01*
X60118589Y-65364413D01*
X60134633Y-65415806D01*
X60135911Y-65422832D01*
X60237071Y-65422832D01*
X60228970Y-65404053D01*
X60183748Y-65292993D01*
X60130634Y-65157869D01*
X60096192Y-65068119D01*
X59935870Y-64646571D01*
X60018073Y-64564368D01*
X60134020Y-64485120D01*
X60266681Y-64453147D01*
X60401964Y-64468429D01*
X60525780Y-64530944D01*
X60565034Y-64565209D01*
X60646346Y-64646521D01*
X60758763Y-64646521D01*
X60794190Y-64589649D01*
X60858563Y-64521667D01*
X60929376Y-64479750D01*
X60988468Y-64461410D01*
X61094764Y-64454350D01*
X61198391Y-64475260D01*
X61284533Y-64517789D01*
X61338375Y-64575589D01*
X61349034Y-64615950D01*
X61507880Y-64615950D01*
X61471583Y-64517059D01*
X61437942Y-64404550D01*
X61432939Y-64382597D01*
X61370823Y-64168931D01*
X61274692Y-63985277D01*
X61150235Y-63828095D01*
X60963752Y-63663190D01*
X60753128Y-63544597D01*
X60526350Y-63472731D01*
X60291405Y-63448005D01*
X60056278Y-63470837D01*
X59828958Y-63541640D01*
X59617430Y-63660830D01*
X59515160Y-63743122D01*
X59458406Y-63801828D01*
X59389991Y-63883056D01*
X59319982Y-63973390D01*
X59258444Y-64059415D01*
X59215445Y-64127719D01*
X59200998Y-64161765D01*
X59192663Y-64194753D01*
X59173111Y-64263005D01*
X59159711Y-64308057D01*
X59135032Y-64413008D01*
X59121076Y-64516861D01*
X59119911Y-64546109D01*
X59121587Y-64579102D01*
X59129702Y-64611024D01*
X59148887Y-64646961D01*
X59183772Y-64691996D01*
X59238988Y-64751214D01*
X59319166Y-64829700D01*
X59428935Y-64932538D01*
X59572928Y-65064813D01*
X59687707Y-65169568D01*
X59838481Y-65305903D01*
X59976753Y-65428790D01*
X60096778Y-65533296D01*
X60192814Y-65614488D01*
X60259115Y-65667431D01*
X60289939Y-65687192D01*
X60290352Y-65687223D01*
X60319844Y-65668914D01*
X60384898Y-65617354D01*
X60479613Y-65537591D01*
X60598088Y-65434674D01*
X60734423Y-65313650D01*
X60867612Y-65193334D01*
X61014395Y-65060117D01*
X61147763Y-64939908D01*
X61261962Y-64837826D01*
X61351240Y-64758988D01*
X61409841Y-64708514D01*
X61431627Y-64691558D01*
X61452838Y-64711358D01*
X61489175Y-64770914D01*
X61533420Y-64858149D01*
X61541273Y-64875002D01*
X61651260Y-65179372D01*
X61707584Y-65493574D01*
X61711283Y-65813509D01*
X61663393Y-66135075D01*
X61564948Y-66454173D01*
X61416985Y-66766702D01*
X61220541Y-67068562D01*
X60976650Y-67355651D01*
X60893434Y-67439207D01*
X60586526Y-67704576D01*
X60269620Y-67915116D01*
X59940336Y-68071927D01*
X59596296Y-68176105D01*
X59235123Y-68228751D01*
X59176355Y-68232426D01*
X58810268Y-68223546D01*
X58447660Y-68160792D01*
X58093633Y-68046710D01*
X57753290Y-67883848D01*
X57431734Y-67674753D01*
X57134066Y-67421972D01*
X56865389Y-67128051D01*
X56802698Y-67047579D01*
X56628224Y-66816112D01*
X56999179Y-66808237D01*
X57370133Y-66800362D01*
X57370133Y-66121058D01*
X57370697Y-65898762D01*
X57372676Y-65725569D01*
X57376499Y-65594144D01*
X57382595Y-65497153D01*
X57391393Y-65427262D01*
X57403322Y-65377138D01*
X57415471Y-65346210D01*
X57494314Y-65238983D01*
X57603060Y-65168954D01*
X57729158Y-65136124D01*
X57860058Y-65140491D01*
X57983209Y-65182057D01*
X58086061Y-65260821D01*
X58143239Y-65346210D01*
X58157988Y-65385737D01*
X58169264Y-65439126D01*
X58177497Y-65513706D01*
X58183114Y-65616806D01*
X58186545Y-65755754D01*
X58188218Y-65937879D01*
X58188577Y-66121877D01*
X58188577Y-66802000D01*
X59039227Y-66802000D01*
X59030180Y-66018834D01*
X59021133Y-65235667D01*
X58931107Y-65045622D01*
X58815748Y-64836984D01*
X58683389Y-64669361D01*
X58521742Y-64527524D01*
X58500783Y-64512222D01*
X58285482Y-64391238D01*
X58049082Y-64317291D01*
X57801553Y-64290293D01*
X57552860Y-64310153D01*
X57312971Y-64376782D01*
X57091853Y-64490092D01*
X57041217Y-64525303D01*
X56904383Y-64637666D01*
X56795928Y-64756922D01*
X56702074Y-64900400D01*
X56627743Y-65045325D01*
X56537577Y-65235667D01*
X56523466Y-65913000D01*
X56509355Y-66590334D01*
X56457209Y-66477445D01*
X56315440Y-66105030D01*
X56227835Y-65721918D01*
X56193978Y-65331808D01*
X56213457Y-64938396D01*
X56285856Y-64545382D01*
X56410761Y-64156462D01*
X56587757Y-63775334D01*
X56798632Y-63431291D01*
X56888677Y-63295679D01*
X56945140Y-63196986D01*
X56970600Y-63128789D01*
X56967638Y-63084670D01*
X56946800Y-63062556D01*
X56921834Y-63067942D01*
G36*
X60131842Y-65800532D02*
G01*
X60018731Y-65802787D01*
X59941537Y-65808372D01*
X59889997Y-65818778D01*
X59853848Y-65835500D01*
X59822827Y-65860030D01*
X59812301Y-65869779D01*
X59760455Y-65941754D01*
X59742676Y-66017525D01*
X59758578Y-66081342D01*
X59807776Y-66117460D01*
X59818411Y-66119574D01*
X59846840Y-66126405D01*
X59865207Y-66144135D01*
X59875703Y-66183189D01*
X59880523Y-66253992D01*
X59881860Y-66366967D01*
X59881911Y-66421363D01*
X59883818Y-66569591D01*
X59895242Y-66673279D01*
X59924736Y-66740383D01*
X59980852Y-66778858D01*
X60072144Y-66796660D01*
X60207163Y-66801742D01*
X60291133Y-66802000D01*
X60439916Y-66799205D01*
X60542706Y-66789957D01*
X60609720Y-66772959D01*
X60637631Y-66758067D01*
X60665939Y-66733978D01*
X60684179Y-66701618D01*
X60694536Y-66649250D01*
X60699197Y-66565137D01*
X60700349Y-66437543D01*
X60700355Y-66421363D01*
X60700961Y-66290201D01*
X60704241Y-66205056D01*
X60712388Y-66155505D01*
X60727596Y-66131123D01*
X60752059Y-66121485D01*
X60763855Y-66119574D01*
X60818205Y-66089188D01*
X60839318Y-66028650D01*
X60826810Y-65953706D01*
X60780296Y-65880104D01*
X60769965Y-65869779D01*
X60738417Y-65842433D01*
X60705027Y-65823373D01*
X60659531Y-65811107D01*
X60591668Y-65804141D01*
X60491174Y-65800982D01*
X60347786Y-65800137D01*
X60291133Y-65800112D01*
X60131842Y-65800532D01*
G37*
X60131842Y-65800532D02*
X60018731Y-65802787D01*
X59941537Y-65808372D01*
X59889997Y-65818778D01*
X59853848Y-65835500D01*
X59822827Y-65860030D01*
X59812301Y-65869779D01*
X59760455Y-65941754D01*
X59742676Y-66017525D01*
X59758578Y-66081342D01*
X59807776Y-66117460D01*
X59818411Y-66119574D01*
X59846840Y-66126405D01*
X59865207Y-66144135D01*
X59875703Y-66183189D01*
X59880523Y-66253992D01*
X59881860Y-66366967D01*
X59881911Y-66421363D01*
X59883818Y-66569591D01*
X59895242Y-66673279D01*
X59924736Y-66740383D01*
X59980852Y-66778858D01*
X60072144Y-66796660D01*
X60207163Y-66801742D01*
X60291133Y-66802000D01*
X60439916Y-66799205D01*
X60542706Y-66789957D01*
X60609720Y-66772959D01*
X60637631Y-66758067D01*
X60665939Y-66733978D01*
X60684179Y-66701618D01*
X60694536Y-66649250D01*
X60699197Y-66565137D01*
X60700349Y-66437543D01*
X60700355Y-66421363D01*
X60700961Y-66290201D01*
X60704241Y-66205056D01*
X60712388Y-66155505D01*
X60727596Y-66131123D01*
X60752059Y-66121485D01*
X60763855Y-66119574D01*
X60818205Y-66089188D01*
X60839318Y-66028650D01*
X60826810Y-65953706D01*
X60780296Y-65880104D01*
X60769965Y-65869779D01*
X60738417Y-65842433D01*
X60705027Y-65823373D01*
X60659531Y-65811107D01*
X60591668Y-65804141D01*
X60491174Y-65800982D01*
X60347786Y-65800137D01*
X60291133Y-65800112D01*
X60131842Y-65800532D01*
G36*
X58922355Y-64473667D02*
G01*
X58936466Y-64487778D01*
X58950577Y-64473667D01*
X58936466Y-64459556D01*
X58922355Y-64473667D01*
G37*
X58922355Y-64473667D02*
X58936466Y-64487778D01*
X58950577Y-64473667D01*
X58936466Y-64459556D01*
X58922355Y-64473667D01*
G36*
X58983160Y-64386305D02*
G01*
X58952862Y-64414722D01*
X58959078Y-64431059D01*
X58963023Y-64431334D01*
X58986894Y-64411288D01*
X58995606Y-64398751D01*
X58998932Y-64379439D01*
X58983160Y-64386305D01*
G37*
X58983160Y-64386305D02*
X58952862Y-64414722D01*
X58959078Y-64431059D01*
X58963023Y-64431334D01*
X58986894Y-64411288D01*
X58995606Y-64398751D01*
X58998932Y-64379439D01*
X58983160Y-64386305D01*
G36*
X59098744Y-64245208D02*
G01*
X59045417Y-64295247D01*
X59037718Y-64317041D01*
X59044981Y-64318445D01*
X59068030Y-64299412D01*
X59108481Y-64254945D01*
X59162244Y-64191445D01*
X59098744Y-64245208D01*
G37*
X59098744Y-64245208D02*
X59045417Y-64295247D01*
X59037718Y-64317041D01*
X59044981Y-64318445D01*
X59068030Y-64299412D01*
X59108481Y-64254945D01*
X59162244Y-64191445D01*
X59098744Y-64245208D01*
G36*
X57218150Y-62497128D02*
G01*
X57173235Y-62575941D01*
X57144289Y-62639397D01*
X57133119Y-62691705D01*
X57155570Y-62708000D01*
X57215315Y-62688475D01*
X57292522Y-62647138D01*
X57357095Y-62605998D01*
X57394561Y-62574943D01*
X57398355Y-62568039D01*
X57379837Y-62538384D01*
X57334951Y-62490739D01*
X57331804Y-62487762D01*
X57265253Y-62425241D01*
X57218150Y-62497128D01*
G37*
X57218150Y-62497128D02*
X57173235Y-62575941D01*
X57144289Y-62639397D01*
X57133119Y-62691705D01*
X57155570Y-62708000D01*
X57215315Y-62688475D01*
X57292522Y-62647138D01*
X57357095Y-62605998D01*
X57394561Y-62574943D01*
X57398355Y-62568039D01*
X57379837Y-62538384D01*
X57334951Y-62490739D01*
X57331804Y-62487762D01*
X57265253Y-62425241D01*
X57218150Y-62497128D01*
G36*
X57699525Y-61907212D02*
G01*
X57631402Y-61963626D01*
X57544741Y-62043012D01*
X57467071Y-62118962D01*
X57245129Y-62342214D01*
X57355692Y-62455440D01*
X57421557Y-62517745D01*
X57474668Y-62558870D01*
X57496511Y-62568667D01*
X57527867Y-62549602D01*
X57588197Y-62498204D01*
X57667714Y-62423170D01*
X57726801Y-62364056D01*
X57813626Y-62271925D01*
X57885549Y-62189423D01*
X57932914Y-62127961D01*
X57945752Y-62105309D01*
X57939253Y-62049644D01*
X57898672Y-61983492D01*
X57839444Y-61923463D01*
X57777003Y-61886166D01*
X57738866Y-61882674D01*
X57699525Y-61907212D01*
G37*
X57699525Y-61907212D02*
X57631402Y-61963626D01*
X57544741Y-62043012D01*
X57467071Y-62118962D01*
X57245129Y-62342214D01*
X57355692Y-62455440D01*
X57421557Y-62517745D01*
X57474668Y-62558870D01*
X57496511Y-62568667D01*
X57527867Y-62549602D01*
X57588197Y-62498204D01*
X57667714Y-62423170D01*
X57726801Y-62364056D01*
X57813626Y-62271925D01*
X57885549Y-62189423D01*
X57932914Y-62127961D01*
X57945752Y-62105309D01*
X57939253Y-62049644D01*
X57898672Y-61983492D01*
X57839444Y-61923463D01*
X57777003Y-61886166D01*
X57738866Y-61882674D01*
X57699525Y-61907212D01*
D12*
G04 #@! TO.C,XS1*
X51362500Y-93965000D02*
X51362500Y-86615000D01*
X51362500Y-86615000D02*
X51312500Y-85265000D01*
X51312500Y-85265000D02*
X51162500Y-84115000D01*
X51162500Y-84115000D02*
X50962500Y-83015000D01*
X50962500Y-83015000D02*
X50662500Y-81965000D01*
X64662500Y-83815000D02*
X65962500Y-83815000D01*
X56462500Y-93965000D02*
X63662500Y-93965000D01*
X53662500Y-93965000D02*
X51362500Y-93965000D01*
X50662500Y-81965000D02*
X50662500Y-79265000D01*
X50662500Y-79265000D02*
X53662500Y-79265000D01*
X63662500Y-79265000D02*
X56462500Y-79265000D01*
X64062500Y-84265000D02*
X64062500Y-84565000D01*
X64062500Y-84565000D02*
X63762500Y-84565000D01*
X63762500Y-84565000D02*
X63762500Y-84265000D01*
X63762500Y-84265000D02*
X64062500Y-84265000D01*
X64662500Y-83815000D02*
X64662500Y-80815000D01*
D13*
G04 #@! TO.C,J2*
X65919900Y-110441400D02*
X69399700Y-110441400D01*
X69399700Y-110441400D02*
X69399700Y-108866600D01*
X69399700Y-108866600D02*
X69399700Y-100357600D01*
X69399700Y-100357600D02*
X65919900Y-100357600D01*
X65919900Y-100357600D02*
X65919900Y-110441400D01*
G04 #@! TO.C,J10*
X77768700Y-106819700D02*
X83788500Y-106819700D01*
X77768700Y-103390700D02*
X77768700Y-106819700D01*
X83788500Y-103390700D02*
X77768700Y-103390700D01*
X83788500Y-106819700D02*
X83788500Y-103390700D01*
G04 #@! TO.C,J9*
X99771200Y-79781400D02*
X96240600Y-79781400D01*
X96240600Y-79781400D02*
X96240600Y-92024200D01*
X96240600Y-92024200D02*
X99771200Y-92024200D01*
X99771200Y-92024200D02*
X99771200Y-79781400D01*
G04 #@! TO.C,BT1*
X86334600Y-125222000D02*
X86334600Y-129463800D01*
X93675200Y-125222000D02*
X86334600Y-125222000D01*
X93675200Y-129489200D02*
X93675200Y-125222000D01*
G04 #@! TO.C,TH1*
X81972400Y-126238000D02*
X81972400Y-129413000D01*
X86061800Y-126238000D02*
X81972400Y-126238000D01*
X86061800Y-129413000D02*
X86061800Y-126238000D01*
G04 #@! TO.C,Q5*
X57180000Y-113590000D02*
X56250000Y-113590000D01*
X54020000Y-113590000D02*
X54950000Y-113590000D01*
X54020000Y-113590000D02*
X54020000Y-111430000D01*
X57180000Y-113590000D02*
X57180000Y-112130000D01*
G04 #@! TO.C,R47*
X64510436Y-55555000D02*
X64964564Y-55555000D01*
X64510436Y-54085000D02*
X64964564Y-54085000D01*
G04 #@! TO.C,R43*
X64545436Y-61492500D02*
X64999564Y-61492500D01*
X64545436Y-60022500D02*
X64999564Y-60022500D01*
G04 #@! TO.C,R60*
X66429564Y-121545000D02*
X65975436Y-121545000D01*
X66429564Y-123015000D02*
X65975436Y-123015000D01*
G04 #@! TO.C,R34*
X68387936Y-73195000D02*
X68842064Y-73195000D01*
X68387936Y-71725000D02*
X68842064Y-71725000D01*
G04 #@! TO.C,R3*
X72267936Y-73190000D02*
X72722064Y-73190000D01*
X72267936Y-71720000D02*
X72722064Y-71720000D01*
G04 #@! TO.C,Q7*
X70912500Y-68937500D02*
X71842500Y-68937500D01*
X74072500Y-68937500D02*
X73142500Y-68937500D01*
X74072500Y-68937500D02*
X74072500Y-71097500D01*
X70912500Y-68937500D02*
X70912500Y-70397500D01*
G04 #@! TO.C,R42*
X64999564Y-58045000D02*
X64545436Y-58045000D01*
X64999564Y-59515000D02*
X64545436Y-59515000D01*
G04 #@! TO.C,C45*
X60913748Y-53395000D02*
X62336252Y-53395000D01*
X60913748Y-51575000D02*
X62336252Y-51575000D01*
G04 #@! TO.C,R27*
X94705000Y-118960436D02*
X94705000Y-119414564D01*
X96175000Y-118960436D02*
X96175000Y-119414564D01*
G04 #@! TO.C,R25*
X90725000Y-118962936D02*
X90725000Y-119417064D01*
X92195000Y-118962936D02*
X92195000Y-119417064D01*
G04 #@! TO.C,U9*
X68410000Y-118570000D02*
X68410000Y-116770000D01*
X71630000Y-116770000D02*
X71630000Y-119220000D01*
G04 #@! TO.C,U8*
X90175000Y-89237500D02*
X90175000Y-90167500D01*
X90175000Y-92397500D02*
X90175000Y-91467500D01*
X90175000Y-92397500D02*
X88015000Y-92397500D01*
X90175000Y-89237500D02*
X88715000Y-89237500D01*
D12*
G04 #@! TO.C,U5*
X75967500Y-50312500D02*
X75967500Y-51062500D01*
X92467500Y-50312500D02*
X75967500Y-50312500D01*
X92467500Y-51062500D02*
X92467500Y-50312500D01*
X75967500Y-67812500D02*
X75967500Y-67062500D01*
X92467500Y-67812500D02*
X75967500Y-67812500D01*
X92467500Y-67062500D02*
X92467500Y-67812500D01*
D13*
G04 #@! TO.C,U1*
X80552500Y-109487500D02*
X80552500Y-108762500D01*
X80552500Y-108762500D02*
X79827500Y-108762500D01*
X75332500Y-113257500D02*
X75332500Y-113982500D01*
X75332500Y-113982500D02*
X76057500Y-113982500D01*
X75332500Y-109487500D02*
X75332500Y-108762500D01*
X75332500Y-108762500D02*
X76057500Y-108762500D01*
X80552500Y-113257500D02*
X80552500Y-113982500D01*
G04 #@! TO.C,R55*
X61127500Y-116927064D02*
X61127500Y-116472936D01*
X59657500Y-116927064D02*
X59657500Y-116472936D01*
G04 #@! TO.C,R54*
X61147500Y-113049564D02*
X61147500Y-112595436D01*
X59677500Y-113049564D02*
X59677500Y-112595436D01*
G04 #@! TO.C,R53*
X91527936Y-72287500D02*
X91982064Y-72287500D01*
X91527936Y-70817500D02*
X91982064Y-70817500D01*
G04 #@! TO.C,R52*
X91994564Y-68792500D02*
X91540436Y-68792500D01*
X91994564Y-70262500D02*
X91540436Y-70262500D01*
G04 #@! TO.C,R48*
X64979564Y-56057500D02*
X64525436Y-56057500D01*
X64979564Y-57527500D02*
X64525436Y-57527500D01*
G04 #@! TO.C,R46*
X66962500Y-59485436D02*
X66962500Y-59939564D01*
X68432500Y-59485436D02*
X68432500Y-59939564D01*
G04 #@! TO.C,R41*
X71617500Y-121652500D02*
X72817500Y-121652500D01*
X72817500Y-119952500D02*
X71617500Y-119952500D01*
G04 #@! TO.C,R38*
X66417064Y-119540000D02*
X65962936Y-119540000D01*
X66417064Y-121010000D02*
X65962936Y-121010000D01*
G04 #@! TO.C,R33*
X85920000Y-90665436D02*
X85920000Y-91119564D01*
X87390000Y-90665436D02*
X87390000Y-91119564D01*
G04 #@! TO.C,R31*
X88432500Y-106772936D02*
X88432500Y-107227064D01*
X89902500Y-106772936D02*
X89902500Y-107227064D01*
G04 #@! TO.C,R28*
X98160000Y-119414564D02*
X98160000Y-118960436D01*
X96690000Y-119414564D02*
X96690000Y-118960436D01*
G04 #@! TO.C,R26*
X59140000Y-113047064D02*
X59140000Y-112592936D01*
X57670000Y-113047064D02*
X57670000Y-112592936D01*
G04 #@! TO.C,R24*
X94187500Y-119414564D02*
X94187500Y-118960436D01*
X92717500Y-119414564D02*
X92717500Y-118960436D01*
G04 #@! TO.C,R23*
X55390436Y-110680000D02*
X55844564Y-110680000D01*
X55390436Y-109210000D02*
X55844564Y-109210000D01*
G04 #@! TO.C,R22*
X55390436Y-108682500D02*
X55844564Y-108682500D01*
X55390436Y-107212500D02*
X55844564Y-107212500D01*
G04 #@! TO.C,R19*
X58302500Y-105137064D02*
X58302500Y-104682936D01*
X56832500Y-105137064D02*
X56832500Y-104682936D01*
G04 #@! TO.C,R18*
X73722500Y-100810436D02*
X73722500Y-101264564D01*
X75192500Y-100810436D02*
X75192500Y-101264564D01*
G04 #@! TO.C,R17*
X62307500Y-103132064D02*
X62307500Y-102677936D01*
X60837500Y-103132064D02*
X60837500Y-102677936D01*
G04 #@! TO.C,R13*
X83539000Y-113704864D02*
X83539000Y-113250736D01*
X82069000Y-113704864D02*
X82069000Y-113250736D01*
G04 #@! TO.C,R12*
X82043600Y-108443536D02*
X82043600Y-108897664D01*
X83513600Y-108443536D02*
X83513600Y-108897664D01*
G04 #@! TO.C,R11*
X75702500Y-100835436D02*
X75702500Y-101289564D01*
X77172500Y-100835436D02*
X77172500Y-101289564D01*
G04 #@! TO.C,R10*
X82548656Y-119156800D02*
X83002784Y-119156800D01*
X82548656Y-117686800D02*
X83002784Y-117686800D01*
G04 #@! TO.C,R9*
X60727064Y-99050000D02*
X60272936Y-99050000D01*
X60727064Y-100520000D02*
X60272936Y-100520000D01*
G04 #@! TO.C,R8*
X82552716Y-117178140D02*
X83006844Y-117178140D01*
X82552716Y-115708140D02*
X83006844Y-115708140D01*
G04 #@! TO.C,R7*
X78765576Y-117180680D02*
X79219704Y-117180680D01*
X78765576Y-115710680D02*
X79219704Y-115710680D01*
G04 #@! TO.C,R6*
X79217164Y-117686800D02*
X78763036Y-117686800D01*
X79217164Y-119156800D02*
X78763036Y-119156800D01*
G04 #@! TO.C,R4*
X89457500Y-76327936D02*
X89457500Y-76782064D01*
X90927500Y-76327936D02*
X90927500Y-76782064D01*
G04 #@! TO.C,R2*
X86347064Y-73865000D02*
X85892936Y-73865000D01*
X86347064Y-75335000D02*
X85892936Y-75335000D01*
G04 #@! TO.C,R1*
X72922880Y-113049436D02*
X72922880Y-113503564D01*
X74392880Y-113049436D02*
X74392880Y-113503564D01*
G04 #@! TO.C,Q3*
X58665000Y-110245000D02*
X58665000Y-109315000D01*
X58665000Y-107085000D02*
X58665000Y-108015000D01*
X58665000Y-107085000D02*
X60825000Y-107085000D01*
X58665000Y-110245000D02*
X60125000Y-110245000D01*
G04 #@! TO.C,Q2*
X58347500Y-101625000D02*
X57417500Y-101625000D01*
X55187500Y-101625000D02*
X56117500Y-101625000D01*
X55187500Y-101625000D02*
X55187500Y-99465000D01*
X58347500Y-101625000D02*
X58347500Y-100165000D01*
G04 #@! TO.C,F3*
X65872936Y-125445000D02*
X67077064Y-125445000D01*
X65872936Y-123625000D02*
X67077064Y-123625000D01*
G04 #@! TO.C,F2*
X84297064Y-123492500D02*
X83092936Y-123492500D01*
X84297064Y-125312500D02*
X83092936Y-125312500D01*
G04 #@! TO.C,D7*
X75417500Y-103840000D02*
X75417500Y-106700000D01*
X75417500Y-106700000D02*
X73497500Y-106700000D01*
X73497500Y-106700000D02*
X73497500Y-103840000D01*
G04 #@! TO.C,D6*
X77372500Y-103847500D02*
X77372500Y-106707500D01*
X77372500Y-106707500D02*
X75452500Y-106707500D01*
X75452500Y-106707500D02*
X75452500Y-103847500D01*
G04 #@! TO.C,C47*
X92907500Y-91211252D02*
X92907500Y-90688748D01*
X91437500Y-91211252D02*
X91437500Y-90688748D01*
G04 #@! TO.C,C46*
X99072500Y-77753752D02*
X99072500Y-77231248D01*
X97602500Y-77753752D02*
X97602500Y-77231248D01*
G04 #@! TO.C,C39*
X73155000Y-101318752D02*
X73155000Y-100796248D01*
X71685000Y-101318752D02*
X71685000Y-100796248D01*
G04 #@! TO.C,C37*
X68531252Y-127270000D02*
X68008748Y-127270000D01*
X68531252Y-128740000D02*
X68008748Y-128740000D01*
G04 #@! TO.C,C31*
X66372500Y-116276248D02*
X66372500Y-116798752D01*
X67842500Y-116276248D02*
X67842500Y-116798752D01*
G04 #@! TO.C,C30*
X89151248Y-88737500D02*
X89673752Y-88737500D01*
X89151248Y-87267500D02*
X89673752Y-87267500D01*
G04 #@! TO.C,C29*
X95882500Y-95528733D02*
X95882500Y-95821267D01*
X96902500Y-95528733D02*
X96902500Y-95821267D01*
G04 #@! TO.C,C28*
X93235000Y-82536267D02*
X93235000Y-82243733D01*
X92215000Y-82536267D02*
X92215000Y-82243733D01*
G04 #@! TO.C,C26*
X97795000Y-95528733D02*
X97795000Y-95821267D01*
X98815000Y-95528733D02*
X98815000Y-95821267D01*
G04 #@! TO.C,C25*
X91705000Y-82541267D02*
X91705000Y-82248733D01*
X90685000Y-82541267D02*
X90685000Y-82248733D01*
G04 #@! TO.C,C22*
X96497952Y-58967700D02*
X95975448Y-58967700D01*
X96497952Y-60437700D02*
X95975448Y-60437700D01*
G04 #@! TO.C,C20*
X69078752Y-111562500D02*
X67656248Y-111562500D01*
X69078752Y-114282500D02*
X67656248Y-114282500D01*
G04 #@! TO.C,C19*
X71691252Y-97367500D02*
X71168748Y-97367500D01*
X71691252Y-98837500D02*
X71168748Y-98837500D01*
G04 #@! TO.C,C18*
X96501852Y-56897600D02*
X95979348Y-56897600D01*
X96501852Y-58367600D02*
X95979348Y-58367600D01*
G04 #@! TO.C,C14*
X63656248Y-75095000D02*
X64178752Y-75095000D01*
X63656248Y-73625000D02*
X64178752Y-73625000D01*
G04 #@! TO.C,C6*
X58847500Y-102653748D02*
X58847500Y-103176252D01*
X60317500Y-102653748D02*
X60317500Y-103176252D01*
G04 #@! TO.C,C3*
X74410660Y-117381192D02*
X74410660Y-116858688D01*
X72940660Y-117381192D02*
X72940660Y-116858688D01*
G04 #@! TO.C,C2*
X75267300Y-117112888D02*
X75267300Y-117635392D01*
X76737300Y-117112888D02*
X76737300Y-117635392D01*
G04 #@! TD*
G04 #@! TO.C,J2*
D12*
X70893333Y-106282380D02*
X70893333Y-106996666D01*
X70940952Y-107139523D01*
X71036190Y-107234761D01*
X71179047Y-107282380D01*
X71274285Y-107282380D01*
X70464761Y-106377619D02*
X70417142Y-106330000D01*
X70321904Y-106282380D01*
X70083809Y-106282380D01*
X69988571Y-106330000D01*
X69940952Y-106377619D01*
X69893333Y-106472857D01*
X69893333Y-106568095D01*
X69940952Y-106710952D01*
X70512380Y-107282380D01*
X69893333Y-107282380D01*
G04 #@! TO.C,J10*
X84214880Y-104282976D02*
X84929166Y-104282976D01*
X85072023Y-104235357D01*
X85167261Y-104140119D01*
X85214880Y-103997261D01*
X85214880Y-103902023D01*
X85214880Y-105282976D02*
X85214880Y-104711547D01*
X85214880Y-104997261D02*
X84214880Y-104997261D01*
X84357738Y-104902023D01*
X84452976Y-104806785D01*
X84500595Y-104711547D01*
X84214880Y-105902023D02*
X84214880Y-105997261D01*
X84262500Y-106092500D01*
X84310119Y-106140119D01*
X84405357Y-106187738D01*
X84595833Y-106235357D01*
X84833928Y-106235357D01*
X85024404Y-106187738D01*
X85119642Y-106140119D01*
X85167261Y-106092500D01*
X85214880Y-105997261D01*
X85214880Y-105902023D01*
X85167261Y-105806785D01*
X85119642Y-105759166D01*
X85024404Y-105711547D01*
X84833928Y-105663928D01*
X84595833Y-105663928D01*
X84405357Y-105711547D01*
X84310119Y-105759166D01*
X84262500Y-105806785D01*
X84214880Y-105902023D01*
G04 #@! TO.C,J9*
X95671533Y-78453880D02*
X95671533Y-79168166D01*
X95719152Y-79311023D01*
X95814390Y-79406261D01*
X95957247Y-79453880D01*
X96052485Y-79453880D01*
X95147723Y-79453880D02*
X94957247Y-79453880D01*
X94862009Y-79406261D01*
X94814390Y-79358642D01*
X94719152Y-79215785D01*
X94671533Y-79025309D01*
X94671533Y-78644357D01*
X94719152Y-78549119D01*
X94766771Y-78501500D01*
X94862009Y-78453880D01*
X95052485Y-78453880D01*
X95147723Y-78501500D01*
X95195342Y-78549119D01*
X95242961Y-78644357D01*
X95242961Y-78882452D01*
X95195342Y-78977690D01*
X95147723Y-79025309D01*
X95052485Y-79072928D01*
X94862009Y-79072928D01*
X94766771Y-79025309D01*
X94719152Y-78977690D01*
X94671533Y-78882452D01*
G04 #@! TO.C,BT1*
X90091274Y-124301831D02*
X89948417Y-124349450D01*
X89900798Y-124397069D01*
X89853179Y-124492307D01*
X89853179Y-124635164D01*
X89900798Y-124730402D01*
X89948417Y-124778021D01*
X90043655Y-124825640D01*
X90424607Y-124825640D01*
X90424607Y-123825640D01*
X90091274Y-123825640D01*
X89996036Y-123873260D01*
X89948417Y-123920879D01*
X89900798Y-124016117D01*
X89900798Y-124111355D01*
X89948417Y-124206593D01*
X89996036Y-124254212D01*
X90091274Y-124301831D01*
X90424607Y-124301831D01*
X89567464Y-123825640D02*
X88996036Y-123825640D01*
X89281750Y-124825640D02*
X89281750Y-123825640D01*
X88138893Y-124825640D02*
X88710321Y-124825640D01*
X88424607Y-124825640D02*
X88424607Y-123825640D01*
X88519845Y-123968498D01*
X88615083Y-124063736D01*
X88710321Y-124111355D01*
G04 #@! TO.C,TH1*
X80706180Y-126422785D02*
X80706180Y-126994214D01*
X81706180Y-126708500D02*
X80706180Y-126708500D01*
X81706180Y-127327547D02*
X80706180Y-127327547D01*
X81182371Y-127327547D02*
X81182371Y-127898976D01*
X81706180Y-127898976D02*
X80706180Y-127898976D01*
X81706180Y-128898976D02*
X81706180Y-128327547D01*
X81706180Y-128613261D02*
X80706180Y-128613261D01*
X80849038Y-128518023D01*
X80944276Y-128422785D01*
X80991895Y-128327547D01*
G04 #@! TO.C,Q5*
X53862619Y-114439761D02*
X53815000Y-114344523D01*
X53719761Y-114249285D01*
X53576904Y-114106428D01*
X53529285Y-114011190D01*
X53529285Y-113915952D01*
X53767380Y-113963571D02*
X53719761Y-113868333D01*
X53624523Y-113773095D01*
X53434047Y-113725476D01*
X53100714Y-113725476D01*
X52910238Y-113773095D01*
X52815000Y-113868333D01*
X52767380Y-113963571D01*
X52767380Y-114154047D01*
X52815000Y-114249285D01*
X52910238Y-114344523D01*
X53100714Y-114392142D01*
X53434047Y-114392142D01*
X53624523Y-114344523D01*
X53719761Y-114249285D01*
X53767380Y-114154047D01*
X53767380Y-113963571D01*
X52767380Y-115296904D02*
X52767380Y-114820714D01*
X53243571Y-114773095D01*
X53195952Y-114820714D01*
X53148333Y-114915952D01*
X53148333Y-115154047D01*
X53195952Y-115249285D01*
X53243571Y-115296904D01*
X53338809Y-115344523D01*
X53576904Y-115344523D01*
X53672142Y-115296904D01*
X53719761Y-115249285D01*
X53767380Y-115154047D01*
X53767380Y-114915952D01*
X53719761Y-114820714D01*
X53672142Y-114773095D01*
G04 #@! TO.C,R47*
X61790357Y-55267380D02*
X62123690Y-54791190D01*
X62361785Y-55267380D02*
X62361785Y-54267380D01*
X61980833Y-54267380D01*
X61885595Y-54315000D01*
X61837976Y-54362619D01*
X61790357Y-54457857D01*
X61790357Y-54600714D01*
X61837976Y-54695952D01*
X61885595Y-54743571D01*
X61980833Y-54791190D01*
X62361785Y-54791190D01*
X60933214Y-54600714D02*
X60933214Y-55267380D01*
X61171309Y-54219761D02*
X61409404Y-54934047D01*
X60790357Y-54934047D01*
X60504642Y-54267380D02*
X59837976Y-54267380D01*
X60266547Y-55267380D01*
G04 #@! TO.C,R43*
X63430357Y-63037380D02*
X63763690Y-62561190D01*
X64001785Y-63037380D02*
X64001785Y-62037380D01*
X63620833Y-62037380D01*
X63525595Y-62085000D01*
X63477976Y-62132619D01*
X63430357Y-62227857D01*
X63430357Y-62370714D01*
X63477976Y-62465952D01*
X63525595Y-62513571D01*
X63620833Y-62561190D01*
X64001785Y-62561190D01*
X62573214Y-62370714D02*
X62573214Y-63037380D01*
X62811309Y-61989761D02*
X63049404Y-62704047D01*
X62430357Y-62704047D01*
X62144642Y-62037380D02*
X61525595Y-62037380D01*
X61858928Y-62418333D01*
X61716071Y-62418333D01*
X61620833Y-62465952D01*
X61573214Y-62513571D01*
X61525595Y-62608809D01*
X61525595Y-62846904D01*
X61573214Y-62942142D01*
X61620833Y-62989761D01*
X61716071Y-63037380D01*
X62001785Y-63037380D01*
X62097023Y-62989761D01*
X62144642Y-62942142D01*
G04 #@! TO.C,R60*
X61102857Y-122829880D02*
X61436190Y-122353690D01*
X61674285Y-122829880D02*
X61674285Y-121829880D01*
X61293333Y-121829880D01*
X61198095Y-121877500D01*
X61150476Y-121925119D01*
X61102857Y-122020357D01*
X61102857Y-122163214D01*
X61150476Y-122258452D01*
X61198095Y-122306071D01*
X61293333Y-122353690D01*
X61674285Y-122353690D01*
X60245714Y-121829880D02*
X60436190Y-121829880D01*
X60531428Y-121877500D01*
X60579047Y-121925119D01*
X60674285Y-122067976D01*
X60721904Y-122258452D01*
X60721904Y-122639404D01*
X60674285Y-122734642D01*
X60626666Y-122782261D01*
X60531428Y-122829880D01*
X60340952Y-122829880D01*
X60245714Y-122782261D01*
X60198095Y-122734642D01*
X60150476Y-122639404D01*
X60150476Y-122401309D01*
X60198095Y-122306071D01*
X60245714Y-122258452D01*
X60340952Y-122210833D01*
X60531428Y-122210833D01*
X60626666Y-122258452D01*
X60674285Y-122306071D01*
X60721904Y-122401309D01*
X59531428Y-121829880D02*
X59436190Y-121829880D01*
X59340952Y-121877500D01*
X59293333Y-121925119D01*
X59245714Y-122020357D01*
X59198095Y-122210833D01*
X59198095Y-122448928D01*
X59245714Y-122639404D01*
X59293333Y-122734642D01*
X59340952Y-122782261D01*
X59436190Y-122829880D01*
X59531428Y-122829880D01*
X59626666Y-122782261D01*
X59674285Y-122734642D01*
X59721904Y-122639404D01*
X59769523Y-122448928D01*
X59769523Y-122210833D01*
X59721904Y-122020357D01*
X59674285Y-121925119D01*
X59626666Y-121877500D01*
X59531428Y-121829880D01*
G04 #@! TO.C,R34*
X69257857Y-74562380D02*
X69591190Y-74086190D01*
X69829285Y-74562380D02*
X69829285Y-73562380D01*
X69448333Y-73562380D01*
X69353095Y-73610000D01*
X69305476Y-73657619D01*
X69257857Y-73752857D01*
X69257857Y-73895714D01*
X69305476Y-73990952D01*
X69353095Y-74038571D01*
X69448333Y-74086190D01*
X69829285Y-74086190D01*
X68924523Y-73562380D02*
X68305476Y-73562380D01*
X68638809Y-73943333D01*
X68495952Y-73943333D01*
X68400714Y-73990952D01*
X68353095Y-74038571D01*
X68305476Y-74133809D01*
X68305476Y-74371904D01*
X68353095Y-74467142D01*
X68400714Y-74514761D01*
X68495952Y-74562380D01*
X68781666Y-74562380D01*
X68876904Y-74514761D01*
X68924523Y-74467142D01*
X67448333Y-73895714D02*
X67448333Y-74562380D01*
X67686428Y-73514761D02*
X67924523Y-74229047D01*
X67305476Y-74229047D01*
G04 #@! TO.C,R3*
X72661666Y-74557380D02*
X72995000Y-74081190D01*
X73233095Y-74557380D02*
X73233095Y-73557380D01*
X72852142Y-73557380D01*
X72756904Y-73605000D01*
X72709285Y-73652619D01*
X72661666Y-73747857D01*
X72661666Y-73890714D01*
X72709285Y-73985952D01*
X72756904Y-74033571D01*
X72852142Y-74081190D01*
X73233095Y-74081190D01*
X72328333Y-73557380D02*
X71709285Y-73557380D01*
X72042619Y-73938333D01*
X71899761Y-73938333D01*
X71804523Y-73985952D01*
X71756904Y-74033571D01*
X71709285Y-74128809D01*
X71709285Y-74366904D01*
X71756904Y-74462142D01*
X71804523Y-74509761D01*
X71899761Y-74557380D01*
X72185476Y-74557380D01*
X72280714Y-74509761D01*
X72328333Y-74462142D01*
G04 #@! TO.C,Q7*
X71712738Y-67950119D02*
X71807976Y-67902500D01*
X71903214Y-67807261D01*
X72046071Y-67664404D01*
X72141309Y-67616785D01*
X72236547Y-67616785D01*
X72188928Y-67854880D02*
X72284166Y-67807261D01*
X72379404Y-67712023D01*
X72427023Y-67521547D01*
X72427023Y-67188214D01*
X72379404Y-66997738D01*
X72284166Y-66902500D01*
X72188928Y-66854880D01*
X71998452Y-66854880D01*
X71903214Y-66902500D01*
X71807976Y-66997738D01*
X71760357Y-67188214D01*
X71760357Y-67521547D01*
X71807976Y-67712023D01*
X71903214Y-67807261D01*
X71998452Y-67854880D01*
X72188928Y-67854880D01*
X71427023Y-66854880D02*
X70760357Y-66854880D01*
X71188928Y-67854880D01*
G04 #@! TO.C,R42*
X62482380Y-59257142D02*
X62006190Y-58923809D01*
X62482380Y-58685714D02*
X61482380Y-58685714D01*
X61482380Y-59066666D01*
X61530000Y-59161904D01*
X61577619Y-59209523D01*
X61672857Y-59257142D01*
X61815714Y-59257142D01*
X61910952Y-59209523D01*
X61958571Y-59161904D01*
X62006190Y-59066666D01*
X62006190Y-58685714D01*
X61815714Y-60114285D02*
X62482380Y-60114285D01*
X61434761Y-59876190D02*
X62149047Y-59638095D01*
X62149047Y-60257142D01*
X61577619Y-60590476D02*
X61530000Y-60638095D01*
X61482380Y-60733333D01*
X61482380Y-60971428D01*
X61530000Y-61066666D01*
X61577619Y-61114285D01*
X61672857Y-61161904D01*
X61768095Y-61161904D01*
X61910952Y-61114285D01*
X62482380Y-60542857D01*
X62482380Y-61161904D01*
G04 #@! TO.C,C45*
X66385357Y-52279642D02*
X66432976Y-52327261D01*
X66575833Y-52374880D01*
X66671071Y-52374880D01*
X66813928Y-52327261D01*
X66909166Y-52232023D01*
X66956785Y-52136785D01*
X67004404Y-51946309D01*
X67004404Y-51803452D01*
X66956785Y-51612976D01*
X66909166Y-51517738D01*
X66813928Y-51422500D01*
X66671071Y-51374880D01*
X66575833Y-51374880D01*
X66432976Y-51422500D01*
X66385357Y-51470119D01*
X65528214Y-51708214D02*
X65528214Y-52374880D01*
X65766309Y-51327261D02*
X66004404Y-52041547D01*
X65385357Y-52041547D01*
X64528214Y-51374880D02*
X65004404Y-51374880D01*
X65052023Y-51851071D01*
X65004404Y-51803452D01*
X64909166Y-51755833D01*
X64671071Y-51755833D01*
X64575833Y-51803452D01*
X64528214Y-51851071D01*
X64480595Y-51946309D01*
X64480595Y-52184404D01*
X64528214Y-52279642D01*
X64575833Y-52327261D01*
X64671071Y-52374880D01*
X64909166Y-52374880D01*
X65004404Y-52327261D01*
X65052023Y-52279642D01*
G04 #@! TO.C,R27*
X95844880Y-115267142D02*
X95368690Y-114933809D01*
X95844880Y-114695714D02*
X94844880Y-114695714D01*
X94844880Y-115076666D01*
X94892500Y-115171904D01*
X94940119Y-115219523D01*
X95035357Y-115267142D01*
X95178214Y-115267142D01*
X95273452Y-115219523D01*
X95321071Y-115171904D01*
X95368690Y-115076666D01*
X95368690Y-114695714D01*
X94940119Y-115648095D02*
X94892500Y-115695714D01*
X94844880Y-115790952D01*
X94844880Y-116029047D01*
X94892500Y-116124285D01*
X94940119Y-116171904D01*
X95035357Y-116219523D01*
X95130595Y-116219523D01*
X95273452Y-116171904D01*
X95844880Y-115600476D01*
X95844880Y-116219523D01*
X94844880Y-116552857D02*
X94844880Y-117219523D01*
X95844880Y-116790952D01*
G04 #@! TO.C,R25*
X90294880Y-118552142D02*
X89818690Y-118218809D01*
X90294880Y-117980714D02*
X89294880Y-117980714D01*
X89294880Y-118361666D01*
X89342500Y-118456904D01*
X89390119Y-118504523D01*
X89485357Y-118552142D01*
X89628214Y-118552142D01*
X89723452Y-118504523D01*
X89771071Y-118456904D01*
X89818690Y-118361666D01*
X89818690Y-117980714D01*
X89390119Y-118933095D02*
X89342500Y-118980714D01*
X89294880Y-119075952D01*
X89294880Y-119314047D01*
X89342500Y-119409285D01*
X89390119Y-119456904D01*
X89485357Y-119504523D01*
X89580595Y-119504523D01*
X89723452Y-119456904D01*
X90294880Y-118885476D01*
X90294880Y-119504523D01*
X89294880Y-120409285D02*
X89294880Y-119933095D01*
X89771071Y-119885476D01*
X89723452Y-119933095D01*
X89675833Y-120028333D01*
X89675833Y-120266428D01*
X89723452Y-120361666D01*
X89771071Y-120409285D01*
X89866309Y-120456904D01*
X90104404Y-120456904D01*
X90199642Y-120409285D01*
X90247261Y-120361666D01*
X90294880Y-120266428D01*
X90294880Y-120028333D01*
X90247261Y-119933095D01*
X90199642Y-119885476D01*
G04 #@! TO.C,U9*
X68364880Y-119790595D02*
X69174404Y-119790595D01*
X69269642Y-119838214D01*
X69317261Y-119885833D01*
X69364880Y-119981071D01*
X69364880Y-120171547D01*
X69317261Y-120266785D01*
X69269642Y-120314404D01*
X69174404Y-120362023D01*
X68364880Y-120362023D01*
X69364880Y-120885833D02*
X69364880Y-121076309D01*
X69317261Y-121171547D01*
X69269642Y-121219166D01*
X69126785Y-121314404D01*
X68936309Y-121362023D01*
X68555357Y-121362023D01*
X68460119Y-121314404D01*
X68412500Y-121266785D01*
X68364880Y-121171547D01*
X68364880Y-120981071D01*
X68412500Y-120885833D01*
X68460119Y-120838214D01*
X68555357Y-120790595D01*
X68793452Y-120790595D01*
X68888690Y-120838214D01*
X68936309Y-120885833D01*
X68983928Y-120981071D01*
X68983928Y-121171547D01*
X68936309Y-121266785D01*
X68888690Y-121314404D01*
X68793452Y-121362023D01*
G04 #@! TO.C,U8*
X89456904Y-93029880D02*
X89456904Y-93839404D01*
X89409285Y-93934642D01*
X89361666Y-93982261D01*
X89266428Y-94029880D01*
X89075952Y-94029880D01*
X88980714Y-93982261D01*
X88933095Y-93934642D01*
X88885476Y-93839404D01*
X88885476Y-93029880D01*
X88266428Y-93458452D02*
X88361666Y-93410833D01*
X88409285Y-93363214D01*
X88456904Y-93267976D01*
X88456904Y-93220357D01*
X88409285Y-93125119D01*
X88361666Y-93077500D01*
X88266428Y-93029880D01*
X88075952Y-93029880D01*
X87980714Y-93077500D01*
X87933095Y-93125119D01*
X87885476Y-93220357D01*
X87885476Y-93267976D01*
X87933095Y-93363214D01*
X87980714Y-93410833D01*
X88075952Y-93458452D01*
X88266428Y-93458452D01*
X88361666Y-93506071D01*
X88409285Y-93553690D01*
X88456904Y-93648928D01*
X88456904Y-93839404D01*
X88409285Y-93934642D01*
X88361666Y-93982261D01*
X88266428Y-94029880D01*
X88075952Y-94029880D01*
X87980714Y-93982261D01*
X87933095Y-93934642D01*
X87885476Y-93839404D01*
X87885476Y-93648928D01*
X87933095Y-93553690D01*
X87980714Y-93506071D01*
X88075952Y-93458452D01*
G04 #@! TO.C,U5*
X84979404Y-57514880D02*
X84979404Y-58324404D01*
X84931785Y-58419642D01*
X84884166Y-58467261D01*
X84788928Y-58514880D01*
X84598452Y-58514880D01*
X84503214Y-58467261D01*
X84455595Y-58419642D01*
X84407976Y-58324404D01*
X84407976Y-57514880D01*
X83455595Y-57514880D02*
X83931785Y-57514880D01*
X83979404Y-57991071D01*
X83931785Y-57943452D01*
X83836547Y-57895833D01*
X83598452Y-57895833D01*
X83503214Y-57943452D01*
X83455595Y-57991071D01*
X83407976Y-58086309D01*
X83407976Y-58324404D01*
X83455595Y-58419642D01*
X83503214Y-58467261D01*
X83598452Y-58514880D01*
X83836547Y-58514880D01*
X83931785Y-58467261D01*
X83979404Y-58419642D01*
G04 #@! TO.C,U1*
X73367380Y-108620595D02*
X74176904Y-108620595D01*
X74272142Y-108668214D01*
X74319761Y-108715833D01*
X74367380Y-108811071D01*
X74367380Y-109001547D01*
X74319761Y-109096785D01*
X74272142Y-109144404D01*
X74176904Y-109192023D01*
X73367380Y-109192023D01*
X74367380Y-110192023D02*
X74367380Y-109620595D01*
X74367380Y-109906309D02*
X73367380Y-109906309D01*
X73510238Y-109811071D01*
X73605476Y-109715833D01*
X73653095Y-109620595D01*
G04 #@! TO.C,R55*
X59144880Y-115974642D02*
X58668690Y-115641309D01*
X59144880Y-115403214D02*
X58144880Y-115403214D01*
X58144880Y-115784166D01*
X58192500Y-115879404D01*
X58240119Y-115927023D01*
X58335357Y-115974642D01*
X58478214Y-115974642D01*
X58573452Y-115927023D01*
X58621071Y-115879404D01*
X58668690Y-115784166D01*
X58668690Y-115403214D01*
X58144880Y-116879404D02*
X58144880Y-116403214D01*
X58621071Y-116355595D01*
X58573452Y-116403214D01*
X58525833Y-116498452D01*
X58525833Y-116736547D01*
X58573452Y-116831785D01*
X58621071Y-116879404D01*
X58716309Y-116927023D01*
X58954404Y-116927023D01*
X59049642Y-116879404D01*
X59097261Y-116831785D01*
X59144880Y-116736547D01*
X59144880Y-116498452D01*
X59097261Y-116403214D01*
X59049642Y-116355595D01*
X58144880Y-117831785D02*
X58144880Y-117355595D01*
X58621071Y-117307976D01*
X58573452Y-117355595D01*
X58525833Y-117450833D01*
X58525833Y-117688928D01*
X58573452Y-117784166D01*
X58621071Y-117831785D01*
X58716309Y-117879404D01*
X58954404Y-117879404D01*
X59049642Y-117831785D01*
X59097261Y-117784166D01*
X59144880Y-117688928D01*
X59144880Y-117450833D01*
X59097261Y-117355595D01*
X59049642Y-117307976D01*
G04 #@! TO.C,R54*
X62514880Y-112179642D02*
X62038690Y-111846309D01*
X62514880Y-111608214D02*
X61514880Y-111608214D01*
X61514880Y-111989166D01*
X61562500Y-112084404D01*
X61610119Y-112132023D01*
X61705357Y-112179642D01*
X61848214Y-112179642D01*
X61943452Y-112132023D01*
X61991071Y-112084404D01*
X62038690Y-111989166D01*
X62038690Y-111608214D01*
X61514880Y-113084404D02*
X61514880Y-112608214D01*
X61991071Y-112560595D01*
X61943452Y-112608214D01*
X61895833Y-112703452D01*
X61895833Y-112941547D01*
X61943452Y-113036785D01*
X61991071Y-113084404D01*
X62086309Y-113132023D01*
X62324404Y-113132023D01*
X62419642Y-113084404D01*
X62467261Y-113036785D01*
X62514880Y-112941547D01*
X62514880Y-112703452D01*
X62467261Y-112608214D01*
X62419642Y-112560595D01*
X61848214Y-113989166D02*
X62514880Y-113989166D01*
X61467261Y-113751071D02*
X62181547Y-113512976D01*
X62181547Y-114132023D01*
G04 #@! TO.C,R53*
X97107857Y-71992380D02*
X97441190Y-71516190D01*
X97679285Y-71992380D02*
X97679285Y-70992380D01*
X97298333Y-70992380D01*
X97203095Y-71040000D01*
X97155476Y-71087619D01*
X97107857Y-71182857D01*
X97107857Y-71325714D01*
X97155476Y-71420952D01*
X97203095Y-71468571D01*
X97298333Y-71516190D01*
X97679285Y-71516190D01*
X96203095Y-70992380D02*
X96679285Y-70992380D01*
X96726904Y-71468571D01*
X96679285Y-71420952D01*
X96584047Y-71373333D01*
X96345952Y-71373333D01*
X96250714Y-71420952D01*
X96203095Y-71468571D01*
X96155476Y-71563809D01*
X96155476Y-71801904D01*
X96203095Y-71897142D01*
X96250714Y-71944761D01*
X96345952Y-71992380D01*
X96584047Y-71992380D01*
X96679285Y-71944761D01*
X96726904Y-71897142D01*
X95822142Y-70992380D02*
X95203095Y-70992380D01*
X95536428Y-71373333D01*
X95393571Y-71373333D01*
X95298333Y-71420952D01*
X95250714Y-71468571D01*
X95203095Y-71563809D01*
X95203095Y-71801904D01*
X95250714Y-71897142D01*
X95298333Y-71944761D01*
X95393571Y-71992380D01*
X95679285Y-71992380D01*
X95774523Y-71944761D01*
X95822142Y-71897142D01*
G04 #@! TO.C,R52*
X97107857Y-70024880D02*
X97441190Y-69548690D01*
X97679285Y-70024880D02*
X97679285Y-69024880D01*
X97298333Y-69024880D01*
X97203095Y-69072500D01*
X97155476Y-69120119D01*
X97107857Y-69215357D01*
X97107857Y-69358214D01*
X97155476Y-69453452D01*
X97203095Y-69501071D01*
X97298333Y-69548690D01*
X97679285Y-69548690D01*
X96203095Y-69024880D02*
X96679285Y-69024880D01*
X96726904Y-69501071D01*
X96679285Y-69453452D01*
X96584047Y-69405833D01*
X96345952Y-69405833D01*
X96250714Y-69453452D01*
X96203095Y-69501071D01*
X96155476Y-69596309D01*
X96155476Y-69834404D01*
X96203095Y-69929642D01*
X96250714Y-69977261D01*
X96345952Y-70024880D01*
X96584047Y-70024880D01*
X96679285Y-69977261D01*
X96726904Y-69929642D01*
X95774523Y-69120119D02*
X95726904Y-69072500D01*
X95631666Y-69024880D01*
X95393571Y-69024880D01*
X95298333Y-69072500D01*
X95250714Y-69120119D01*
X95203095Y-69215357D01*
X95203095Y-69310595D01*
X95250714Y-69453452D01*
X95822142Y-70024880D01*
X95203095Y-70024880D01*
G04 #@! TO.C,R48*
X61830357Y-57234880D02*
X62163690Y-56758690D01*
X62401785Y-57234880D02*
X62401785Y-56234880D01*
X62020833Y-56234880D01*
X61925595Y-56282500D01*
X61877976Y-56330119D01*
X61830357Y-56425357D01*
X61830357Y-56568214D01*
X61877976Y-56663452D01*
X61925595Y-56711071D01*
X62020833Y-56758690D01*
X62401785Y-56758690D01*
X60973214Y-56568214D02*
X60973214Y-57234880D01*
X61211309Y-56187261D02*
X61449404Y-56901547D01*
X60830357Y-56901547D01*
X60306547Y-56663452D02*
X60401785Y-56615833D01*
X60449404Y-56568214D01*
X60497023Y-56472976D01*
X60497023Y-56425357D01*
X60449404Y-56330119D01*
X60401785Y-56282500D01*
X60306547Y-56234880D01*
X60116071Y-56234880D01*
X60020833Y-56282500D01*
X59973214Y-56330119D01*
X59925595Y-56425357D01*
X59925595Y-56472976D01*
X59973214Y-56568214D01*
X60020833Y-56615833D01*
X60116071Y-56663452D01*
X60306547Y-56663452D01*
X60401785Y-56711071D01*
X60449404Y-56758690D01*
X60497023Y-56853928D01*
X60497023Y-57044404D01*
X60449404Y-57139642D01*
X60401785Y-57187261D01*
X60306547Y-57234880D01*
X60116071Y-57234880D01*
X60020833Y-57187261D01*
X59973214Y-57139642D01*
X59925595Y-57044404D01*
X59925595Y-56853928D01*
X59973214Y-56758690D01*
X60020833Y-56711071D01*
X60116071Y-56663452D01*
G04 #@! TO.C,R46*
X69842380Y-59092142D02*
X69366190Y-58758809D01*
X69842380Y-58520714D02*
X68842380Y-58520714D01*
X68842380Y-58901666D01*
X68890000Y-58996904D01*
X68937619Y-59044523D01*
X69032857Y-59092142D01*
X69175714Y-59092142D01*
X69270952Y-59044523D01*
X69318571Y-58996904D01*
X69366190Y-58901666D01*
X69366190Y-58520714D01*
X69175714Y-59949285D02*
X69842380Y-59949285D01*
X68794761Y-59711190D02*
X69509047Y-59473095D01*
X69509047Y-60092142D01*
X68842380Y-60901666D02*
X68842380Y-60711190D01*
X68890000Y-60615952D01*
X68937619Y-60568333D01*
X69080476Y-60473095D01*
X69270952Y-60425476D01*
X69651904Y-60425476D01*
X69747142Y-60473095D01*
X69794761Y-60520714D01*
X69842380Y-60615952D01*
X69842380Y-60806428D01*
X69794761Y-60901666D01*
X69747142Y-60949285D01*
X69651904Y-60996904D01*
X69413809Y-60996904D01*
X69318571Y-60949285D01*
X69270952Y-60901666D01*
X69223333Y-60806428D01*
X69223333Y-60615952D01*
X69270952Y-60520714D01*
X69318571Y-60473095D01*
X69413809Y-60425476D01*
G04 #@! TO.C,R41*
X72707857Y-123227380D02*
X73041190Y-122751190D01*
X73279285Y-123227380D02*
X73279285Y-122227380D01*
X72898333Y-122227380D01*
X72803095Y-122275000D01*
X72755476Y-122322619D01*
X72707857Y-122417857D01*
X72707857Y-122560714D01*
X72755476Y-122655952D01*
X72803095Y-122703571D01*
X72898333Y-122751190D01*
X73279285Y-122751190D01*
X71850714Y-122560714D02*
X71850714Y-123227380D01*
X72088809Y-122179761D02*
X72326904Y-122894047D01*
X71707857Y-122894047D01*
X70803095Y-123227380D02*
X71374523Y-123227380D01*
X71088809Y-123227380D02*
X71088809Y-122227380D01*
X71184047Y-122370238D01*
X71279285Y-122465476D01*
X71374523Y-122513095D01*
G04 #@! TO.C,R38*
X63070357Y-120652380D02*
X63403690Y-120176190D01*
X63641785Y-120652380D02*
X63641785Y-119652380D01*
X63260833Y-119652380D01*
X63165595Y-119700000D01*
X63117976Y-119747619D01*
X63070357Y-119842857D01*
X63070357Y-119985714D01*
X63117976Y-120080952D01*
X63165595Y-120128571D01*
X63260833Y-120176190D01*
X63641785Y-120176190D01*
X62737023Y-119652380D02*
X62117976Y-119652380D01*
X62451309Y-120033333D01*
X62308452Y-120033333D01*
X62213214Y-120080952D01*
X62165595Y-120128571D01*
X62117976Y-120223809D01*
X62117976Y-120461904D01*
X62165595Y-120557142D01*
X62213214Y-120604761D01*
X62308452Y-120652380D01*
X62594166Y-120652380D01*
X62689404Y-120604761D01*
X62737023Y-120557142D01*
X61546547Y-120080952D02*
X61641785Y-120033333D01*
X61689404Y-119985714D01*
X61737023Y-119890476D01*
X61737023Y-119842857D01*
X61689404Y-119747619D01*
X61641785Y-119700000D01*
X61546547Y-119652380D01*
X61356071Y-119652380D01*
X61260833Y-119700000D01*
X61213214Y-119747619D01*
X61165595Y-119842857D01*
X61165595Y-119890476D01*
X61213214Y-119985714D01*
X61260833Y-120033333D01*
X61356071Y-120080952D01*
X61546547Y-120080952D01*
X61641785Y-120128571D01*
X61689404Y-120176190D01*
X61737023Y-120271428D01*
X61737023Y-120461904D01*
X61689404Y-120557142D01*
X61641785Y-120604761D01*
X61546547Y-120652380D01*
X61356071Y-120652380D01*
X61260833Y-120604761D01*
X61213214Y-120557142D01*
X61165595Y-120461904D01*
X61165595Y-120271428D01*
X61213214Y-120176190D01*
X61260833Y-120128571D01*
X61356071Y-120080952D01*
G04 #@! TO.C,R33*
X85322380Y-88097142D02*
X84846190Y-87763809D01*
X85322380Y-87525714D02*
X84322380Y-87525714D01*
X84322380Y-87906666D01*
X84370000Y-88001904D01*
X84417619Y-88049523D01*
X84512857Y-88097142D01*
X84655714Y-88097142D01*
X84750952Y-88049523D01*
X84798571Y-88001904D01*
X84846190Y-87906666D01*
X84846190Y-87525714D01*
X84322380Y-88430476D02*
X84322380Y-89049523D01*
X84703333Y-88716190D01*
X84703333Y-88859047D01*
X84750952Y-88954285D01*
X84798571Y-89001904D01*
X84893809Y-89049523D01*
X85131904Y-89049523D01*
X85227142Y-89001904D01*
X85274761Y-88954285D01*
X85322380Y-88859047D01*
X85322380Y-88573333D01*
X85274761Y-88478095D01*
X85227142Y-88430476D01*
X84322380Y-89382857D02*
X84322380Y-90001904D01*
X84703333Y-89668571D01*
X84703333Y-89811428D01*
X84750952Y-89906666D01*
X84798571Y-89954285D01*
X84893809Y-90001904D01*
X85131904Y-90001904D01*
X85227142Y-89954285D01*
X85274761Y-89906666D01*
X85322380Y-89811428D01*
X85322380Y-89525714D01*
X85274761Y-89430476D01*
X85227142Y-89382857D01*
G04 #@! TO.C,R31*
X89649880Y-102824642D02*
X89173690Y-102491309D01*
X89649880Y-102253214D02*
X88649880Y-102253214D01*
X88649880Y-102634166D01*
X88697500Y-102729404D01*
X88745119Y-102777023D01*
X88840357Y-102824642D01*
X88983214Y-102824642D01*
X89078452Y-102777023D01*
X89126071Y-102729404D01*
X89173690Y-102634166D01*
X89173690Y-102253214D01*
X88649880Y-103157976D02*
X88649880Y-103777023D01*
X89030833Y-103443690D01*
X89030833Y-103586547D01*
X89078452Y-103681785D01*
X89126071Y-103729404D01*
X89221309Y-103777023D01*
X89459404Y-103777023D01*
X89554642Y-103729404D01*
X89602261Y-103681785D01*
X89649880Y-103586547D01*
X89649880Y-103300833D01*
X89602261Y-103205595D01*
X89554642Y-103157976D01*
X89649880Y-104729404D02*
X89649880Y-104157976D01*
X89649880Y-104443690D02*
X88649880Y-104443690D01*
X88792738Y-104348452D01*
X88887976Y-104253214D01*
X88935595Y-104157976D01*
G04 #@! TO.C,R28*
X99249880Y-115437142D02*
X98773690Y-115103809D01*
X99249880Y-114865714D02*
X98249880Y-114865714D01*
X98249880Y-115246666D01*
X98297500Y-115341904D01*
X98345119Y-115389523D01*
X98440357Y-115437142D01*
X98583214Y-115437142D01*
X98678452Y-115389523D01*
X98726071Y-115341904D01*
X98773690Y-115246666D01*
X98773690Y-114865714D01*
X98345119Y-115818095D02*
X98297500Y-115865714D01*
X98249880Y-115960952D01*
X98249880Y-116199047D01*
X98297500Y-116294285D01*
X98345119Y-116341904D01*
X98440357Y-116389523D01*
X98535595Y-116389523D01*
X98678452Y-116341904D01*
X99249880Y-115770476D01*
X99249880Y-116389523D01*
X98678452Y-116960952D02*
X98630833Y-116865714D01*
X98583214Y-116818095D01*
X98487976Y-116770476D01*
X98440357Y-116770476D01*
X98345119Y-116818095D01*
X98297500Y-116865714D01*
X98249880Y-116960952D01*
X98249880Y-117151428D01*
X98297500Y-117246666D01*
X98345119Y-117294285D01*
X98440357Y-117341904D01*
X98487976Y-117341904D01*
X98583214Y-117294285D01*
X98630833Y-117246666D01*
X98678452Y-117151428D01*
X98678452Y-116960952D01*
X98726071Y-116865714D01*
X98773690Y-116818095D01*
X98868928Y-116770476D01*
X99059404Y-116770476D01*
X99154642Y-116818095D01*
X99202261Y-116865714D01*
X99249880Y-116960952D01*
X99249880Y-117151428D01*
X99202261Y-117246666D01*
X99154642Y-117294285D01*
X99059404Y-117341904D01*
X98868928Y-117341904D01*
X98773690Y-117294285D01*
X98726071Y-117246666D01*
X98678452Y-117151428D01*
G04 #@! TO.C,R26*
X53702380Y-111477142D02*
X53226190Y-111143809D01*
X53702380Y-110905714D02*
X52702380Y-110905714D01*
X52702380Y-111286666D01*
X52750000Y-111381904D01*
X52797619Y-111429523D01*
X52892857Y-111477142D01*
X53035714Y-111477142D01*
X53130952Y-111429523D01*
X53178571Y-111381904D01*
X53226190Y-111286666D01*
X53226190Y-110905714D01*
X52797619Y-111858095D02*
X52750000Y-111905714D01*
X52702380Y-112000952D01*
X52702380Y-112239047D01*
X52750000Y-112334285D01*
X52797619Y-112381904D01*
X52892857Y-112429523D01*
X52988095Y-112429523D01*
X53130952Y-112381904D01*
X53702380Y-111810476D01*
X53702380Y-112429523D01*
X52702380Y-113286666D02*
X52702380Y-113096190D01*
X52750000Y-113000952D01*
X52797619Y-112953333D01*
X52940476Y-112858095D01*
X53130952Y-112810476D01*
X53511904Y-112810476D01*
X53607142Y-112858095D01*
X53654761Y-112905714D01*
X53702380Y-113000952D01*
X53702380Y-113191428D01*
X53654761Y-113286666D01*
X53607142Y-113334285D01*
X53511904Y-113381904D01*
X53273809Y-113381904D01*
X53178571Y-113334285D01*
X53130952Y-113286666D01*
X53083333Y-113191428D01*
X53083333Y-113000952D01*
X53130952Y-112905714D01*
X53178571Y-112858095D01*
X53273809Y-112810476D01*
G04 #@! TO.C,R24*
X93909880Y-115309642D02*
X93433690Y-114976309D01*
X93909880Y-114738214D02*
X92909880Y-114738214D01*
X92909880Y-115119166D01*
X92957500Y-115214404D01*
X93005119Y-115262023D01*
X93100357Y-115309642D01*
X93243214Y-115309642D01*
X93338452Y-115262023D01*
X93386071Y-115214404D01*
X93433690Y-115119166D01*
X93433690Y-114738214D01*
X93005119Y-115690595D02*
X92957500Y-115738214D01*
X92909880Y-115833452D01*
X92909880Y-116071547D01*
X92957500Y-116166785D01*
X93005119Y-116214404D01*
X93100357Y-116262023D01*
X93195595Y-116262023D01*
X93338452Y-116214404D01*
X93909880Y-115642976D01*
X93909880Y-116262023D01*
X93243214Y-117119166D02*
X93909880Y-117119166D01*
X92862261Y-116881071D02*
X93576547Y-116642976D01*
X93576547Y-117262023D01*
G04 #@! TO.C,R23*
X52905357Y-110327380D02*
X53238690Y-109851190D01*
X53476785Y-110327380D02*
X53476785Y-109327380D01*
X53095833Y-109327380D01*
X53000595Y-109375000D01*
X52952976Y-109422619D01*
X52905357Y-109517857D01*
X52905357Y-109660714D01*
X52952976Y-109755952D01*
X53000595Y-109803571D01*
X53095833Y-109851190D01*
X53476785Y-109851190D01*
X52524404Y-109422619D02*
X52476785Y-109375000D01*
X52381547Y-109327380D01*
X52143452Y-109327380D01*
X52048214Y-109375000D01*
X52000595Y-109422619D01*
X51952976Y-109517857D01*
X51952976Y-109613095D01*
X52000595Y-109755952D01*
X52572023Y-110327380D01*
X51952976Y-110327380D01*
X51619642Y-109327380D02*
X51000595Y-109327380D01*
X51333928Y-109708333D01*
X51191071Y-109708333D01*
X51095833Y-109755952D01*
X51048214Y-109803571D01*
X51000595Y-109898809D01*
X51000595Y-110136904D01*
X51048214Y-110232142D01*
X51095833Y-110279761D01*
X51191071Y-110327380D01*
X51476785Y-110327380D01*
X51572023Y-110279761D01*
X51619642Y-110232142D01*
G04 #@! TO.C,R22*
X52975357Y-108329880D02*
X53308690Y-107853690D01*
X53546785Y-108329880D02*
X53546785Y-107329880D01*
X53165833Y-107329880D01*
X53070595Y-107377500D01*
X53022976Y-107425119D01*
X52975357Y-107520357D01*
X52975357Y-107663214D01*
X53022976Y-107758452D01*
X53070595Y-107806071D01*
X53165833Y-107853690D01*
X53546785Y-107853690D01*
X52594404Y-107425119D02*
X52546785Y-107377500D01*
X52451547Y-107329880D01*
X52213452Y-107329880D01*
X52118214Y-107377500D01*
X52070595Y-107425119D01*
X52022976Y-107520357D01*
X52022976Y-107615595D01*
X52070595Y-107758452D01*
X52642023Y-108329880D01*
X52022976Y-108329880D01*
X51642023Y-107425119D02*
X51594404Y-107377500D01*
X51499166Y-107329880D01*
X51261071Y-107329880D01*
X51165833Y-107377500D01*
X51118214Y-107425119D01*
X51070595Y-107520357D01*
X51070595Y-107615595D01*
X51118214Y-107758452D01*
X51689642Y-108329880D01*
X51070595Y-108329880D01*
G04 #@! TO.C,R19*
X55497857Y-106472380D02*
X55831190Y-105996190D01*
X56069285Y-106472380D02*
X56069285Y-105472380D01*
X55688333Y-105472380D01*
X55593095Y-105520000D01*
X55545476Y-105567619D01*
X55497857Y-105662857D01*
X55497857Y-105805714D01*
X55545476Y-105900952D01*
X55593095Y-105948571D01*
X55688333Y-105996190D01*
X56069285Y-105996190D01*
X54545476Y-106472380D02*
X55116904Y-106472380D01*
X54831190Y-106472380D02*
X54831190Y-105472380D01*
X54926428Y-105615238D01*
X55021666Y-105710476D01*
X55116904Y-105758095D01*
X54069285Y-106472380D02*
X53878809Y-106472380D01*
X53783571Y-106424761D01*
X53735952Y-106377142D01*
X53640714Y-106234285D01*
X53593095Y-106043809D01*
X53593095Y-105662857D01*
X53640714Y-105567619D01*
X53688333Y-105520000D01*
X53783571Y-105472380D01*
X53974047Y-105472380D01*
X54069285Y-105520000D01*
X54116904Y-105567619D01*
X54164523Y-105662857D01*
X54164523Y-105900952D01*
X54116904Y-105996190D01*
X54069285Y-106043809D01*
X53974047Y-106091428D01*
X53783571Y-106091428D01*
X53688333Y-106043809D01*
X53640714Y-105996190D01*
X53593095Y-105900952D01*
G04 #@! TO.C,R18*
X75207380Y-95074642D02*
X74731190Y-94741309D01*
X75207380Y-94503214D02*
X74207380Y-94503214D01*
X74207380Y-94884166D01*
X74255000Y-94979404D01*
X74302619Y-95027023D01*
X74397857Y-95074642D01*
X74540714Y-95074642D01*
X74635952Y-95027023D01*
X74683571Y-94979404D01*
X74731190Y-94884166D01*
X74731190Y-94503214D01*
X75207380Y-96027023D02*
X75207380Y-95455595D01*
X75207380Y-95741309D02*
X74207380Y-95741309D01*
X74350238Y-95646071D01*
X74445476Y-95550833D01*
X74493095Y-95455595D01*
X74635952Y-96598452D02*
X74588333Y-96503214D01*
X74540714Y-96455595D01*
X74445476Y-96407976D01*
X74397857Y-96407976D01*
X74302619Y-96455595D01*
X74255000Y-96503214D01*
X74207380Y-96598452D01*
X74207380Y-96788928D01*
X74255000Y-96884166D01*
X74302619Y-96931785D01*
X74397857Y-96979404D01*
X74445476Y-96979404D01*
X74540714Y-96931785D01*
X74588333Y-96884166D01*
X74635952Y-96788928D01*
X74635952Y-96598452D01*
X74683571Y-96503214D01*
X74731190Y-96455595D01*
X74826428Y-96407976D01*
X75016904Y-96407976D01*
X75112142Y-96455595D01*
X75159761Y-96503214D01*
X75207380Y-96598452D01*
X75207380Y-96788928D01*
X75159761Y-96884166D01*
X75112142Y-96931785D01*
X75016904Y-96979404D01*
X74826428Y-96979404D01*
X74731190Y-96931785D01*
X74683571Y-96884166D01*
X74635952Y-96788928D01*
G04 #@! TO.C,R17*
X62384880Y-105517142D02*
X61908690Y-105183809D01*
X62384880Y-104945714D02*
X61384880Y-104945714D01*
X61384880Y-105326666D01*
X61432500Y-105421904D01*
X61480119Y-105469523D01*
X61575357Y-105517142D01*
X61718214Y-105517142D01*
X61813452Y-105469523D01*
X61861071Y-105421904D01*
X61908690Y-105326666D01*
X61908690Y-104945714D01*
X62384880Y-106469523D02*
X62384880Y-105898095D01*
X62384880Y-106183809D02*
X61384880Y-106183809D01*
X61527738Y-106088571D01*
X61622976Y-105993333D01*
X61670595Y-105898095D01*
X61384880Y-106802857D02*
X61384880Y-107469523D01*
X62384880Y-107040952D01*
G04 #@! TO.C,R13*
X84927760Y-112826302D02*
X84451570Y-112492969D01*
X84927760Y-112254874D02*
X83927760Y-112254874D01*
X83927760Y-112635826D01*
X83975380Y-112731064D01*
X84022999Y-112778683D01*
X84118237Y-112826302D01*
X84261094Y-112826302D01*
X84356332Y-112778683D01*
X84403951Y-112731064D01*
X84451570Y-112635826D01*
X84451570Y-112254874D01*
X84927760Y-113778683D02*
X84927760Y-113207255D01*
X84927760Y-113492969D02*
X83927760Y-113492969D01*
X84070618Y-113397731D01*
X84165856Y-113302493D01*
X84213475Y-113207255D01*
X83927760Y-114112017D02*
X83927760Y-114731064D01*
X84308713Y-114397731D01*
X84308713Y-114540588D01*
X84356332Y-114635826D01*
X84403951Y-114683445D01*
X84499189Y-114731064D01*
X84737284Y-114731064D01*
X84832522Y-114683445D01*
X84880141Y-114635826D01*
X84927760Y-114540588D01*
X84927760Y-114254874D01*
X84880141Y-114159636D01*
X84832522Y-114112017D01*
G04 #@! TO.C,R12*
X84929620Y-108056802D02*
X84453430Y-107723469D01*
X84929620Y-107485374D02*
X83929620Y-107485374D01*
X83929620Y-107866326D01*
X83977240Y-107961564D01*
X84024859Y-108009183D01*
X84120097Y-108056802D01*
X84262954Y-108056802D01*
X84358192Y-108009183D01*
X84405811Y-107961564D01*
X84453430Y-107866326D01*
X84453430Y-107485374D01*
X84929620Y-109009183D02*
X84929620Y-108437755D01*
X84929620Y-108723469D02*
X83929620Y-108723469D01*
X84072478Y-108628231D01*
X84167716Y-108532993D01*
X84215335Y-108437755D01*
X84024859Y-109390136D02*
X83977240Y-109437755D01*
X83929620Y-109532993D01*
X83929620Y-109771088D01*
X83977240Y-109866326D01*
X84024859Y-109913945D01*
X84120097Y-109961564D01*
X84215335Y-109961564D01*
X84358192Y-109913945D01*
X84929620Y-109342517D01*
X84929620Y-109961564D01*
G04 #@! TO.C,R11*
X78487380Y-97892142D02*
X78011190Y-97558809D01*
X78487380Y-97320714D02*
X77487380Y-97320714D01*
X77487380Y-97701666D01*
X77535000Y-97796904D01*
X77582619Y-97844523D01*
X77677857Y-97892142D01*
X77820714Y-97892142D01*
X77915952Y-97844523D01*
X77963571Y-97796904D01*
X78011190Y-97701666D01*
X78011190Y-97320714D01*
X78487380Y-98844523D02*
X78487380Y-98273095D01*
X78487380Y-98558809D02*
X77487380Y-98558809D01*
X77630238Y-98463571D01*
X77725476Y-98368333D01*
X77773095Y-98273095D01*
X78487380Y-99796904D02*
X78487380Y-99225476D01*
X78487380Y-99511190D02*
X77487380Y-99511190D01*
X77630238Y-99415952D01*
X77725476Y-99320714D01*
X77773095Y-99225476D01*
G04 #@! TO.C,R10*
X83302857Y-120724880D02*
X83636190Y-120248690D01*
X83874285Y-120724880D02*
X83874285Y-119724880D01*
X83493333Y-119724880D01*
X83398095Y-119772500D01*
X83350476Y-119820119D01*
X83302857Y-119915357D01*
X83302857Y-120058214D01*
X83350476Y-120153452D01*
X83398095Y-120201071D01*
X83493333Y-120248690D01*
X83874285Y-120248690D01*
X82350476Y-120724880D02*
X82921904Y-120724880D01*
X82636190Y-120724880D02*
X82636190Y-119724880D01*
X82731428Y-119867738D01*
X82826666Y-119962976D01*
X82921904Y-120010595D01*
X81731428Y-119724880D02*
X81636190Y-119724880D01*
X81540952Y-119772500D01*
X81493333Y-119820119D01*
X81445714Y-119915357D01*
X81398095Y-120105833D01*
X81398095Y-120343928D01*
X81445714Y-120534404D01*
X81493333Y-120629642D01*
X81540952Y-120677261D01*
X81636190Y-120724880D01*
X81731428Y-120724880D01*
X81826666Y-120677261D01*
X81874285Y-120629642D01*
X81921904Y-120534404D01*
X81969523Y-120343928D01*
X81969523Y-120105833D01*
X81921904Y-119915357D01*
X81874285Y-119820119D01*
X81826666Y-119772500D01*
X81731428Y-119724880D01*
G04 #@! TO.C,R9*
X62239166Y-98659880D02*
X62572500Y-98183690D01*
X62810595Y-98659880D02*
X62810595Y-97659880D01*
X62429642Y-97659880D01*
X62334404Y-97707500D01*
X62286785Y-97755119D01*
X62239166Y-97850357D01*
X62239166Y-97993214D01*
X62286785Y-98088452D01*
X62334404Y-98136071D01*
X62429642Y-98183690D01*
X62810595Y-98183690D01*
X61762976Y-98659880D02*
X61572500Y-98659880D01*
X61477261Y-98612261D01*
X61429642Y-98564642D01*
X61334404Y-98421785D01*
X61286785Y-98231309D01*
X61286785Y-97850357D01*
X61334404Y-97755119D01*
X61382023Y-97707500D01*
X61477261Y-97659880D01*
X61667738Y-97659880D01*
X61762976Y-97707500D01*
X61810595Y-97755119D01*
X61858214Y-97850357D01*
X61858214Y-98088452D01*
X61810595Y-98183690D01*
X61762976Y-98231309D01*
X61667738Y-98278928D01*
X61477261Y-98278928D01*
X61382023Y-98231309D01*
X61334404Y-98183690D01*
X61286785Y-98088452D01*
G04 #@! TO.C,R8*
X84676666Y-115384880D02*
X85010000Y-114908690D01*
X85248095Y-115384880D02*
X85248095Y-114384880D01*
X84867142Y-114384880D01*
X84771904Y-114432500D01*
X84724285Y-114480119D01*
X84676666Y-114575357D01*
X84676666Y-114718214D01*
X84724285Y-114813452D01*
X84771904Y-114861071D01*
X84867142Y-114908690D01*
X85248095Y-114908690D01*
X84105238Y-114813452D02*
X84200476Y-114765833D01*
X84248095Y-114718214D01*
X84295714Y-114622976D01*
X84295714Y-114575357D01*
X84248095Y-114480119D01*
X84200476Y-114432500D01*
X84105238Y-114384880D01*
X83914761Y-114384880D01*
X83819523Y-114432500D01*
X83771904Y-114480119D01*
X83724285Y-114575357D01*
X83724285Y-114622976D01*
X83771904Y-114718214D01*
X83819523Y-114765833D01*
X83914761Y-114813452D01*
X84105238Y-114813452D01*
X84200476Y-114861071D01*
X84248095Y-114908690D01*
X84295714Y-115003928D01*
X84295714Y-115194404D01*
X84248095Y-115289642D01*
X84200476Y-115337261D01*
X84105238Y-115384880D01*
X83914761Y-115384880D01*
X83819523Y-115337261D01*
X83771904Y-115289642D01*
X83724285Y-115194404D01*
X83724285Y-115003928D01*
X83771904Y-114908690D01*
X83819523Y-114861071D01*
X83914761Y-114813452D01*
G04 #@! TO.C,R7*
X79159306Y-118548060D02*
X79492640Y-118071870D01*
X79730735Y-118548060D02*
X79730735Y-117548060D01*
X79349782Y-117548060D01*
X79254544Y-117595680D01*
X79206925Y-117643299D01*
X79159306Y-117738537D01*
X79159306Y-117881394D01*
X79206925Y-117976632D01*
X79254544Y-118024251D01*
X79349782Y-118071870D01*
X79730735Y-118071870D01*
X78825973Y-117548060D02*
X78159306Y-117548060D01*
X78587878Y-118548060D01*
G04 #@! TO.C,R6*
X79156766Y-117224180D02*
X79490100Y-116747990D01*
X79728195Y-117224180D02*
X79728195Y-116224180D01*
X79347242Y-116224180D01*
X79252004Y-116271800D01*
X79204385Y-116319419D01*
X79156766Y-116414657D01*
X79156766Y-116557514D01*
X79204385Y-116652752D01*
X79252004Y-116700371D01*
X79347242Y-116747990D01*
X79728195Y-116747990D01*
X78299623Y-116224180D02*
X78490100Y-116224180D01*
X78585338Y-116271800D01*
X78632957Y-116319419D01*
X78728195Y-116462276D01*
X78775814Y-116652752D01*
X78775814Y-117033704D01*
X78728195Y-117128942D01*
X78680576Y-117176561D01*
X78585338Y-117224180D01*
X78394861Y-117224180D01*
X78299623Y-117176561D01*
X78252004Y-117128942D01*
X78204385Y-117033704D01*
X78204385Y-116795609D01*
X78252004Y-116700371D01*
X78299623Y-116652752D01*
X78394861Y-116605133D01*
X78585338Y-116605133D01*
X78680576Y-116652752D01*
X78728195Y-116700371D01*
X78775814Y-116795609D01*
G04 #@! TO.C,R4*
X92577380Y-76268333D02*
X92101190Y-75935000D01*
X92577380Y-75696904D02*
X91577380Y-75696904D01*
X91577380Y-76077857D01*
X91625000Y-76173095D01*
X91672619Y-76220714D01*
X91767857Y-76268333D01*
X91910714Y-76268333D01*
X92005952Y-76220714D01*
X92053571Y-76173095D01*
X92101190Y-76077857D01*
X92101190Y-75696904D01*
X91910714Y-77125476D02*
X92577380Y-77125476D01*
X91529761Y-76887380D02*
X92244047Y-76649285D01*
X92244047Y-77268333D01*
G04 #@! TO.C,R2*
X87044166Y-72497380D02*
X87377500Y-72021190D01*
X87615595Y-72497380D02*
X87615595Y-71497380D01*
X87234642Y-71497380D01*
X87139404Y-71545000D01*
X87091785Y-71592619D01*
X87044166Y-71687857D01*
X87044166Y-71830714D01*
X87091785Y-71925952D01*
X87139404Y-71973571D01*
X87234642Y-72021190D01*
X87615595Y-72021190D01*
X86663214Y-71592619D02*
X86615595Y-71545000D01*
X86520357Y-71497380D01*
X86282261Y-71497380D01*
X86187023Y-71545000D01*
X86139404Y-71592619D01*
X86091785Y-71687857D01*
X86091785Y-71783095D01*
X86139404Y-71925952D01*
X86710833Y-72497380D01*
X86091785Y-72497380D01*
G04 #@! TO.C,R1*
X72460260Y-113109833D02*
X71984070Y-112776500D01*
X72460260Y-112538404D02*
X71460260Y-112538404D01*
X71460260Y-112919357D01*
X71507880Y-113014595D01*
X71555499Y-113062214D01*
X71650737Y-113109833D01*
X71793594Y-113109833D01*
X71888832Y-113062214D01*
X71936451Y-113014595D01*
X71984070Y-112919357D01*
X71984070Y-112538404D01*
X72460260Y-114062214D02*
X72460260Y-113490785D01*
X72460260Y-113776500D02*
X71460260Y-113776500D01*
X71603118Y-113681261D01*
X71698356Y-113586023D01*
X71745975Y-113490785D01*
G04 #@! TO.C,Q3*
X62480119Y-109149761D02*
X62432500Y-109054523D01*
X62337261Y-108959285D01*
X62194404Y-108816428D01*
X62146785Y-108721190D01*
X62146785Y-108625952D01*
X62384880Y-108673571D02*
X62337261Y-108578333D01*
X62242023Y-108483095D01*
X62051547Y-108435476D01*
X61718214Y-108435476D01*
X61527738Y-108483095D01*
X61432500Y-108578333D01*
X61384880Y-108673571D01*
X61384880Y-108864047D01*
X61432500Y-108959285D01*
X61527738Y-109054523D01*
X61718214Y-109102142D01*
X62051547Y-109102142D01*
X62242023Y-109054523D01*
X62337261Y-108959285D01*
X62384880Y-108864047D01*
X62384880Y-108673571D01*
X61384880Y-109435476D02*
X61384880Y-110054523D01*
X61765833Y-109721190D01*
X61765833Y-109864047D01*
X61813452Y-109959285D01*
X61861071Y-110006904D01*
X61956309Y-110054523D01*
X62194404Y-110054523D01*
X62289642Y-110006904D01*
X62337261Y-109959285D01*
X62384880Y-109864047D01*
X62384880Y-109578333D01*
X62337261Y-109483095D01*
X62289642Y-109435476D01*
G04 #@! TO.C,Q2*
X54815119Y-100769761D02*
X54767500Y-100674523D01*
X54672261Y-100579285D01*
X54529404Y-100436428D01*
X54481785Y-100341190D01*
X54481785Y-100245952D01*
X54719880Y-100293571D02*
X54672261Y-100198333D01*
X54577023Y-100103095D01*
X54386547Y-100055476D01*
X54053214Y-100055476D01*
X53862738Y-100103095D01*
X53767500Y-100198333D01*
X53719880Y-100293571D01*
X53719880Y-100484047D01*
X53767500Y-100579285D01*
X53862738Y-100674523D01*
X54053214Y-100722142D01*
X54386547Y-100722142D01*
X54577023Y-100674523D01*
X54672261Y-100579285D01*
X54719880Y-100484047D01*
X54719880Y-100293571D01*
X53815119Y-101103095D02*
X53767500Y-101150714D01*
X53719880Y-101245952D01*
X53719880Y-101484047D01*
X53767500Y-101579285D01*
X53815119Y-101626904D01*
X53910357Y-101674523D01*
X54005595Y-101674523D01*
X54148452Y-101626904D01*
X54719880Y-101055476D01*
X54719880Y-101674523D01*
G04 #@! TO.C,F3*
X62053333Y-124368571D02*
X62386666Y-124368571D01*
X62386666Y-124892380D02*
X62386666Y-123892380D01*
X61910476Y-123892380D01*
X61624761Y-123892380D02*
X61005714Y-123892380D01*
X61339047Y-124273333D01*
X61196190Y-124273333D01*
X61100952Y-124320952D01*
X61053333Y-124368571D01*
X61005714Y-124463809D01*
X61005714Y-124701904D01*
X61053333Y-124797142D01*
X61100952Y-124844761D01*
X61196190Y-124892380D01*
X61481904Y-124892380D01*
X61577142Y-124844761D01*
X61624761Y-124797142D01*
G04 #@! TO.C,F2*
X84028333Y-122511071D02*
X84361666Y-122511071D01*
X84361666Y-123034880D02*
X84361666Y-122034880D01*
X83885476Y-122034880D01*
X83552142Y-122130119D02*
X83504523Y-122082500D01*
X83409285Y-122034880D01*
X83171190Y-122034880D01*
X83075952Y-122082500D01*
X83028333Y-122130119D01*
X82980714Y-122225357D01*
X82980714Y-122320595D01*
X83028333Y-122463452D01*
X83599761Y-123034880D01*
X82980714Y-123034880D01*
G04 #@! TO.C,D7*
X73217380Y-103446904D02*
X72217380Y-103446904D01*
X72217380Y-103685000D01*
X72265000Y-103827857D01*
X72360238Y-103923095D01*
X72455476Y-103970714D01*
X72645952Y-104018333D01*
X72788809Y-104018333D01*
X72979285Y-103970714D01*
X73074523Y-103923095D01*
X73169761Y-103827857D01*
X73217380Y-103685000D01*
X73217380Y-103446904D01*
X72217380Y-104351666D02*
X72217380Y-105018333D01*
X73217380Y-104589761D01*
G04 #@! TO.C,D6*
X78612380Y-101326904D02*
X77612380Y-101326904D01*
X77612380Y-101565000D01*
X77660000Y-101707857D01*
X77755238Y-101803095D01*
X77850476Y-101850714D01*
X78040952Y-101898333D01*
X78183809Y-101898333D01*
X78374285Y-101850714D01*
X78469523Y-101803095D01*
X78564761Y-101707857D01*
X78612380Y-101565000D01*
X78612380Y-101326904D01*
X77612380Y-102755476D02*
X77612380Y-102565000D01*
X77660000Y-102469761D01*
X77707619Y-102422142D01*
X77850476Y-102326904D01*
X78040952Y-102279285D01*
X78421904Y-102279285D01*
X78517142Y-102326904D01*
X78564761Y-102374523D01*
X78612380Y-102469761D01*
X78612380Y-102660238D01*
X78564761Y-102755476D01*
X78517142Y-102803095D01*
X78421904Y-102850714D01*
X78183809Y-102850714D01*
X78088571Y-102803095D01*
X78040952Y-102755476D01*
X77993333Y-102660238D01*
X77993333Y-102469761D01*
X78040952Y-102374523D01*
X78088571Y-102326904D01*
X78183809Y-102279285D01*
G04 #@! TO.C,C47*
X92584642Y-86542142D02*
X92632261Y-86494523D01*
X92679880Y-86351666D01*
X92679880Y-86256428D01*
X92632261Y-86113571D01*
X92537023Y-86018333D01*
X92441785Y-85970714D01*
X92251309Y-85923095D01*
X92108452Y-85923095D01*
X91917976Y-85970714D01*
X91822738Y-86018333D01*
X91727500Y-86113571D01*
X91679880Y-86256428D01*
X91679880Y-86351666D01*
X91727500Y-86494523D01*
X91775119Y-86542142D01*
X92013214Y-87399285D02*
X92679880Y-87399285D01*
X91632261Y-87161190D02*
X92346547Y-86923095D01*
X92346547Y-87542142D01*
X91679880Y-87827857D02*
X91679880Y-88494523D01*
X92679880Y-88065952D01*
G04 #@! TO.C,C46*
X98637142Y-73319642D02*
X98684761Y-73272023D01*
X98732380Y-73129166D01*
X98732380Y-73033928D01*
X98684761Y-72891071D01*
X98589523Y-72795833D01*
X98494285Y-72748214D01*
X98303809Y-72700595D01*
X98160952Y-72700595D01*
X97970476Y-72748214D01*
X97875238Y-72795833D01*
X97780000Y-72891071D01*
X97732380Y-73033928D01*
X97732380Y-73129166D01*
X97780000Y-73272023D01*
X97827619Y-73319642D01*
X98065714Y-74176785D02*
X98732380Y-74176785D01*
X97684761Y-73938690D02*
X98399047Y-73700595D01*
X98399047Y-74319642D01*
X97732380Y-75129166D02*
X97732380Y-74938690D01*
X97780000Y-74843452D01*
X97827619Y-74795833D01*
X97970476Y-74700595D01*
X98160952Y-74652976D01*
X98541904Y-74652976D01*
X98637142Y-74700595D01*
X98684761Y-74748214D01*
X98732380Y-74843452D01*
X98732380Y-75033928D01*
X98684761Y-75129166D01*
X98637142Y-75176785D01*
X98541904Y-75224404D01*
X98303809Y-75224404D01*
X98208571Y-75176785D01*
X98160952Y-75129166D01*
X98113333Y-75033928D01*
X98113333Y-74843452D01*
X98160952Y-74748214D01*
X98208571Y-74700595D01*
X98303809Y-74652976D01*
G04 #@! TO.C,C39*
X71077142Y-100247142D02*
X71124761Y-100199523D01*
X71172380Y-100056666D01*
X71172380Y-99961428D01*
X71124761Y-99818571D01*
X71029523Y-99723333D01*
X70934285Y-99675714D01*
X70743809Y-99628095D01*
X70600952Y-99628095D01*
X70410476Y-99675714D01*
X70315238Y-99723333D01*
X70220000Y-99818571D01*
X70172380Y-99961428D01*
X70172380Y-100056666D01*
X70220000Y-100199523D01*
X70267619Y-100247142D01*
X70172380Y-100580476D02*
X70172380Y-101199523D01*
X70553333Y-100866190D01*
X70553333Y-101009047D01*
X70600952Y-101104285D01*
X70648571Y-101151904D01*
X70743809Y-101199523D01*
X70981904Y-101199523D01*
X71077142Y-101151904D01*
X71124761Y-101104285D01*
X71172380Y-101009047D01*
X71172380Y-100723333D01*
X71124761Y-100628095D01*
X71077142Y-100580476D01*
X71172380Y-101675714D02*
X71172380Y-101866190D01*
X71124761Y-101961428D01*
X71077142Y-102009047D01*
X70934285Y-102104285D01*
X70743809Y-102151904D01*
X70362857Y-102151904D01*
X70267619Y-102104285D01*
X70220000Y-102056666D01*
X70172380Y-101961428D01*
X70172380Y-101770952D01*
X70220000Y-101675714D01*
X70267619Y-101628095D01*
X70362857Y-101580476D01*
X70600952Y-101580476D01*
X70696190Y-101628095D01*
X70743809Y-101675714D01*
X70791428Y-101770952D01*
X70791428Y-101961428D01*
X70743809Y-102056666D01*
X70696190Y-102104285D01*
X70600952Y-102151904D01*
G04 #@! TO.C,C37*
X65137857Y-128479642D02*
X65185476Y-128527261D01*
X65328333Y-128574880D01*
X65423571Y-128574880D01*
X65566428Y-128527261D01*
X65661666Y-128432023D01*
X65709285Y-128336785D01*
X65756904Y-128146309D01*
X65756904Y-128003452D01*
X65709285Y-127812976D01*
X65661666Y-127717738D01*
X65566428Y-127622500D01*
X65423571Y-127574880D01*
X65328333Y-127574880D01*
X65185476Y-127622500D01*
X65137857Y-127670119D01*
X64804523Y-127574880D02*
X64185476Y-127574880D01*
X64518809Y-127955833D01*
X64375952Y-127955833D01*
X64280714Y-128003452D01*
X64233095Y-128051071D01*
X64185476Y-128146309D01*
X64185476Y-128384404D01*
X64233095Y-128479642D01*
X64280714Y-128527261D01*
X64375952Y-128574880D01*
X64661666Y-128574880D01*
X64756904Y-128527261D01*
X64804523Y-128479642D01*
X63852142Y-127574880D02*
X63185476Y-127574880D01*
X63614047Y-128574880D01*
G04 #@! TO.C,C31*
X65784642Y-115894642D02*
X65832261Y-115847023D01*
X65879880Y-115704166D01*
X65879880Y-115608928D01*
X65832261Y-115466071D01*
X65737023Y-115370833D01*
X65641785Y-115323214D01*
X65451309Y-115275595D01*
X65308452Y-115275595D01*
X65117976Y-115323214D01*
X65022738Y-115370833D01*
X64927500Y-115466071D01*
X64879880Y-115608928D01*
X64879880Y-115704166D01*
X64927500Y-115847023D01*
X64975119Y-115894642D01*
X64879880Y-116227976D02*
X64879880Y-116847023D01*
X65260833Y-116513690D01*
X65260833Y-116656547D01*
X65308452Y-116751785D01*
X65356071Y-116799404D01*
X65451309Y-116847023D01*
X65689404Y-116847023D01*
X65784642Y-116799404D01*
X65832261Y-116751785D01*
X65879880Y-116656547D01*
X65879880Y-116370833D01*
X65832261Y-116275595D01*
X65784642Y-116227976D01*
X65879880Y-117799404D02*
X65879880Y-117227976D01*
X65879880Y-117513690D02*
X64879880Y-117513690D01*
X65022738Y-117418452D01*
X65117976Y-117323214D01*
X65165595Y-117227976D01*
G04 #@! TO.C,C30*
X89380357Y-86659642D02*
X89427976Y-86707261D01*
X89570833Y-86754880D01*
X89666071Y-86754880D01*
X89808928Y-86707261D01*
X89904166Y-86612023D01*
X89951785Y-86516785D01*
X89999404Y-86326309D01*
X89999404Y-86183452D01*
X89951785Y-85992976D01*
X89904166Y-85897738D01*
X89808928Y-85802500D01*
X89666071Y-85754880D01*
X89570833Y-85754880D01*
X89427976Y-85802500D01*
X89380357Y-85850119D01*
X89047023Y-85754880D02*
X88427976Y-85754880D01*
X88761309Y-86135833D01*
X88618452Y-86135833D01*
X88523214Y-86183452D01*
X88475595Y-86231071D01*
X88427976Y-86326309D01*
X88427976Y-86564404D01*
X88475595Y-86659642D01*
X88523214Y-86707261D01*
X88618452Y-86754880D01*
X88904166Y-86754880D01*
X88999404Y-86707261D01*
X89047023Y-86659642D01*
X87808928Y-85754880D02*
X87713690Y-85754880D01*
X87618452Y-85802500D01*
X87570833Y-85850119D01*
X87523214Y-85945357D01*
X87475595Y-86135833D01*
X87475595Y-86373928D01*
X87523214Y-86564404D01*
X87570833Y-86659642D01*
X87618452Y-86707261D01*
X87713690Y-86754880D01*
X87808928Y-86754880D01*
X87904166Y-86707261D01*
X87951785Y-86659642D01*
X87999404Y-86564404D01*
X88047023Y-86373928D01*
X88047023Y-86135833D01*
X87999404Y-85945357D01*
X87951785Y-85850119D01*
X87904166Y-85802500D01*
X87808928Y-85754880D01*
G04 #@! TO.C,C29*
X95319642Y-95032142D02*
X95367261Y-94984523D01*
X95414880Y-94841666D01*
X95414880Y-94746428D01*
X95367261Y-94603571D01*
X95272023Y-94508333D01*
X95176785Y-94460714D01*
X94986309Y-94413095D01*
X94843452Y-94413095D01*
X94652976Y-94460714D01*
X94557738Y-94508333D01*
X94462500Y-94603571D01*
X94414880Y-94746428D01*
X94414880Y-94841666D01*
X94462500Y-94984523D01*
X94510119Y-95032142D01*
X94510119Y-95413095D02*
X94462500Y-95460714D01*
X94414880Y-95555952D01*
X94414880Y-95794047D01*
X94462500Y-95889285D01*
X94510119Y-95936904D01*
X94605357Y-95984523D01*
X94700595Y-95984523D01*
X94843452Y-95936904D01*
X95414880Y-95365476D01*
X95414880Y-95984523D01*
X95414880Y-96460714D02*
X95414880Y-96651190D01*
X95367261Y-96746428D01*
X95319642Y-96794047D01*
X95176785Y-96889285D01*
X94986309Y-96936904D01*
X94605357Y-96936904D01*
X94510119Y-96889285D01*
X94462500Y-96841666D01*
X94414880Y-96746428D01*
X94414880Y-96555952D01*
X94462500Y-96460714D01*
X94510119Y-96413095D01*
X94605357Y-96365476D01*
X94843452Y-96365476D01*
X94938690Y-96413095D01*
X94986309Y-96460714D01*
X95033928Y-96555952D01*
X95033928Y-96746428D01*
X94986309Y-96841666D01*
X94938690Y-96889285D01*
X94843452Y-96936904D01*
G04 #@! TO.C,C28*
X93132142Y-78427142D02*
X93179761Y-78379523D01*
X93227380Y-78236666D01*
X93227380Y-78141428D01*
X93179761Y-77998571D01*
X93084523Y-77903333D01*
X92989285Y-77855714D01*
X92798809Y-77808095D01*
X92655952Y-77808095D01*
X92465476Y-77855714D01*
X92370238Y-77903333D01*
X92275000Y-77998571D01*
X92227380Y-78141428D01*
X92227380Y-78236666D01*
X92275000Y-78379523D01*
X92322619Y-78427142D01*
X92322619Y-78808095D02*
X92275000Y-78855714D01*
X92227380Y-78950952D01*
X92227380Y-79189047D01*
X92275000Y-79284285D01*
X92322619Y-79331904D01*
X92417857Y-79379523D01*
X92513095Y-79379523D01*
X92655952Y-79331904D01*
X93227380Y-78760476D01*
X93227380Y-79379523D01*
X92655952Y-79950952D02*
X92608333Y-79855714D01*
X92560714Y-79808095D01*
X92465476Y-79760476D01*
X92417857Y-79760476D01*
X92322619Y-79808095D01*
X92275000Y-79855714D01*
X92227380Y-79950952D01*
X92227380Y-80141428D01*
X92275000Y-80236666D01*
X92322619Y-80284285D01*
X92417857Y-80331904D01*
X92465476Y-80331904D01*
X92560714Y-80284285D01*
X92608333Y-80236666D01*
X92655952Y-80141428D01*
X92655952Y-79950952D01*
X92703571Y-79855714D01*
X92751190Y-79808095D01*
X92846428Y-79760476D01*
X93036904Y-79760476D01*
X93132142Y-79808095D01*
X93179761Y-79855714D01*
X93227380Y-79950952D01*
X93227380Y-80141428D01*
X93179761Y-80236666D01*
X93132142Y-80284285D01*
X93036904Y-80331904D01*
X92846428Y-80331904D01*
X92751190Y-80284285D01*
X92703571Y-80236666D01*
X92655952Y-80141428D01*
G04 #@! TO.C,C26*
X98634642Y-98184642D02*
X98682261Y-98137023D01*
X98729880Y-97994166D01*
X98729880Y-97898928D01*
X98682261Y-97756071D01*
X98587023Y-97660833D01*
X98491785Y-97613214D01*
X98301309Y-97565595D01*
X98158452Y-97565595D01*
X97967976Y-97613214D01*
X97872738Y-97660833D01*
X97777500Y-97756071D01*
X97729880Y-97898928D01*
X97729880Y-97994166D01*
X97777500Y-98137023D01*
X97825119Y-98184642D01*
X97825119Y-98565595D02*
X97777500Y-98613214D01*
X97729880Y-98708452D01*
X97729880Y-98946547D01*
X97777500Y-99041785D01*
X97825119Y-99089404D01*
X97920357Y-99137023D01*
X98015595Y-99137023D01*
X98158452Y-99089404D01*
X98729880Y-98517976D01*
X98729880Y-99137023D01*
X97729880Y-99994166D02*
X97729880Y-99803690D01*
X97777500Y-99708452D01*
X97825119Y-99660833D01*
X97967976Y-99565595D01*
X98158452Y-99517976D01*
X98539404Y-99517976D01*
X98634642Y-99565595D01*
X98682261Y-99613214D01*
X98729880Y-99708452D01*
X98729880Y-99898928D01*
X98682261Y-99994166D01*
X98634642Y-100041785D01*
X98539404Y-100089404D01*
X98301309Y-100089404D01*
X98206071Y-100041785D01*
X98158452Y-99994166D01*
X98110833Y-99898928D01*
X98110833Y-99708452D01*
X98158452Y-99613214D01*
X98206071Y-99565595D01*
X98301309Y-99517976D01*
G04 #@! TO.C,C25*
X90019642Y-81622142D02*
X90067261Y-81574523D01*
X90114880Y-81431666D01*
X90114880Y-81336428D01*
X90067261Y-81193571D01*
X89972023Y-81098333D01*
X89876785Y-81050714D01*
X89686309Y-81003095D01*
X89543452Y-81003095D01*
X89352976Y-81050714D01*
X89257738Y-81098333D01*
X89162500Y-81193571D01*
X89114880Y-81336428D01*
X89114880Y-81431666D01*
X89162500Y-81574523D01*
X89210119Y-81622142D01*
X89210119Y-82003095D02*
X89162500Y-82050714D01*
X89114880Y-82145952D01*
X89114880Y-82384047D01*
X89162500Y-82479285D01*
X89210119Y-82526904D01*
X89305357Y-82574523D01*
X89400595Y-82574523D01*
X89543452Y-82526904D01*
X90114880Y-81955476D01*
X90114880Y-82574523D01*
X89114880Y-83479285D02*
X89114880Y-83003095D01*
X89591071Y-82955476D01*
X89543452Y-83003095D01*
X89495833Y-83098333D01*
X89495833Y-83336428D01*
X89543452Y-83431666D01*
X89591071Y-83479285D01*
X89686309Y-83526904D01*
X89924404Y-83526904D01*
X90019642Y-83479285D01*
X90067261Y-83431666D01*
X90114880Y-83336428D01*
X90114880Y-83098333D01*
X90067261Y-83003095D01*
X90019642Y-82955476D01*
G04 #@! TO.C,C22*
X98272057Y-63424842D02*
X98319676Y-63472461D01*
X98462533Y-63520080D01*
X98557771Y-63520080D01*
X98700628Y-63472461D01*
X98795866Y-63377223D01*
X98843485Y-63281985D01*
X98891104Y-63091509D01*
X98891104Y-62948652D01*
X98843485Y-62758176D01*
X98795866Y-62662938D01*
X98700628Y-62567700D01*
X98557771Y-62520080D01*
X98462533Y-62520080D01*
X98319676Y-62567700D01*
X98272057Y-62615319D01*
X97891104Y-62615319D02*
X97843485Y-62567700D01*
X97748247Y-62520080D01*
X97510152Y-62520080D01*
X97414914Y-62567700D01*
X97367295Y-62615319D01*
X97319676Y-62710557D01*
X97319676Y-62805795D01*
X97367295Y-62948652D01*
X97938723Y-63520080D01*
X97319676Y-63520080D01*
X96938723Y-62615319D02*
X96891104Y-62567700D01*
X96795866Y-62520080D01*
X96557771Y-62520080D01*
X96462533Y-62567700D01*
X96414914Y-62615319D01*
X96367295Y-62710557D01*
X96367295Y-62805795D01*
X96414914Y-62948652D01*
X96986342Y-63520080D01*
X96367295Y-63520080D01*
G04 #@! TO.C,C20*
X71727857Y-111059642D02*
X71775476Y-111107261D01*
X71918333Y-111154880D01*
X72013571Y-111154880D01*
X72156428Y-111107261D01*
X72251666Y-111012023D01*
X72299285Y-110916785D01*
X72346904Y-110726309D01*
X72346904Y-110583452D01*
X72299285Y-110392976D01*
X72251666Y-110297738D01*
X72156428Y-110202500D01*
X72013571Y-110154880D01*
X71918333Y-110154880D01*
X71775476Y-110202500D01*
X71727857Y-110250119D01*
X71346904Y-110250119D02*
X71299285Y-110202500D01*
X71204047Y-110154880D01*
X70965952Y-110154880D01*
X70870714Y-110202500D01*
X70823095Y-110250119D01*
X70775476Y-110345357D01*
X70775476Y-110440595D01*
X70823095Y-110583452D01*
X71394523Y-111154880D01*
X70775476Y-111154880D01*
X70156428Y-110154880D02*
X70061190Y-110154880D01*
X69965952Y-110202500D01*
X69918333Y-110250119D01*
X69870714Y-110345357D01*
X69823095Y-110535833D01*
X69823095Y-110773928D01*
X69870714Y-110964404D01*
X69918333Y-111059642D01*
X69965952Y-111107261D01*
X70061190Y-111154880D01*
X70156428Y-111154880D01*
X70251666Y-111107261D01*
X70299285Y-111059642D01*
X70346904Y-110964404D01*
X70394523Y-110773928D01*
X70394523Y-110535833D01*
X70346904Y-110345357D01*
X70299285Y-110250119D01*
X70251666Y-110202500D01*
X70156428Y-110154880D01*
G04 #@! TO.C,C19*
X67535357Y-97839642D02*
X67582976Y-97887261D01*
X67725833Y-97934880D01*
X67821071Y-97934880D01*
X67963928Y-97887261D01*
X68059166Y-97792023D01*
X68106785Y-97696785D01*
X68154404Y-97506309D01*
X68154404Y-97363452D01*
X68106785Y-97172976D01*
X68059166Y-97077738D01*
X67963928Y-96982500D01*
X67821071Y-96934880D01*
X67725833Y-96934880D01*
X67582976Y-96982500D01*
X67535357Y-97030119D01*
X66582976Y-97934880D02*
X67154404Y-97934880D01*
X66868690Y-97934880D02*
X66868690Y-96934880D01*
X66963928Y-97077738D01*
X67059166Y-97172976D01*
X67154404Y-97220595D01*
X66106785Y-97934880D02*
X65916309Y-97934880D01*
X65821071Y-97887261D01*
X65773452Y-97839642D01*
X65678214Y-97696785D01*
X65630595Y-97506309D01*
X65630595Y-97125357D01*
X65678214Y-97030119D01*
X65725833Y-96982500D01*
X65821071Y-96934880D01*
X66011547Y-96934880D01*
X66106785Y-96982500D01*
X66154404Y-97030119D01*
X66202023Y-97125357D01*
X66202023Y-97363452D01*
X66154404Y-97458690D01*
X66106785Y-97506309D01*
X66011547Y-97553928D01*
X65821071Y-97553928D01*
X65725833Y-97506309D01*
X65678214Y-97458690D01*
X65630595Y-97363452D01*
G04 #@! TO.C,C18*
X98335957Y-61922242D02*
X98383576Y-61969861D01*
X98526433Y-62017480D01*
X98621671Y-62017480D01*
X98764528Y-61969861D01*
X98859766Y-61874623D01*
X98907385Y-61779385D01*
X98955004Y-61588909D01*
X98955004Y-61446052D01*
X98907385Y-61255576D01*
X98859766Y-61160338D01*
X98764528Y-61065100D01*
X98621671Y-61017480D01*
X98526433Y-61017480D01*
X98383576Y-61065100D01*
X98335957Y-61112719D01*
X97383576Y-62017480D02*
X97955004Y-62017480D01*
X97669290Y-62017480D02*
X97669290Y-61017480D01*
X97764528Y-61160338D01*
X97859766Y-61255576D01*
X97955004Y-61303195D01*
X96812147Y-61446052D02*
X96907385Y-61398433D01*
X96955004Y-61350814D01*
X97002623Y-61255576D01*
X97002623Y-61207957D01*
X96955004Y-61112719D01*
X96907385Y-61065100D01*
X96812147Y-61017480D01*
X96621671Y-61017480D01*
X96526433Y-61065100D01*
X96478814Y-61112719D01*
X96431195Y-61207957D01*
X96431195Y-61255576D01*
X96478814Y-61350814D01*
X96526433Y-61398433D01*
X96621671Y-61446052D01*
X96812147Y-61446052D01*
X96907385Y-61493671D01*
X96955004Y-61541290D01*
X97002623Y-61636528D01*
X97002623Y-61827004D01*
X96955004Y-61922242D01*
X96907385Y-61969861D01*
X96812147Y-62017480D01*
X96621671Y-62017480D01*
X96526433Y-61969861D01*
X96478814Y-61922242D01*
X96431195Y-61827004D01*
X96431195Y-61636528D01*
X96478814Y-61541290D01*
X96526433Y-61493671D01*
X96621671Y-61446052D01*
G04 #@! TO.C,C14*
X64560357Y-76397142D02*
X64607976Y-76444761D01*
X64750833Y-76492380D01*
X64846071Y-76492380D01*
X64988928Y-76444761D01*
X65084166Y-76349523D01*
X65131785Y-76254285D01*
X65179404Y-76063809D01*
X65179404Y-75920952D01*
X65131785Y-75730476D01*
X65084166Y-75635238D01*
X64988928Y-75540000D01*
X64846071Y-75492380D01*
X64750833Y-75492380D01*
X64607976Y-75540000D01*
X64560357Y-75587619D01*
X63607976Y-76492380D02*
X64179404Y-76492380D01*
X63893690Y-76492380D02*
X63893690Y-75492380D01*
X63988928Y-75635238D01*
X64084166Y-75730476D01*
X64179404Y-75778095D01*
X62750833Y-75825714D02*
X62750833Y-76492380D01*
X62988928Y-75444761D02*
X63227023Y-76159047D01*
X62607976Y-76159047D01*
G04 #@! TO.C,C6*
X59732142Y-105573333D02*
X59779761Y-105525714D01*
X59827380Y-105382857D01*
X59827380Y-105287619D01*
X59779761Y-105144761D01*
X59684523Y-105049523D01*
X59589285Y-105001904D01*
X59398809Y-104954285D01*
X59255952Y-104954285D01*
X59065476Y-105001904D01*
X58970238Y-105049523D01*
X58875000Y-105144761D01*
X58827380Y-105287619D01*
X58827380Y-105382857D01*
X58875000Y-105525714D01*
X58922619Y-105573333D01*
X58827380Y-106430476D02*
X58827380Y-106240000D01*
X58875000Y-106144761D01*
X58922619Y-106097142D01*
X59065476Y-106001904D01*
X59255952Y-105954285D01*
X59636904Y-105954285D01*
X59732142Y-106001904D01*
X59779761Y-106049523D01*
X59827380Y-106144761D01*
X59827380Y-106335238D01*
X59779761Y-106430476D01*
X59732142Y-106478095D01*
X59636904Y-106525714D01*
X59398809Y-106525714D01*
X59303571Y-106478095D01*
X59255952Y-106430476D01*
X59208333Y-106335238D01*
X59208333Y-106144761D01*
X59255952Y-106049523D01*
X59303571Y-106001904D01*
X59398809Y-105954285D01*
G04 #@! TO.C,C3*
X75892142Y-120665833D02*
X75939761Y-120618214D01*
X75987380Y-120475357D01*
X75987380Y-120380119D01*
X75939761Y-120237261D01*
X75844523Y-120142023D01*
X75749285Y-120094404D01*
X75558809Y-120046785D01*
X75415952Y-120046785D01*
X75225476Y-120094404D01*
X75130238Y-120142023D01*
X75035000Y-120237261D01*
X74987380Y-120380119D01*
X74987380Y-120475357D01*
X75035000Y-120618214D01*
X75082619Y-120665833D01*
X74987380Y-120999166D02*
X74987380Y-121618214D01*
X75368333Y-121284880D01*
X75368333Y-121427738D01*
X75415952Y-121522976D01*
X75463571Y-121570595D01*
X75558809Y-121618214D01*
X75796904Y-121618214D01*
X75892142Y-121570595D01*
X75939761Y-121522976D01*
X75987380Y-121427738D01*
X75987380Y-121142023D01*
X75939761Y-121046785D01*
X75892142Y-120999166D01*
G04 #@! TO.C,C2*
X77714642Y-120630833D02*
X77762261Y-120583214D01*
X77809880Y-120440357D01*
X77809880Y-120345119D01*
X77762261Y-120202261D01*
X77667023Y-120107023D01*
X77571785Y-120059404D01*
X77381309Y-120011785D01*
X77238452Y-120011785D01*
X77047976Y-120059404D01*
X76952738Y-120107023D01*
X76857500Y-120202261D01*
X76809880Y-120345119D01*
X76809880Y-120440357D01*
X76857500Y-120583214D01*
X76905119Y-120630833D01*
X76905119Y-121011785D02*
X76857500Y-121059404D01*
X76809880Y-121154642D01*
X76809880Y-121392738D01*
X76857500Y-121487976D01*
X76905119Y-121535595D01*
X77000357Y-121583214D01*
X77095595Y-121583214D01*
X77238452Y-121535595D01*
X77809880Y-120964166D01*
X77809880Y-121583214D01*
G04 #@! TD*
M02*
