G04 #@! TF.GenerationSoftware,KiCad,Pcbnew,(5.1.8)-1*
G04 #@! TF.CreationDate,2020-12-29T10:05:08+01:00*
G04 #@! TF.ProjectId,TinXsat,54696e58-7361-4742-9e6b-696361645f70,rev?*
G04 #@! TF.SameCoordinates,Original*
G04 #@! TF.FileFunction,Soldermask,Bot*
G04 #@! TF.FilePolarity,Negative*
%FSLAX46Y46*%
G04 Gerber Fmt 4.6, Leading zero omitted, Abs format (unit mm)*
G04 Created by KiCad (PCBNEW (5.1.8)-1) date 2020-12-29 10:05:08*
%MOMM*%
%LPD*%
G01*
G04 APERTURE LIST*
G04 #@! TA.AperFunction,Profile*
%ADD10C,0.150000*%
G04 #@! TD*
%ADD11O,1.801600X1.801600*%
%ADD12C,1.101600*%
%ADD13C,1.801600*%
%ADD14C,2.301600*%
%ADD15C,0.150000*%
G04 APERTURE END LIST*
D10*
X79000000Y-124000000D02*
X71000000Y-124000000D01*
X79000000Y-130000000D02*
X79000000Y-124000000D01*
X71000000Y-130000000D02*
X71000000Y-124000000D01*
X100000000Y-130000000D02*
X79000000Y-130000000D01*
X71000000Y-130000000D02*
X50000000Y-130000000D01*
X50000000Y-130000000D02*
X50000000Y-50000000D01*
X100000000Y-50000000D02*
X100000000Y-130000000D01*
X50000000Y-50000000D02*
X100000000Y-50000000D01*
X79000000Y-124000000D02*
X71000000Y-124000000D01*
X79000000Y-130000000D02*
X79000000Y-124000000D01*
X71000000Y-130000000D02*
X71000000Y-124000000D01*
X100000000Y-130000000D02*
X79000000Y-130000000D01*
X71000000Y-130000000D02*
X50000000Y-130000000D01*
X50000000Y-130000000D02*
X50000000Y-50000000D01*
X100000000Y-50000000D02*
X100000000Y-130000000D01*
X50000000Y-50000000D02*
X100000000Y-50000000D01*
G04 #@! TO.C,XS1*
G36*
G01*
X65962501Y-87015800D02*
X64362499Y-87015800D01*
G75*
G02*
X64311700Y-86965001I0J50799D01*
G01*
X64311700Y-86264999D01*
G75*
G02*
X64362499Y-86214200I50799J0D01*
G01*
X65962501Y-86214200D01*
G75*
G02*
X66013300Y-86264999I0J-50799D01*
G01*
X66013300Y-86965001D01*
G75*
G02*
X65962501Y-87015800I-50799J0D01*
G01*
G37*
G36*
G01*
X65962501Y-85915800D02*
X64362499Y-85915800D01*
G75*
G02*
X64311700Y-85865001I0J50799D01*
G01*
X64311700Y-85164999D01*
G75*
G02*
X64362499Y-85114200I50799J0D01*
G01*
X65962501Y-85114200D01*
G75*
G02*
X66013300Y-85164999I0J-50799D01*
G01*
X66013300Y-85865001D01*
G75*
G02*
X65962501Y-85915800I-50799J0D01*
G01*
G37*
G36*
G01*
X65962501Y-84815800D02*
X64362499Y-84815800D01*
G75*
G02*
X64311700Y-84765001I0J50799D01*
G01*
X64311700Y-84064999D01*
G75*
G02*
X64362499Y-84014200I50799J0D01*
G01*
X65962501Y-84014200D01*
G75*
G02*
X66013300Y-84064999I0J-50799D01*
G01*
X66013300Y-84765001D01*
G75*
G02*
X65962501Y-84815800I-50799J0D01*
G01*
G37*
G36*
G01*
X65962501Y-88115800D02*
X64362499Y-88115800D01*
G75*
G02*
X64311700Y-88065001I0J50799D01*
G01*
X64311700Y-87364999D01*
G75*
G02*
X64362499Y-87314200I50799J0D01*
G01*
X65962501Y-87314200D01*
G75*
G02*
X66013300Y-87364999I0J-50799D01*
G01*
X66013300Y-88065001D01*
G75*
G02*
X65962501Y-88115800I-50799J0D01*
G01*
G37*
G36*
G01*
X65962501Y-89215800D02*
X64362499Y-89215800D01*
G75*
G02*
X64311700Y-89165001I0J50799D01*
G01*
X64311700Y-88464999D01*
G75*
G02*
X64362499Y-88414200I50799J0D01*
G01*
X65962501Y-88414200D01*
G75*
G02*
X66013300Y-88464999I0J-50799D01*
G01*
X66013300Y-89165001D01*
G75*
G02*
X65962501Y-89215800I-50799J0D01*
G01*
G37*
G36*
G01*
X65962501Y-90315800D02*
X64362499Y-90315800D01*
G75*
G02*
X64311700Y-90265001I0J50799D01*
G01*
X64311700Y-89564999D01*
G75*
G02*
X64362499Y-89514200I50799J0D01*
G01*
X65962501Y-89514200D01*
G75*
G02*
X66013300Y-89564999I0J-50799D01*
G01*
X66013300Y-90265001D01*
G75*
G02*
X65962501Y-90315800I-50799J0D01*
G01*
G37*
G36*
G01*
X65962501Y-92515800D02*
X64362499Y-92515800D01*
G75*
G02*
X64311700Y-92465001I0J50799D01*
G01*
X64311700Y-91764999D01*
G75*
G02*
X64362499Y-91714200I50799J0D01*
G01*
X65962501Y-91714200D01*
G75*
G02*
X66013300Y-91764999I0J-50799D01*
G01*
X66013300Y-92465001D01*
G75*
G02*
X65962501Y-92515800I-50799J0D01*
G01*
G37*
G36*
G01*
X65962501Y-91415800D02*
X64362499Y-91415800D01*
G75*
G02*
X64311700Y-91365001I0J50799D01*
G01*
X64311700Y-90664999D01*
G75*
G02*
X64362499Y-90614200I50799J0D01*
G01*
X65962501Y-90614200D01*
G75*
G02*
X66013300Y-90664999I0J-50799D01*
G01*
X66013300Y-91365001D01*
G75*
G02*
X65962501Y-91415800I-50799J0D01*
G01*
G37*
G36*
G01*
X65962501Y-93615800D02*
X64362499Y-93615800D01*
G75*
G02*
X64311700Y-93565001I0J50799D01*
G01*
X64311700Y-92864999D01*
G75*
G02*
X64362499Y-92814200I50799J0D01*
G01*
X65962501Y-92814200D01*
G75*
G02*
X66013300Y-92864999I0J-50799D01*
G01*
X66013300Y-93565001D01*
G75*
G02*
X65962501Y-93615800I-50799J0D01*
G01*
G37*
G36*
G01*
X65362500Y-95015800D02*
X63962500Y-95015800D01*
G75*
G02*
X63911700Y-94965000I0J50800D01*
G01*
X63911700Y-93765000D01*
G75*
G02*
X63962500Y-93714200I50800J0D01*
G01*
X65362500Y-93714200D01*
G75*
G02*
X65413300Y-93765000I0J-50800D01*
G01*
X65413300Y-94965000D01*
G75*
G02*
X65362500Y-95015800I-50800J0D01*
G01*
G37*
G36*
G01*
X65362500Y-80615800D02*
X63962500Y-80615800D01*
G75*
G02*
X63911700Y-80565000I0J50800D01*
G01*
X63911700Y-78965000D01*
G75*
G02*
X63962500Y-78914200I50800J0D01*
G01*
X65362500Y-78914200D01*
G75*
G02*
X65413300Y-78965000I0J-50800D01*
G01*
X65413300Y-80565000D01*
G75*
G02*
X65362500Y-80615800I-50800J0D01*
G01*
G37*
G36*
G01*
X56162500Y-95015800D02*
X53962500Y-95015800D01*
G75*
G02*
X53911700Y-94965000I0J50800D01*
G01*
X53911700Y-93765000D01*
G75*
G02*
X53962500Y-93714200I50800J0D01*
G01*
X56162500Y-93714200D01*
G75*
G02*
X56213300Y-93765000I0J-50800D01*
G01*
X56213300Y-94965000D01*
G75*
G02*
X56162500Y-95015800I-50800J0D01*
G01*
G37*
G36*
G01*
X56162500Y-79515800D02*
X53962500Y-79515800D01*
G75*
G02*
X53911700Y-79465000I0J50800D01*
G01*
X53911700Y-78265000D01*
G75*
G02*
X53962500Y-78214200I50800J0D01*
G01*
X56162500Y-78214200D01*
G75*
G02*
X56213300Y-78265000I0J-50800D01*
G01*
X56213300Y-79465000D01*
G75*
G02*
X56162500Y-79515800I-50800J0D01*
G01*
G37*
G04 #@! TD*
D11*
G04 #@! TO.C,U6*
X63640000Y-115710000D03*
X63640000Y-113170000D03*
X63640000Y-108090000D03*
G36*
G01*
X64540800Y-117400000D02*
X64540800Y-119100000D01*
G75*
G02*
X64490000Y-119150800I-50800J0D01*
G01*
X62790000Y-119150800D01*
G75*
G02*
X62739200Y-119100000I0J50800D01*
G01*
X62739200Y-117400000D01*
G75*
G02*
X62790000Y-117349200I50800J0D01*
G01*
X64490000Y-117349200D01*
G75*
G02*
X64540800Y-117400000I0J-50800D01*
G01*
G37*
X63640000Y-100470000D03*
X63640000Y-105550000D03*
X63640000Y-103010000D03*
X63640000Y-110630000D03*
X86500000Y-100470000D03*
X86500000Y-103010000D03*
X86500000Y-105550000D03*
X86500000Y-108090000D03*
X86500000Y-110630000D03*
X86500000Y-113170000D03*
X86500000Y-115710000D03*
G36*
G01*
X87400800Y-117400000D02*
X87400800Y-119100000D01*
G75*
G02*
X87350000Y-119150800I-50800J0D01*
G01*
X85650000Y-119150800D01*
G75*
G02*
X85599200Y-119100000I0J50800D01*
G01*
X85599200Y-117400000D01*
G75*
G02*
X85650000Y-117349200I50800J0D01*
G01*
X87350000Y-117349200D01*
G75*
G02*
X87400800Y-117400000I0J-50800D01*
G01*
G37*
G04 #@! TD*
G04 #@! TO.C,J2*
G36*
G01*
X66121700Y-102200000D02*
X66121700Y-100600000D01*
G75*
G02*
X66172500Y-100549200I50800J0D01*
G01*
X69172500Y-100549200D01*
G75*
G02*
X69223300Y-100600000I0J-50800D01*
G01*
X69223300Y-102200000D01*
G75*
G02*
X69172500Y-102250800I-50800J0D01*
G01*
X66172500Y-102250800D01*
G75*
G02*
X66121700Y-102200000I0J50800D01*
G01*
G37*
G36*
G01*
X69172500Y-104250800D02*
X66172500Y-104250800D01*
G75*
G02*
X66121700Y-104200000I0J50800D01*
G01*
X66121700Y-102600000D01*
G75*
G02*
X66172500Y-102549200I50800J0D01*
G01*
X69172500Y-102549200D01*
G75*
G02*
X69223300Y-102600000I0J-50800D01*
G01*
X69223300Y-104200000D01*
G75*
G02*
X69172500Y-104250800I-50800J0D01*
G01*
G37*
G36*
G01*
X66121700Y-106200000D02*
X66121700Y-104600000D01*
G75*
G02*
X66172500Y-104549200I50800J0D01*
G01*
X69172500Y-104549200D01*
G75*
G02*
X69223300Y-104600000I0J-50800D01*
G01*
X69223300Y-106200000D01*
G75*
G02*
X69172500Y-106250800I-50800J0D01*
G01*
X66172500Y-106250800D01*
G75*
G02*
X66121700Y-106200000I0J50800D01*
G01*
G37*
G36*
G01*
X66121700Y-108200000D02*
X66121700Y-106600000D01*
G75*
G02*
X66172500Y-106549200I50800J0D01*
G01*
X69172500Y-106549200D01*
G75*
G02*
X69223300Y-106600000I0J-50800D01*
G01*
X69223300Y-108200000D01*
G75*
G02*
X69172500Y-108250800I-50800J0D01*
G01*
X66172500Y-108250800D01*
G75*
G02*
X66121700Y-108200000I0J50800D01*
G01*
G37*
G36*
G01*
X66121700Y-110200000D02*
X66121700Y-108600000D01*
G75*
G02*
X66172500Y-108549200I50800J0D01*
G01*
X69172500Y-108549200D01*
G75*
G02*
X69223300Y-108600000I0J-50800D01*
G01*
X69223300Y-110200000D01*
G75*
G02*
X69172500Y-110250800I-50800J0D01*
G01*
X66172500Y-110250800D01*
G75*
G02*
X66121700Y-110200000I0J50800D01*
G01*
G37*
G04 #@! TD*
G04 #@! TO.C,J10*
G36*
G01*
X79572500Y-106643300D02*
X77972500Y-106643300D01*
G75*
G02*
X77921700Y-106592500I0J50800D01*
G01*
X77921700Y-103592500D01*
G75*
G02*
X77972500Y-103541700I50800J0D01*
G01*
X79572500Y-103541700D01*
G75*
G02*
X79623300Y-103592500I0J-50800D01*
G01*
X79623300Y-106592500D01*
G75*
G02*
X79572500Y-106643300I-50800J0D01*
G01*
G37*
G36*
G01*
X81572500Y-106643300D02*
X79972500Y-106643300D01*
G75*
G02*
X79921700Y-106592500I0J50800D01*
G01*
X79921700Y-103592500D01*
G75*
G02*
X79972500Y-103541700I50800J0D01*
G01*
X81572500Y-103541700D01*
G75*
G02*
X81623300Y-103592500I0J-50800D01*
G01*
X81623300Y-106592500D01*
G75*
G02*
X81572500Y-106643300I-50800J0D01*
G01*
G37*
G36*
G01*
X83572500Y-106643300D02*
X81972500Y-106643300D01*
G75*
G02*
X81921700Y-106592500I0J50800D01*
G01*
X81921700Y-103592500D01*
G75*
G02*
X81972500Y-103541700I50800J0D01*
G01*
X83572500Y-103541700D01*
G75*
G02*
X83623300Y-103592500I0J-50800D01*
G01*
X83623300Y-106592500D01*
G75*
G02*
X83572500Y-106643300I-50800J0D01*
G01*
G37*
G04 #@! TD*
G04 #@! TO.C,J9*
G36*
G01*
X99544000Y-90099000D02*
X99544000Y-91699000D01*
G75*
G02*
X99493200Y-91749800I-50800J0D01*
G01*
X96493200Y-91749800D01*
G75*
G02*
X96442400Y-91699000I0J50800D01*
G01*
X96442400Y-90099000D01*
G75*
G02*
X96493200Y-90048200I50800J0D01*
G01*
X99493200Y-90048200D01*
G75*
G02*
X99544000Y-90099000I0J-50800D01*
G01*
G37*
G36*
G01*
X99544000Y-88099000D02*
X99544000Y-89699000D01*
G75*
G02*
X99493200Y-89749800I-50800J0D01*
G01*
X96493200Y-89749800D01*
G75*
G02*
X96442400Y-89699000I0J50800D01*
G01*
X96442400Y-88099000D01*
G75*
G02*
X96493200Y-88048200I50800J0D01*
G01*
X99493200Y-88048200D01*
G75*
G02*
X99544000Y-88099000I0J-50800D01*
G01*
G37*
G36*
G01*
X96442400Y-87699000D02*
X96442400Y-86099000D01*
G75*
G02*
X96493200Y-86048200I50800J0D01*
G01*
X99493200Y-86048200D01*
G75*
G02*
X99544000Y-86099000I0J-50800D01*
G01*
X99544000Y-87699000D01*
G75*
G02*
X99493200Y-87749800I-50800J0D01*
G01*
X96493200Y-87749800D01*
G75*
G02*
X96442400Y-87699000I0J50800D01*
G01*
G37*
G36*
G01*
X99544000Y-84099000D02*
X99544000Y-85699000D01*
G75*
G02*
X99493200Y-85749800I-50800J0D01*
G01*
X96493200Y-85749800D01*
G75*
G02*
X96442400Y-85699000I0J50800D01*
G01*
X96442400Y-84099000D01*
G75*
G02*
X96493200Y-84048200I50800J0D01*
G01*
X99493200Y-84048200D01*
G75*
G02*
X99544000Y-84099000I0J-50800D01*
G01*
G37*
G36*
G01*
X99544000Y-82099000D02*
X99544000Y-83699000D01*
G75*
G02*
X99493200Y-83749800I-50800J0D01*
G01*
X96493200Y-83749800D01*
G75*
G02*
X96442400Y-83699000I0J50800D01*
G01*
X96442400Y-82099000D01*
G75*
G02*
X96493200Y-82048200I50800J0D01*
G01*
X99493200Y-82048200D01*
G75*
G02*
X99544000Y-82099000I0J-50800D01*
G01*
G37*
G36*
G01*
X99544000Y-80099000D02*
X99544000Y-81699000D01*
G75*
G02*
X99493200Y-81749800I-50800J0D01*
G01*
X96493200Y-81749800D01*
G75*
G02*
X96442400Y-81699000I0J50800D01*
G01*
X96442400Y-80099000D01*
G75*
G02*
X96493200Y-80048200I50800J0D01*
G01*
X99493200Y-80048200D01*
G75*
G02*
X99544000Y-80099000I0J-50800D01*
G01*
G37*
G04 #@! TD*
G04 #@! TO.C,BT1*
G36*
G01*
X90397200Y-125406400D02*
X93397200Y-125406400D01*
G75*
G02*
X93448000Y-125457200I0J-50800D01*
G01*
X93448000Y-129457200D01*
G75*
G02*
X93397200Y-129508000I-50800J0D01*
G01*
X90397200Y-129508000D01*
G75*
G02*
X90346400Y-129457200I0J50800D01*
G01*
X90346400Y-125457200D01*
G75*
G02*
X90397200Y-125406400I50800J0D01*
G01*
G37*
G36*
G01*
X86587200Y-125406400D02*
X89587200Y-125406400D01*
G75*
G02*
X89638000Y-125457200I0J-50800D01*
G01*
X89638000Y-129457200D01*
G75*
G02*
X89587200Y-129508000I-50800J0D01*
G01*
X86587200Y-129508000D01*
G75*
G02*
X86536400Y-129457200I0J50800D01*
G01*
X86536400Y-125457200D01*
G75*
G02*
X86587200Y-125406400I50800J0D01*
G01*
G37*
G04 #@! TD*
G04 #@! TO.C,TH1*
G36*
G01*
X84213800Y-126465200D02*
X85813800Y-126465200D01*
G75*
G02*
X85864600Y-126516000I0J-50800D01*
G01*
X85864600Y-129516000D01*
G75*
G02*
X85813800Y-129566800I-50800J0D01*
G01*
X84213800Y-129566800D01*
G75*
G02*
X84163000Y-129516000I0J50800D01*
G01*
X84163000Y-126516000D01*
G75*
G02*
X84213800Y-126465200I50800J0D01*
G01*
G37*
G36*
G01*
X82213800Y-126465200D02*
X83813800Y-126465200D01*
G75*
G02*
X83864600Y-126516000I0J-50800D01*
G01*
X83864600Y-129516000D01*
G75*
G02*
X83813800Y-129566800I-50800J0D01*
G01*
X82213800Y-129566800D01*
G75*
G02*
X82163000Y-129516000I0J50800D01*
G01*
X82163000Y-126516000D01*
G75*
G02*
X82213800Y-126465200I50800J0D01*
G01*
G37*
G04 #@! TD*
G04 #@! TO.C,Q5*
G36*
G01*
X55200000Y-113329200D02*
X56000000Y-113329200D01*
G75*
G02*
X56050800Y-113380000I0J-50800D01*
G01*
X56050800Y-114280000D01*
G75*
G02*
X56000000Y-114330800I-50800J0D01*
G01*
X55200000Y-114330800D01*
G75*
G02*
X55149200Y-114280000I0J50800D01*
G01*
X55149200Y-113380000D01*
G75*
G02*
X55200000Y-113329200I50800J0D01*
G01*
G37*
G36*
G01*
X56150000Y-111329200D02*
X56950000Y-111329200D01*
G75*
G02*
X57000800Y-111380000I0J-50800D01*
G01*
X57000800Y-112280000D01*
G75*
G02*
X56950000Y-112330800I-50800J0D01*
G01*
X56150000Y-112330800D01*
G75*
G02*
X56099200Y-112280000I0J50800D01*
G01*
X56099200Y-111380000D01*
G75*
G02*
X56150000Y-111329200I50800J0D01*
G01*
G37*
G36*
G01*
X54250000Y-111329200D02*
X55050000Y-111329200D01*
G75*
G02*
X55100800Y-111380000I0J-50800D01*
G01*
X55100800Y-112280000D01*
G75*
G02*
X55050000Y-112330800I-50800J0D01*
G01*
X54250000Y-112330800D01*
G75*
G02*
X54199200Y-112280000I0J50800D01*
G01*
X54199200Y-111380000D01*
G75*
G02*
X54250000Y-111329200I50800J0D01*
G01*
G37*
G04 #@! TD*
G04 #@! TO.C,R47*
G36*
G01*
X65086700Y-55299635D02*
X65086700Y-54340365D01*
G75*
G02*
X65357865Y-54069200I271165J0D01*
G01*
X66117135Y-54069200D01*
G75*
G02*
X66388300Y-54340365I0J-271165D01*
G01*
X66388300Y-55299635D01*
G75*
G02*
X66117135Y-55570800I-271165J0D01*
G01*
X65357865Y-55570800D01*
G75*
G02*
X65086700Y-55299635I0J271165D01*
G01*
G37*
G36*
G01*
X63086700Y-55299635D02*
X63086700Y-54340365D01*
G75*
G02*
X63357865Y-54069200I271165J0D01*
G01*
X64117135Y-54069200D01*
G75*
G02*
X64388300Y-54340365I0J-271165D01*
G01*
X64388300Y-55299635D01*
G75*
G02*
X64117135Y-55570800I-271165J0D01*
G01*
X63357865Y-55570800D01*
G75*
G02*
X63086700Y-55299635I0J271165D01*
G01*
G37*
G04 #@! TD*
G04 #@! TO.C,R43*
G36*
G01*
X65121700Y-61237135D02*
X65121700Y-60277865D01*
G75*
G02*
X65392865Y-60006700I271165J0D01*
G01*
X66152135Y-60006700D01*
G75*
G02*
X66423300Y-60277865I0J-271165D01*
G01*
X66423300Y-61237135D01*
G75*
G02*
X66152135Y-61508300I-271165J0D01*
G01*
X65392865Y-61508300D01*
G75*
G02*
X65121700Y-61237135I0J271165D01*
G01*
G37*
G36*
G01*
X63121700Y-61237135D02*
X63121700Y-60277865D01*
G75*
G02*
X63392865Y-60006700I271165J0D01*
G01*
X64152135Y-60006700D01*
G75*
G02*
X64423300Y-60277865I0J-271165D01*
G01*
X64423300Y-61237135D01*
G75*
G02*
X64152135Y-61508300I-271165J0D01*
G01*
X63392865Y-61508300D01*
G75*
G02*
X63121700Y-61237135I0J271165D01*
G01*
G37*
G04 #@! TD*
G04 #@! TO.C,R60*
G36*
G01*
X65853300Y-121800365D02*
X65853300Y-122759635D01*
G75*
G02*
X65582135Y-123030800I-271165J0D01*
G01*
X64822865Y-123030800D01*
G75*
G02*
X64551700Y-122759635I0J271165D01*
G01*
X64551700Y-121800365D01*
G75*
G02*
X64822865Y-121529200I271165J0D01*
G01*
X65582135Y-121529200D01*
G75*
G02*
X65853300Y-121800365I0J-271165D01*
G01*
G37*
G36*
G01*
X67853300Y-121800365D02*
X67853300Y-122759635D01*
G75*
G02*
X67582135Y-123030800I-271165J0D01*
G01*
X66822865Y-123030800D01*
G75*
G02*
X66551700Y-122759635I0J271165D01*
G01*
X66551700Y-121800365D01*
G75*
G02*
X66822865Y-121529200I271165J0D01*
G01*
X67582135Y-121529200D01*
G75*
G02*
X67853300Y-121800365I0J-271165D01*
G01*
G37*
G04 #@! TD*
G04 #@! TO.C,R34*
G36*
G01*
X68964200Y-72939635D02*
X68964200Y-71980365D01*
G75*
G02*
X69235365Y-71709200I271165J0D01*
G01*
X69994635Y-71709200D01*
G75*
G02*
X70265800Y-71980365I0J-271165D01*
G01*
X70265800Y-72939635D01*
G75*
G02*
X69994635Y-73210800I-271165J0D01*
G01*
X69235365Y-73210800D01*
G75*
G02*
X68964200Y-72939635I0J271165D01*
G01*
G37*
G36*
G01*
X66964200Y-72939635D02*
X66964200Y-71980365D01*
G75*
G02*
X67235365Y-71709200I271165J0D01*
G01*
X67994635Y-71709200D01*
G75*
G02*
X68265800Y-71980365I0J-271165D01*
G01*
X68265800Y-72939635D01*
G75*
G02*
X67994635Y-73210800I-271165J0D01*
G01*
X67235365Y-73210800D01*
G75*
G02*
X66964200Y-72939635I0J271165D01*
G01*
G37*
G04 #@! TD*
G04 #@! TO.C,R3*
G36*
G01*
X72844200Y-72934635D02*
X72844200Y-71975365D01*
G75*
G02*
X73115365Y-71704200I271165J0D01*
G01*
X73874635Y-71704200D01*
G75*
G02*
X74145800Y-71975365I0J-271165D01*
G01*
X74145800Y-72934635D01*
G75*
G02*
X73874635Y-73205800I-271165J0D01*
G01*
X73115365Y-73205800D01*
G75*
G02*
X72844200Y-72934635I0J271165D01*
G01*
G37*
G36*
G01*
X70844200Y-72934635D02*
X70844200Y-71975365D01*
G75*
G02*
X71115365Y-71704200I271165J0D01*
G01*
X71874635Y-71704200D01*
G75*
G02*
X72145800Y-71975365I0J-271165D01*
G01*
X72145800Y-72934635D01*
G75*
G02*
X71874635Y-73205800I-271165J0D01*
G01*
X71115365Y-73205800D01*
G75*
G02*
X70844200Y-72934635I0J271165D01*
G01*
G37*
G04 #@! TD*
G04 #@! TO.C,Q7*
G36*
G01*
X72892500Y-69198300D02*
X72092500Y-69198300D01*
G75*
G02*
X72041700Y-69147500I0J50800D01*
G01*
X72041700Y-68247500D01*
G75*
G02*
X72092500Y-68196700I50800J0D01*
G01*
X72892500Y-68196700D01*
G75*
G02*
X72943300Y-68247500I0J-50800D01*
G01*
X72943300Y-69147500D01*
G75*
G02*
X72892500Y-69198300I-50800J0D01*
G01*
G37*
G36*
G01*
X71942500Y-71198300D02*
X71142500Y-71198300D01*
G75*
G02*
X71091700Y-71147500I0J50800D01*
G01*
X71091700Y-70247500D01*
G75*
G02*
X71142500Y-70196700I50800J0D01*
G01*
X71942500Y-70196700D01*
G75*
G02*
X71993300Y-70247500I0J-50800D01*
G01*
X71993300Y-71147500D01*
G75*
G02*
X71942500Y-71198300I-50800J0D01*
G01*
G37*
G36*
G01*
X73842500Y-71198300D02*
X73042500Y-71198300D01*
G75*
G02*
X72991700Y-71147500I0J50800D01*
G01*
X72991700Y-70247500D01*
G75*
G02*
X73042500Y-70196700I50800J0D01*
G01*
X73842500Y-70196700D01*
G75*
G02*
X73893300Y-70247500I0J-50800D01*
G01*
X73893300Y-71147500D01*
G75*
G02*
X73842500Y-71198300I-50800J0D01*
G01*
G37*
G04 #@! TD*
G04 #@! TO.C,R42*
G36*
G01*
X64423300Y-58300365D02*
X64423300Y-59259635D01*
G75*
G02*
X64152135Y-59530800I-271165J0D01*
G01*
X63392865Y-59530800D01*
G75*
G02*
X63121700Y-59259635I0J271165D01*
G01*
X63121700Y-58300365D01*
G75*
G02*
X63392865Y-58029200I271165J0D01*
G01*
X64152135Y-58029200D01*
G75*
G02*
X64423300Y-58300365I0J-271165D01*
G01*
G37*
G36*
G01*
X66423300Y-58300365D02*
X66423300Y-59259635D01*
G75*
G02*
X66152135Y-59530800I-271165J0D01*
G01*
X65392865Y-59530800D01*
G75*
G02*
X65121700Y-59259635I0J271165D01*
G01*
X65121700Y-58300365D01*
G75*
G02*
X65392865Y-58029200I271165J0D01*
G01*
X66152135Y-58029200D01*
G75*
G02*
X66423300Y-58300365I0J-271165D01*
G01*
G37*
G04 #@! TD*
D12*
G04 #@! TO.C,J1*
X95829000Y-105297800D03*
X95829000Y-109697800D03*
G04 #@! TD*
G04 #@! TO.C,C45*
G36*
G01*
X62474200Y-53166634D02*
X62474200Y-51803366D01*
G75*
G02*
X62743366Y-51534200I269166J0D01*
G01*
X63631634Y-51534200D01*
G75*
G02*
X63900800Y-51803366I0J-269166D01*
G01*
X63900800Y-53166634D01*
G75*
G02*
X63631634Y-53435800I-269166J0D01*
G01*
X62743366Y-53435800D01*
G75*
G02*
X62474200Y-53166634I0J269166D01*
G01*
G37*
G36*
G01*
X59349200Y-53166634D02*
X59349200Y-51803366D01*
G75*
G02*
X59618366Y-51534200I269166J0D01*
G01*
X60506634Y-51534200D01*
G75*
G02*
X60775800Y-51803366I0J-269166D01*
G01*
X60775800Y-53166634D01*
G75*
G02*
X60506634Y-53435800I-269166J0D01*
G01*
X59618366Y-53435800D01*
G75*
G02*
X59349200Y-53166634I0J269166D01*
G01*
G37*
G04 #@! TD*
G04 #@! TO.C,R27*
G36*
G01*
X94960365Y-119536700D02*
X95919635Y-119536700D01*
G75*
G02*
X96190800Y-119807865I0J-271165D01*
G01*
X96190800Y-120567135D01*
G75*
G02*
X95919635Y-120838300I-271165J0D01*
G01*
X94960365Y-120838300D01*
G75*
G02*
X94689200Y-120567135I0J271165D01*
G01*
X94689200Y-119807865D01*
G75*
G02*
X94960365Y-119536700I271165J0D01*
G01*
G37*
G36*
G01*
X94960365Y-117536700D02*
X95919635Y-117536700D01*
G75*
G02*
X96190800Y-117807865I0J-271165D01*
G01*
X96190800Y-118567135D01*
G75*
G02*
X95919635Y-118838300I-271165J0D01*
G01*
X94960365Y-118838300D01*
G75*
G02*
X94689200Y-118567135I0J271165D01*
G01*
X94689200Y-117807865D01*
G75*
G02*
X94960365Y-117536700I271165J0D01*
G01*
G37*
G04 #@! TD*
G04 #@! TO.C,R25*
G36*
G01*
X90980365Y-119539200D02*
X91939635Y-119539200D01*
G75*
G02*
X92210800Y-119810365I0J-271165D01*
G01*
X92210800Y-120569635D01*
G75*
G02*
X91939635Y-120840800I-271165J0D01*
G01*
X90980365Y-120840800D01*
G75*
G02*
X90709200Y-120569635I0J271165D01*
G01*
X90709200Y-119810365D01*
G75*
G02*
X90980365Y-119539200I271165J0D01*
G01*
G37*
G36*
G01*
X90980365Y-117539200D02*
X91939635Y-117539200D01*
G75*
G02*
X92210800Y-117810365I0J-271165D01*
G01*
X92210800Y-118569635D01*
G75*
G02*
X91939635Y-118840800I-271165J0D01*
G01*
X90980365Y-118840800D01*
G75*
G02*
X90709200Y-118569635I0J271165D01*
G01*
X90709200Y-117810365D01*
G75*
G02*
X90980365Y-117539200I271165J0D01*
G01*
G37*
G04 #@! TD*
D13*
G04 #@! TO.C,SW1*
X52862500Y-102775000D03*
X52862500Y-98275000D03*
D14*
X55362500Y-104025000D03*
X55362500Y-97025000D03*
G04 #@! TD*
D12*
G04 #@! TO.C,Y2*
X96400000Y-93132500D03*
X98300000Y-93132500D03*
G04 #@! TD*
G04 #@! TO.C,U9*
G36*
G01*
X71200000Y-117150800D02*
X70800000Y-117150800D01*
G75*
G02*
X70749200Y-117100000I0J50800D01*
G01*
X70749200Y-116040000D01*
G75*
G02*
X70800000Y-115989200I50800J0D01*
G01*
X71200000Y-115989200D01*
G75*
G02*
X71250800Y-116040000I0J-50800D01*
G01*
X71250800Y-117100000D01*
G75*
G02*
X71200000Y-117150800I-50800J0D01*
G01*
G37*
G36*
G01*
X70550000Y-117150800D02*
X70150000Y-117150800D01*
G75*
G02*
X70099200Y-117100000I0J50800D01*
G01*
X70099200Y-116040000D01*
G75*
G02*
X70150000Y-115989200I50800J0D01*
G01*
X70550000Y-115989200D01*
G75*
G02*
X70600800Y-116040000I0J-50800D01*
G01*
X70600800Y-117100000D01*
G75*
G02*
X70550000Y-117150800I-50800J0D01*
G01*
G37*
G36*
G01*
X69890000Y-117150800D02*
X69490000Y-117150800D01*
G75*
G02*
X69439200Y-117100000I0J50800D01*
G01*
X69439200Y-116040000D01*
G75*
G02*
X69490000Y-115989200I50800J0D01*
G01*
X69890000Y-115989200D01*
G75*
G02*
X69940800Y-116040000I0J-50800D01*
G01*
X69940800Y-117100000D01*
G75*
G02*
X69890000Y-117150800I-50800J0D01*
G01*
G37*
G36*
G01*
X69240000Y-117150800D02*
X68840000Y-117150800D01*
G75*
G02*
X68789200Y-117100000I0J50800D01*
G01*
X68789200Y-116040000D01*
G75*
G02*
X68840000Y-115989200I50800J0D01*
G01*
X69240000Y-115989200D01*
G75*
G02*
X69290800Y-116040000I0J-50800D01*
G01*
X69290800Y-117100000D01*
G75*
G02*
X69240000Y-117150800I-50800J0D01*
G01*
G37*
G36*
G01*
X69240000Y-119350800D02*
X68840000Y-119350800D01*
G75*
G02*
X68789200Y-119300000I0J50800D01*
G01*
X68789200Y-118240000D01*
G75*
G02*
X68840000Y-118189200I50800J0D01*
G01*
X69240000Y-118189200D01*
G75*
G02*
X69290800Y-118240000I0J-50800D01*
G01*
X69290800Y-119300000D01*
G75*
G02*
X69240000Y-119350800I-50800J0D01*
G01*
G37*
G36*
G01*
X69890000Y-119350800D02*
X69490000Y-119350800D01*
G75*
G02*
X69439200Y-119300000I0J50800D01*
G01*
X69439200Y-118240000D01*
G75*
G02*
X69490000Y-118189200I50800J0D01*
G01*
X69890000Y-118189200D01*
G75*
G02*
X69940800Y-118240000I0J-50800D01*
G01*
X69940800Y-119300000D01*
G75*
G02*
X69890000Y-119350800I-50800J0D01*
G01*
G37*
G36*
G01*
X70550000Y-119350800D02*
X70150000Y-119350800D01*
G75*
G02*
X70099200Y-119300000I0J50800D01*
G01*
X70099200Y-118240000D01*
G75*
G02*
X70150000Y-118189200I50800J0D01*
G01*
X70550000Y-118189200D01*
G75*
G02*
X70600800Y-118240000I0J-50800D01*
G01*
X70600800Y-119300000D01*
G75*
G02*
X70550000Y-119350800I-50800J0D01*
G01*
G37*
G36*
G01*
X71200000Y-119350800D02*
X70800000Y-119350800D01*
G75*
G02*
X70749200Y-119300000I0J50800D01*
G01*
X70749200Y-118240000D01*
G75*
G02*
X70800000Y-118189200I50800J0D01*
G01*
X71200000Y-118189200D01*
G75*
G02*
X71250800Y-118240000I0J-50800D01*
G01*
X71250800Y-119300000D01*
G75*
G02*
X71200000Y-119350800I-50800J0D01*
G01*
G37*
G04 #@! TD*
G04 #@! TO.C,U8*
G36*
G01*
X89914200Y-91217500D02*
X89914200Y-90417500D01*
G75*
G02*
X89965000Y-90366700I50800J0D01*
G01*
X90865000Y-90366700D01*
G75*
G02*
X90915800Y-90417500I0J-50800D01*
G01*
X90915800Y-91217500D01*
G75*
G02*
X90865000Y-91268300I-50800J0D01*
G01*
X89965000Y-91268300D01*
G75*
G02*
X89914200Y-91217500I0J50800D01*
G01*
G37*
G36*
G01*
X87914200Y-90267500D02*
X87914200Y-89467500D01*
G75*
G02*
X87965000Y-89416700I50800J0D01*
G01*
X88865000Y-89416700D01*
G75*
G02*
X88915800Y-89467500I0J-50800D01*
G01*
X88915800Y-90267500D01*
G75*
G02*
X88865000Y-90318300I-50800J0D01*
G01*
X87965000Y-90318300D01*
G75*
G02*
X87914200Y-90267500I0J50800D01*
G01*
G37*
G36*
G01*
X87914200Y-92167500D02*
X87914200Y-91367500D01*
G75*
G02*
X87965000Y-91316700I50800J0D01*
G01*
X88865000Y-91316700D01*
G75*
G02*
X88915800Y-91367500I0J-50800D01*
G01*
X88915800Y-92167500D01*
G75*
G02*
X88865000Y-92218300I-50800J0D01*
G01*
X87965000Y-92218300D01*
G75*
G02*
X87914200Y-92167500I0J50800D01*
G01*
G37*
G04 #@! TD*
G04 #@! TO.C,U5*
G36*
G01*
X93268300Y-51312500D02*
X93268300Y-52812500D01*
G75*
G02*
X93217500Y-52863300I-50800J0D01*
G01*
X91217500Y-52863300D01*
G75*
G02*
X91166700Y-52812500I0J50800D01*
G01*
X91166700Y-51312500D01*
G75*
G02*
X91217500Y-51261700I50800J0D01*
G01*
X93217500Y-51261700D01*
G75*
G02*
X93268300Y-51312500I0J-50800D01*
G01*
G37*
G36*
G01*
X93268300Y-53312500D02*
X93268300Y-54812500D01*
G75*
G02*
X93217500Y-54863300I-50800J0D01*
G01*
X91217500Y-54863300D01*
G75*
G02*
X91166700Y-54812500I0J50800D01*
G01*
X91166700Y-53312500D01*
G75*
G02*
X91217500Y-53261700I50800J0D01*
G01*
X93217500Y-53261700D01*
G75*
G02*
X93268300Y-53312500I0J-50800D01*
G01*
G37*
G36*
G01*
X93268300Y-55312500D02*
X93268300Y-56812500D01*
G75*
G02*
X93217500Y-56863300I-50800J0D01*
G01*
X91217500Y-56863300D01*
G75*
G02*
X91166700Y-56812500I0J50800D01*
G01*
X91166700Y-55312500D01*
G75*
G02*
X91217500Y-55261700I50800J0D01*
G01*
X93217500Y-55261700D01*
G75*
G02*
X93268300Y-55312500I0J-50800D01*
G01*
G37*
G36*
G01*
X93268300Y-57312500D02*
X93268300Y-58812500D01*
G75*
G02*
X93217500Y-58863300I-50800J0D01*
G01*
X91217500Y-58863300D01*
G75*
G02*
X91166700Y-58812500I0J50800D01*
G01*
X91166700Y-57312500D01*
G75*
G02*
X91217500Y-57261700I50800J0D01*
G01*
X93217500Y-57261700D01*
G75*
G02*
X93268300Y-57312500I0J-50800D01*
G01*
G37*
G36*
G01*
X93268300Y-59312500D02*
X93268300Y-60812500D01*
G75*
G02*
X93217500Y-60863300I-50800J0D01*
G01*
X91217500Y-60863300D01*
G75*
G02*
X91166700Y-60812500I0J50800D01*
G01*
X91166700Y-59312500D01*
G75*
G02*
X91217500Y-59261700I50800J0D01*
G01*
X93217500Y-59261700D01*
G75*
G02*
X93268300Y-59312500I0J-50800D01*
G01*
G37*
G36*
G01*
X93268300Y-61312500D02*
X93268300Y-62812500D01*
G75*
G02*
X93217500Y-62863300I-50800J0D01*
G01*
X91217500Y-62863300D01*
G75*
G02*
X91166700Y-62812500I0J50800D01*
G01*
X91166700Y-61312500D01*
G75*
G02*
X91217500Y-61261700I50800J0D01*
G01*
X93217500Y-61261700D01*
G75*
G02*
X93268300Y-61312500I0J-50800D01*
G01*
G37*
G36*
G01*
X93268300Y-63312500D02*
X93268300Y-64812500D01*
G75*
G02*
X93217500Y-64863300I-50800J0D01*
G01*
X91217500Y-64863300D01*
G75*
G02*
X91166700Y-64812500I0J50800D01*
G01*
X91166700Y-63312500D01*
G75*
G02*
X91217500Y-63261700I50800J0D01*
G01*
X93217500Y-63261700D01*
G75*
G02*
X93268300Y-63312500I0J-50800D01*
G01*
G37*
G36*
G01*
X93268300Y-65312500D02*
X93268300Y-66812500D01*
G75*
G02*
X93217500Y-66863300I-50800J0D01*
G01*
X91217500Y-66863300D01*
G75*
G02*
X91166700Y-66812500I0J50800D01*
G01*
X91166700Y-65312500D01*
G75*
G02*
X91217500Y-65261700I50800J0D01*
G01*
X93217500Y-65261700D01*
G75*
G02*
X93268300Y-65312500I0J-50800D01*
G01*
G37*
G36*
G01*
X77268300Y-65312500D02*
X77268300Y-66812500D01*
G75*
G02*
X77217500Y-66863300I-50800J0D01*
G01*
X75217500Y-66863300D01*
G75*
G02*
X75166700Y-66812500I0J50800D01*
G01*
X75166700Y-65312500D01*
G75*
G02*
X75217500Y-65261700I50800J0D01*
G01*
X77217500Y-65261700D01*
G75*
G02*
X77268300Y-65312500I0J-50800D01*
G01*
G37*
G36*
G01*
X77268300Y-63312500D02*
X77268300Y-64812500D01*
G75*
G02*
X77217500Y-64863300I-50800J0D01*
G01*
X75217500Y-64863300D01*
G75*
G02*
X75166700Y-64812500I0J50800D01*
G01*
X75166700Y-63312500D01*
G75*
G02*
X75217500Y-63261700I50800J0D01*
G01*
X77217500Y-63261700D01*
G75*
G02*
X77268300Y-63312500I0J-50800D01*
G01*
G37*
G36*
G01*
X77268300Y-61312500D02*
X77268300Y-62812500D01*
G75*
G02*
X77217500Y-62863300I-50800J0D01*
G01*
X75217500Y-62863300D01*
G75*
G02*
X75166700Y-62812500I0J50800D01*
G01*
X75166700Y-61312500D01*
G75*
G02*
X75217500Y-61261700I50800J0D01*
G01*
X77217500Y-61261700D01*
G75*
G02*
X77268300Y-61312500I0J-50800D01*
G01*
G37*
G36*
G01*
X77268300Y-59312500D02*
X77268300Y-60812500D01*
G75*
G02*
X77217500Y-60863300I-50800J0D01*
G01*
X75217500Y-60863300D01*
G75*
G02*
X75166700Y-60812500I0J50800D01*
G01*
X75166700Y-59312500D01*
G75*
G02*
X75217500Y-59261700I50800J0D01*
G01*
X77217500Y-59261700D01*
G75*
G02*
X77268300Y-59312500I0J-50800D01*
G01*
G37*
G36*
G01*
X77268300Y-57312500D02*
X77268300Y-58812500D01*
G75*
G02*
X77217500Y-58863300I-50800J0D01*
G01*
X75217500Y-58863300D01*
G75*
G02*
X75166700Y-58812500I0J50800D01*
G01*
X75166700Y-57312500D01*
G75*
G02*
X75217500Y-57261700I50800J0D01*
G01*
X77217500Y-57261700D01*
G75*
G02*
X77268300Y-57312500I0J-50800D01*
G01*
G37*
G36*
G01*
X77268300Y-55312500D02*
X77268300Y-56812500D01*
G75*
G02*
X77217500Y-56863300I-50800J0D01*
G01*
X75217500Y-56863300D01*
G75*
G02*
X75166700Y-56812500I0J50800D01*
G01*
X75166700Y-55312500D01*
G75*
G02*
X75217500Y-55261700I50800J0D01*
G01*
X77217500Y-55261700D01*
G75*
G02*
X77268300Y-55312500I0J-50800D01*
G01*
G37*
G36*
G01*
X77268300Y-53312500D02*
X77268300Y-54812500D01*
G75*
G02*
X77217500Y-54863300I-50800J0D01*
G01*
X75217500Y-54863300D01*
G75*
G02*
X75166700Y-54812500I0J50800D01*
G01*
X75166700Y-53312500D01*
G75*
G02*
X75217500Y-53261700I50800J0D01*
G01*
X77217500Y-53261700D01*
G75*
G02*
X77268300Y-53312500I0J-50800D01*
G01*
G37*
G36*
G01*
X77268300Y-51312500D02*
X77268300Y-52812500D01*
G75*
G02*
X77217500Y-52863300I-50800J0D01*
G01*
X75217500Y-52863300D01*
G75*
G02*
X75166700Y-52812500I0J50800D01*
G01*
X75166700Y-51312500D01*
G75*
G02*
X75217500Y-51261700I50800J0D01*
G01*
X77217500Y-51261700D01*
G75*
G02*
X77268300Y-51312500I0J-50800D01*
G01*
G37*
G04 #@! TD*
G04 #@! TO.C,U1*
G36*
G01*
X79617500Y-113098300D02*
X76267500Y-113098300D01*
G75*
G02*
X76216700Y-113047500I0J50800D01*
G01*
X76216700Y-109697500D01*
G75*
G02*
X76267500Y-109646700I50800J0D01*
G01*
X79617500Y-109646700D01*
G75*
G02*
X79668300Y-109697500I0J-50800D01*
G01*
X79668300Y-113047500D01*
G75*
G02*
X79617500Y-113098300I-50800J0D01*
G01*
G37*
G36*
G01*
X80755400Y-113048300D02*
X80029600Y-113048300D01*
G75*
G02*
X79941700Y-112960400I0J87900D01*
G01*
X79941700Y-112784600D01*
G75*
G02*
X80029600Y-112696700I87900J0D01*
G01*
X80755400Y-112696700D01*
G75*
G02*
X80843300Y-112784600I0J-87900D01*
G01*
X80843300Y-112960400D01*
G75*
G02*
X80755400Y-113048300I-87900J0D01*
G01*
G37*
G36*
G01*
X80755400Y-112548300D02*
X80029600Y-112548300D01*
G75*
G02*
X79941700Y-112460400I0J87900D01*
G01*
X79941700Y-112284600D01*
G75*
G02*
X80029600Y-112196700I87900J0D01*
G01*
X80755400Y-112196700D01*
G75*
G02*
X80843300Y-112284600I0J-87900D01*
G01*
X80843300Y-112460400D01*
G75*
G02*
X80755400Y-112548300I-87900J0D01*
G01*
G37*
G36*
G01*
X80755400Y-112048300D02*
X80029600Y-112048300D01*
G75*
G02*
X79941700Y-111960400I0J87900D01*
G01*
X79941700Y-111784600D01*
G75*
G02*
X80029600Y-111696700I87900J0D01*
G01*
X80755400Y-111696700D01*
G75*
G02*
X80843300Y-111784600I0J-87900D01*
G01*
X80843300Y-111960400D01*
G75*
G02*
X80755400Y-112048300I-87900J0D01*
G01*
G37*
G36*
G01*
X80755400Y-111548300D02*
X80029600Y-111548300D01*
G75*
G02*
X79941700Y-111460400I0J87900D01*
G01*
X79941700Y-111284600D01*
G75*
G02*
X80029600Y-111196700I87900J0D01*
G01*
X80755400Y-111196700D01*
G75*
G02*
X80843300Y-111284600I0J-87900D01*
G01*
X80843300Y-111460400D01*
G75*
G02*
X80755400Y-111548300I-87900J0D01*
G01*
G37*
G36*
G01*
X80755400Y-111048300D02*
X80029600Y-111048300D01*
G75*
G02*
X79941700Y-110960400I0J87900D01*
G01*
X79941700Y-110784600D01*
G75*
G02*
X80029600Y-110696700I87900J0D01*
G01*
X80755400Y-110696700D01*
G75*
G02*
X80843300Y-110784600I0J-87900D01*
G01*
X80843300Y-110960400D01*
G75*
G02*
X80755400Y-111048300I-87900J0D01*
G01*
G37*
G36*
G01*
X80755400Y-110548300D02*
X80029600Y-110548300D01*
G75*
G02*
X79941700Y-110460400I0J87900D01*
G01*
X79941700Y-110284600D01*
G75*
G02*
X80029600Y-110196700I87900J0D01*
G01*
X80755400Y-110196700D01*
G75*
G02*
X80843300Y-110284600I0J-87900D01*
G01*
X80843300Y-110460400D01*
G75*
G02*
X80755400Y-110548300I-87900J0D01*
G01*
G37*
G36*
G01*
X80755400Y-110048300D02*
X80029600Y-110048300D01*
G75*
G02*
X79941700Y-109960400I0J87900D01*
G01*
X79941700Y-109784600D01*
G75*
G02*
X80029600Y-109696700I87900J0D01*
G01*
X80755400Y-109696700D01*
G75*
G02*
X80843300Y-109784600I0J-87900D01*
G01*
X80843300Y-109960400D01*
G75*
G02*
X80755400Y-110048300I-87900J0D01*
G01*
G37*
G36*
G01*
X79530400Y-109373300D02*
X79354600Y-109373300D01*
G75*
G02*
X79266700Y-109285400I0J87900D01*
G01*
X79266700Y-108559600D01*
G75*
G02*
X79354600Y-108471700I87900J0D01*
G01*
X79530400Y-108471700D01*
G75*
G02*
X79618300Y-108559600I0J-87900D01*
G01*
X79618300Y-109285400D01*
G75*
G02*
X79530400Y-109373300I-87900J0D01*
G01*
G37*
G36*
G01*
X79030400Y-109373300D02*
X78854600Y-109373300D01*
G75*
G02*
X78766700Y-109285400I0J87900D01*
G01*
X78766700Y-108559600D01*
G75*
G02*
X78854600Y-108471700I87900J0D01*
G01*
X79030400Y-108471700D01*
G75*
G02*
X79118300Y-108559600I0J-87900D01*
G01*
X79118300Y-109285400D01*
G75*
G02*
X79030400Y-109373300I-87900J0D01*
G01*
G37*
G36*
G01*
X78530400Y-109373300D02*
X78354600Y-109373300D01*
G75*
G02*
X78266700Y-109285400I0J87900D01*
G01*
X78266700Y-108559600D01*
G75*
G02*
X78354600Y-108471700I87900J0D01*
G01*
X78530400Y-108471700D01*
G75*
G02*
X78618300Y-108559600I0J-87900D01*
G01*
X78618300Y-109285400D01*
G75*
G02*
X78530400Y-109373300I-87900J0D01*
G01*
G37*
G36*
G01*
X78030400Y-109373300D02*
X77854600Y-109373300D01*
G75*
G02*
X77766700Y-109285400I0J87900D01*
G01*
X77766700Y-108559600D01*
G75*
G02*
X77854600Y-108471700I87900J0D01*
G01*
X78030400Y-108471700D01*
G75*
G02*
X78118300Y-108559600I0J-87900D01*
G01*
X78118300Y-109285400D01*
G75*
G02*
X78030400Y-109373300I-87900J0D01*
G01*
G37*
G36*
G01*
X77530400Y-109373300D02*
X77354600Y-109373300D01*
G75*
G02*
X77266700Y-109285400I0J87900D01*
G01*
X77266700Y-108559600D01*
G75*
G02*
X77354600Y-108471700I87900J0D01*
G01*
X77530400Y-108471700D01*
G75*
G02*
X77618300Y-108559600I0J-87900D01*
G01*
X77618300Y-109285400D01*
G75*
G02*
X77530400Y-109373300I-87900J0D01*
G01*
G37*
G36*
G01*
X77030400Y-109373300D02*
X76854600Y-109373300D01*
G75*
G02*
X76766700Y-109285400I0J87900D01*
G01*
X76766700Y-108559600D01*
G75*
G02*
X76854600Y-108471700I87900J0D01*
G01*
X77030400Y-108471700D01*
G75*
G02*
X77118300Y-108559600I0J-87900D01*
G01*
X77118300Y-109285400D01*
G75*
G02*
X77030400Y-109373300I-87900J0D01*
G01*
G37*
G36*
G01*
X76530400Y-109373300D02*
X76354600Y-109373300D01*
G75*
G02*
X76266700Y-109285400I0J87900D01*
G01*
X76266700Y-108559600D01*
G75*
G02*
X76354600Y-108471700I87900J0D01*
G01*
X76530400Y-108471700D01*
G75*
G02*
X76618300Y-108559600I0J-87900D01*
G01*
X76618300Y-109285400D01*
G75*
G02*
X76530400Y-109373300I-87900J0D01*
G01*
G37*
G36*
G01*
X75855400Y-110048300D02*
X75129600Y-110048300D01*
G75*
G02*
X75041700Y-109960400I0J87900D01*
G01*
X75041700Y-109784600D01*
G75*
G02*
X75129600Y-109696700I87900J0D01*
G01*
X75855400Y-109696700D01*
G75*
G02*
X75943300Y-109784600I0J-87900D01*
G01*
X75943300Y-109960400D01*
G75*
G02*
X75855400Y-110048300I-87900J0D01*
G01*
G37*
G36*
G01*
X75855400Y-110548300D02*
X75129600Y-110548300D01*
G75*
G02*
X75041700Y-110460400I0J87900D01*
G01*
X75041700Y-110284600D01*
G75*
G02*
X75129600Y-110196700I87900J0D01*
G01*
X75855400Y-110196700D01*
G75*
G02*
X75943300Y-110284600I0J-87900D01*
G01*
X75943300Y-110460400D01*
G75*
G02*
X75855400Y-110548300I-87900J0D01*
G01*
G37*
G36*
G01*
X75855400Y-111048300D02*
X75129600Y-111048300D01*
G75*
G02*
X75041700Y-110960400I0J87900D01*
G01*
X75041700Y-110784600D01*
G75*
G02*
X75129600Y-110696700I87900J0D01*
G01*
X75855400Y-110696700D01*
G75*
G02*
X75943300Y-110784600I0J-87900D01*
G01*
X75943300Y-110960400D01*
G75*
G02*
X75855400Y-111048300I-87900J0D01*
G01*
G37*
G36*
G01*
X75855400Y-111548300D02*
X75129600Y-111548300D01*
G75*
G02*
X75041700Y-111460400I0J87900D01*
G01*
X75041700Y-111284600D01*
G75*
G02*
X75129600Y-111196700I87900J0D01*
G01*
X75855400Y-111196700D01*
G75*
G02*
X75943300Y-111284600I0J-87900D01*
G01*
X75943300Y-111460400D01*
G75*
G02*
X75855400Y-111548300I-87900J0D01*
G01*
G37*
G36*
G01*
X75855400Y-112048300D02*
X75129600Y-112048300D01*
G75*
G02*
X75041700Y-111960400I0J87900D01*
G01*
X75041700Y-111784600D01*
G75*
G02*
X75129600Y-111696700I87900J0D01*
G01*
X75855400Y-111696700D01*
G75*
G02*
X75943300Y-111784600I0J-87900D01*
G01*
X75943300Y-111960400D01*
G75*
G02*
X75855400Y-112048300I-87900J0D01*
G01*
G37*
G36*
G01*
X75855400Y-112548300D02*
X75129600Y-112548300D01*
G75*
G02*
X75041700Y-112460400I0J87900D01*
G01*
X75041700Y-112284600D01*
G75*
G02*
X75129600Y-112196700I87900J0D01*
G01*
X75855400Y-112196700D01*
G75*
G02*
X75943300Y-112284600I0J-87900D01*
G01*
X75943300Y-112460400D01*
G75*
G02*
X75855400Y-112548300I-87900J0D01*
G01*
G37*
G36*
G01*
X75855400Y-113048300D02*
X75129600Y-113048300D01*
G75*
G02*
X75041700Y-112960400I0J87900D01*
G01*
X75041700Y-112784600D01*
G75*
G02*
X75129600Y-112696700I87900J0D01*
G01*
X75855400Y-112696700D01*
G75*
G02*
X75943300Y-112784600I0J-87900D01*
G01*
X75943300Y-112960400D01*
G75*
G02*
X75855400Y-113048300I-87900J0D01*
G01*
G37*
G36*
G01*
X76530400Y-114273300D02*
X76354600Y-114273300D01*
G75*
G02*
X76266700Y-114185400I0J87900D01*
G01*
X76266700Y-113459600D01*
G75*
G02*
X76354600Y-113371700I87900J0D01*
G01*
X76530400Y-113371700D01*
G75*
G02*
X76618300Y-113459600I0J-87900D01*
G01*
X76618300Y-114185400D01*
G75*
G02*
X76530400Y-114273300I-87900J0D01*
G01*
G37*
G36*
G01*
X77030400Y-114273300D02*
X76854600Y-114273300D01*
G75*
G02*
X76766700Y-114185400I0J87900D01*
G01*
X76766700Y-113459600D01*
G75*
G02*
X76854600Y-113371700I87900J0D01*
G01*
X77030400Y-113371700D01*
G75*
G02*
X77118300Y-113459600I0J-87900D01*
G01*
X77118300Y-114185400D01*
G75*
G02*
X77030400Y-114273300I-87900J0D01*
G01*
G37*
G36*
G01*
X77530400Y-114273300D02*
X77354600Y-114273300D01*
G75*
G02*
X77266700Y-114185400I0J87900D01*
G01*
X77266700Y-113459600D01*
G75*
G02*
X77354600Y-113371700I87900J0D01*
G01*
X77530400Y-113371700D01*
G75*
G02*
X77618300Y-113459600I0J-87900D01*
G01*
X77618300Y-114185400D01*
G75*
G02*
X77530400Y-114273300I-87900J0D01*
G01*
G37*
G36*
G01*
X78030400Y-114273300D02*
X77854600Y-114273300D01*
G75*
G02*
X77766700Y-114185400I0J87900D01*
G01*
X77766700Y-113459600D01*
G75*
G02*
X77854600Y-113371700I87900J0D01*
G01*
X78030400Y-113371700D01*
G75*
G02*
X78118300Y-113459600I0J-87900D01*
G01*
X78118300Y-114185400D01*
G75*
G02*
X78030400Y-114273300I-87900J0D01*
G01*
G37*
G36*
G01*
X78530400Y-114273300D02*
X78354600Y-114273300D01*
G75*
G02*
X78266700Y-114185400I0J87900D01*
G01*
X78266700Y-113459600D01*
G75*
G02*
X78354600Y-113371700I87900J0D01*
G01*
X78530400Y-113371700D01*
G75*
G02*
X78618300Y-113459600I0J-87900D01*
G01*
X78618300Y-114185400D01*
G75*
G02*
X78530400Y-114273300I-87900J0D01*
G01*
G37*
G36*
G01*
X79030400Y-114273300D02*
X78854600Y-114273300D01*
G75*
G02*
X78766700Y-114185400I0J87900D01*
G01*
X78766700Y-113459600D01*
G75*
G02*
X78854600Y-113371700I87900J0D01*
G01*
X79030400Y-113371700D01*
G75*
G02*
X79118300Y-113459600I0J-87900D01*
G01*
X79118300Y-114185400D01*
G75*
G02*
X79030400Y-114273300I-87900J0D01*
G01*
G37*
G36*
G01*
X79530400Y-114273300D02*
X79354600Y-114273300D01*
G75*
G02*
X79266700Y-114185400I0J87900D01*
G01*
X79266700Y-113459600D01*
G75*
G02*
X79354600Y-113371700I87900J0D01*
G01*
X79530400Y-113371700D01*
G75*
G02*
X79618300Y-113459600I0J-87900D01*
G01*
X79618300Y-114185400D01*
G75*
G02*
X79530400Y-114273300I-87900J0D01*
G01*
G37*
G04 #@! TD*
G04 #@! TO.C,R55*
G36*
G01*
X60872135Y-116350800D02*
X59912865Y-116350800D01*
G75*
G02*
X59641700Y-116079635I0J271165D01*
G01*
X59641700Y-115320365D01*
G75*
G02*
X59912865Y-115049200I271165J0D01*
G01*
X60872135Y-115049200D01*
G75*
G02*
X61143300Y-115320365I0J-271165D01*
G01*
X61143300Y-116079635D01*
G75*
G02*
X60872135Y-116350800I-271165J0D01*
G01*
G37*
G36*
G01*
X60872135Y-118350800D02*
X59912865Y-118350800D01*
G75*
G02*
X59641700Y-118079635I0J271165D01*
G01*
X59641700Y-117320365D01*
G75*
G02*
X59912865Y-117049200I271165J0D01*
G01*
X60872135Y-117049200D01*
G75*
G02*
X61143300Y-117320365I0J-271165D01*
G01*
X61143300Y-118079635D01*
G75*
G02*
X60872135Y-118350800I-271165J0D01*
G01*
G37*
G04 #@! TD*
G04 #@! TO.C,R54*
G36*
G01*
X60892135Y-112473300D02*
X59932865Y-112473300D01*
G75*
G02*
X59661700Y-112202135I0J271165D01*
G01*
X59661700Y-111442865D01*
G75*
G02*
X59932865Y-111171700I271165J0D01*
G01*
X60892135Y-111171700D01*
G75*
G02*
X61163300Y-111442865I0J-271165D01*
G01*
X61163300Y-112202135D01*
G75*
G02*
X60892135Y-112473300I-271165J0D01*
G01*
G37*
G36*
G01*
X60892135Y-114473300D02*
X59932865Y-114473300D01*
G75*
G02*
X59661700Y-114202135I0J271165D01*
G01*
X59661700Y-113442865D01*
G75*
G02*
X59932865Y-113171700I271165J0D01*
G01*
X60892135Y-113171700D01*
G75*
G02*
X61163300Y-113442865I0J-271165D01*
G01*
X61163300Y-114202135D01*
G75*
G02*
X60892135Y-114473300I-271165J0D01*
G01*
G37*
G04 #@! TD*
G04 #@! TO.C,R53*
G36*
G01*
X92104200Y-72032135D02*
X92104200Y-71072865D01*
G75*
G02*
X92375365Y-70801700I271165J0D01*
G01*
X93134635Y-70801700D01*
G75*
G02*
X93405800Y-71072865I0J-271165D01*
G01*
X93405800Y-72032135D01*
G75*
G02*
X93134635Y-72303300I-271165J0D01*
G01*
X92375365Y-72303300D01*
G75*
G02*
X92104200Y-72032135I0J271165D01*
G01*
G37*
G36*
G01*
X90104200Y-72032135D02*
X90104200Y-71072865D01*
G75*
G02*
X90375365Y-70801700I271165J0D01*
G01*
X91134635Y-70801700D01*
G75*
G02*
X91405800Y-71072865I0J-271165D01*
G01*
X91405800Y-72032135D01*
G75*
G02*
X91134635Y-72303300I-271165J0D01*
G01*
X90375365Y-72303300D01*
G75*
G02*
X90104200Y-72032135I0J271165D01*
G01*
G37*
G04 #@! TD*
G04 #@! TO.C,R52*
G36*
G01*
X91418300Y-69047865D02*
X91418300Y-70007135D01*
G75*
G02*
X91147135Y-70278300I-271165J0D01*
G01*
X90387865Y-70278300D01*
G75*
G02*
X90116700Y-70007135I0J271165D01*
G01*
X90116700Y-69047865D01*
G75*
G02*
X90387865Y-68776700I271165J0D01*
G01*
X91147135Y-68776700D01*
G75*
G02*
X91418300Y-69047865I0J-271165D01*
G01*
G37*
G36*
G01*
X93418300Y-69047865D02*
X93418300Y-70007135D01*
G75*
G02*
X93147135Y-70278300I-271165J0D01*
G01*
X92387865Y-70278300D01*
G75*
G02*
X92116700Y-70007135I0J271165D01*
G01*
X92116700Y-69047865D01*
G75*
G02*
X92387865Y-68776700I271165J0D01*
G01*
X93147135Y-68776700D01*
G75*
G02*
X93418300Y-69047865I0J-271165D01*
G01*
G37*
G04 #@! TD*
G04 #@! TO.C,R48*
G36*
G01*
X64403300Y-56312865D02*
X64403300Y-57272135D01*
G75*
G02*
X64132135Y-57543300I-271165J0D01*
G01*
X63372865Y-57543300D01*
G75*
G02*
X63101700Y-57272135I0J271165D01*
G01*
X63101700Y-56312865D01*
G75*
G02*
X63372865Y-56041700I271165J0D01*
G01*
X64132135Y-56041700D01*
G75*
G02*
X64403300Y-56312865I0J-271165D01*
G01*
G37*
G36*
G01*
X66403300Y-56312865D02*
X66403300Y-57272135D01*
G75*
G02*
X66132135Y-57543300I-271165J0D01*
G01*
X65372865Y-57543300D01*
G75*
G02*
X65101700Y-57272135I0J271165D01*
G01*
X65101700Y-56312865D01*
G75*
G02*
X65372865Y-56041700I271165J0D01*
G01*
X66132135Y-56041700D01*
G75*
G02*
X66403300Y-56312865I0J-271165D01*
G01*
G37*
G04 #@! TD*
G04 #@! TO.C,R46*
G36*
G01*
X67217865Y-60061700D02*
X68177135Y-60061700D01*
G75*
G02*
X68448300Y-60332865I0J-271165D01*
G01*
X68448300Y-61092135D01*
G75*
G02*
X68177135Y-61363300I-271165J0D01*
G01*
X67217865Y-61363300D01*
G75*
G02*
X66946700Y-61092135I0J271165D01*
G01*
X66946700Y-60332865D01*
G75*
G02*
X67217865Y-60061700I271165J0D01*
G01*
G37*
G36*
G01*
X67217865Y-58061700D02*
X68177135Y-58061700D01*
G75*
G02*
X68448300Y-58332865I0J-271165D01*
G01*
X68448300Y-59092135D01*
G75*
G02*
X68177135Y-59363300I-271165J0D01*
G01*
X67217865Y-59363300D01*
G75*
G02*
X66946700Y-59092135I0J271165D01*
G01*
X66946700Y-58332865D01*
G75*
G02*
X67217865Y-58061700I271165J0D01*
G01*
G37*
G04 #@! TD*
G04 #@! TO.C,R41*
G36*
G01*
X71518300Y-119902500D02*
X71518300Y-121702500D01*
G75*
G02*
X71467500Y-121753300I-50800J0D01*
G01*
X69967500Y-121753300D01*
G75*
G02*
X69916700Y-121702500I0J50800D01*
G01*
X69916700Y-119902500D01*
G75*
G02*
X69967500Y-119851700I50800J0D01*
G01*
X71467500Y-119851700D01*
G75*
G02*
X71518300Y-119902500I0J-50800D01*
G01*
G37*
G36*
G01*
X74518300Y-119902500D02*
X74518300Y-121702500D01*
G75*
G02*
X74467500Y-121753300I-50800J0D01*
G01*
X72967500Y-121753300D01*
G75*
G02*
X72916700Y-121702500I0J50800D01*
G01*
X72916700Y-119902500D01*
G75*
G02*
X72967500Y-119851700I50800J0D01*
G01*
X74467500Y-119851700D01*
G75*
G02*
X74518300Y-119902500I0J-50800D01*
G01*
G37*
G04 #@! TD*
G04 #@! TO.C,R38*
G36*
G01*
X65840800Y-119795365D02*
X65840800Y-120754635D01*
G75*
G02*
X65569635Y-121025800I-271165J0D01*
G01*
X64810365Y-121025800D01*
G75*
G02*
X64539200Y-120754635I0J271165D01*
G01*
X64539200Y-119795365D01*
G75*
G02*
X64810365Y-119524200I271165J0D01*
G01*
X65569635Y-119524200D01*
G75*
G02*
X65840800Y-119795365I0J-271165D01*
G01*
G37*
G36*
G01*
X67840800Y-119795365D02*
X67840800Y-120754635D01*
G75*
G02*
X67569635Y-121025800I-271165J0D01*
G01*
X66810365Y-121025800D01*
G75*
G02*
X66539200Y-120754635I0J271165D01*
G01*
X66539200Y-119795365D01*
G75*
G02*
X66810365Y-119524200I271165J0D01*
G01*
X67569635Y-119524200D01*
G75*
G02*
X67840800Y-119795365I0J-271165D01*
G01*
G37*
G04 #@! TD*
G04 #@! TO.C,R33*
G36*
G01*
X86175365Y-91241700D02*
X87134635Y-91241700D01*
G75*
G02*
X87405800Y-91512865I0J-271165D01*
G01*
X87405800Y-92272135D01*
G75*
G02*
X87134635Y-92543300I-271165J0D01*
G01*
X86175365Y-92543300D01*
G75*
G02*
X85904200Y-92272135I0J271165D01*
G01*
X85904200Y-91512865D01*
G75*
G02*
X86175365Y-91241700I271165J0D01*
G01*
G37*
G36*
G01*
X86175365Y-89241700D02*
X87134635Y-89241700D01*
G75*
G02*
X87405800Y-89512865I0J-271165D01*
G01*
X87405800Y-90272135D01*
G75*
G02*
X87134635Y-90543300I-271165J0D01*
G01*
X86175365Y-90543300D01*
G75*
G02*
X85904200Y-90272135I0J271165D01*
G01*
X85904200Y-89512865D01*
G75*
G02*
X86175365Y-89241700I271165J0D01*
G01*
G37*
G04 #@! TD*
G04 #@! TO.C,R31*
G36*
G01*
X88687865Y-107349200D02*
X89647135Y-107349200D01*
G75*
G02*
X89918300Y-107620365I0J-271165D01*
G01*
X89918300Y-108379635D01*
G75*
G02*
X89647135Y-108650800I-271165J0D01*
G01*
X88687865Y-108650800D01*
G75*
G02*
X88416700Y-108379635I0J271165D01*
G01*
X88416700Y-107620365D01*
G75*
G02*
X88687865Y-107349200I271165J0D01*
G01*
G37*
G36*
G01*
X88687865Y-105349200D02*
X89647135Y-105349200D01*
G75*
G02*
X89918300Y-105620365I0J-271165D01*
G01*
X89918300Y-106379635D01*
G75*
G02*
X89647135Y-106650800I-271165J0D01*
G01*
X88687865Y-106650800D01*
G75*
G02*
X88416700Y-106379635I0J271165D01*
G01*
X88416700Y-105620365D01*
G75*
G02*
X88687865Y-105349200I271165J0D01*
G01*
G37*
G04 #@! TD*
G04 #@! TO.C,R28*
G36*
G01*
X97904635Y-118838300D02*
X96945365Y-118838300D01*
G75*
G02*
X96674200Y-118567135I0J271165D01*
G01*
X96674200Y-117807865D01*
G75*
G02*
X96945365Y-117536700I271165J0D01*
G01*
X97904635Y-117536700D01*
G75*
G02*
X98175800Y-117807865I0J-271165D01*
G01*
X98175800Y-118567135D01*
G75*
G02*
X97904635Y-118838300I-271165J0D01*
G01*
G37*
G36*
G01*
X97904635Y-120838300D02*
X96945365Y-120838300D01*
G75*
G02*
X96674200Y-120567135I0J271165D01*
G01*
X96674200Y-119807865D01*
G75*
G02*
X96945365Y-119536700I271165J0D01*
G01*
X97904635Y-119536700D01*
G75*
G02*
X98175800Y-119807865I0J-271165D01*
G01*
X98175800Y-120567135D01*
G75*
G02*
X97904635Y-120838300I-271165J0D01*
G01*
G37*
G04 #@! TD*
G04 #@! TO.C,R26*
G36*
G01*
X58884635Y-112470800D02*
X57925365Y-112470800D01*
G75*
G02*
X57654200Y-112199635I0J271165D01*
G01*
X57654200Y-111440365D01*
G75*
G02*
X57925365Y-111169200I271165J0D01*
G01*
X58884635Y-111169200D01*
G75*
G02*
X59155800Y-111440365I0J-271165D01*
G01*
X59155800Y-112199635D01*
G75*
G02*
X58884635Y-112470800I-271165J0D01*
G01*
G37*
G36*
G01*
X58884635Y-114470800D02*
X57925365Y-114470800D01*
G75*
G02*
X57654200Y-114199635I0J271165D01*
G01*
X57654200Y-113440365D01*
G75*
G02*
X57925365Y-113169200I271165J0D01*
G01*
X58884635Y-113169200D01*
G75*
G02*
X59155800Y-113440365I0J-271165D01*
G01*
X59155800Y-114199635D01*
G75*
G02*
X58884635Y-114470800I-271165J0D01*
G01*
G37*
G04 #@! TD*
G04 #@! TO.C,R24*
G36*
G01*
X93932135Y-118838300D02*
X92972865Y-118838300D01*
G75*
G02*
X92701700Y-118567135I0J271165D01*
G01*
X92701700Y-117807865D01*
G75*
G02*
X92972865Y-117536700I271165J0D01*
G01*
X93932135Y-117536700D01*
G75*
G02*
X94203300Y-117807865I0J-271165D01*
G01*
X94203300Y-118567135D01*
G75*
G02*
X93932135Y-118838300I-271165J0D01*
G01*
G37*
G36*
G01*
X93932135Y-120838300D02*
X92972865Y-120838300D01*
G75*
G02*
X92701700Y-120567135I0J271165D01*
G01*
X92701700Y-119807865D01*
G75*
G02*
X92972865Y-119536700I271165J0D01*
G01*
X93932135Y-119536700D01*
G75*
G02*
X94203300Y-119807865I0J-271165D01*
G01*
X94203300Y-120567135D01*
G75*
G02*
X93932135Y-120838300I-271165J0D01*
G01*
G37*
G04 #@! TD*
G04 #@! TO.C,R23*
G36*
G01*
X55966700Y-110424635D02*
X55966700Y-109465365D01*
G75*
G02*
X56237865Y-109194200I271165J0D01*
G01*
X56997135Y-109194200D01*
G75*
G02*
X57268300Y-109465365I0J-271165D01*
G01*
X57268300Y-110424635D01*
G75*
G02*
X56997135Y-110695800I-271165J0D01*
G01*
X56237865Y-110695800D01*
G75*
G02*
X55966700Y-110424635I0J271165D01*
G01*
G37*
G36*
G01*
X53966700Y-110424635D02*
X53966700Y-109465365D01*
G75*
G02*
X54237865Y-109194200I271165J0D01*
G01*
X54997135Y-109194200D01*
G75*
G02*
X55268300Y-109465365I0J-271165D01*
G01*
X55268300Y-110424635D01*
G75*
G02*
X54997135Y-110695800I-271165J0D01*
G01*
X54237865Y-110695800D01*
G75*
G02*
X53966700Y-110424635I0J271165D01*
G01*
G37*
G04 #@! TD*
G04 #@! TO.C,R22*
G36*
G01*
X55966700Y-108427135D02*
X55966700Y-107467865D01*
G75*
G02*
X56237865Y-107196700I271165J0D01*
G01*
X56997135Y-107196700D01*
G75*
G02*
X57268300Y-107467865I0J-271165D01*
G01*
X57268300Y-108427135D01*
G75*
G02*
X56997135Y-108698300I-271165J0D01*
G01*
X56237865Y-108698300D01*
G75*
G02*
X55966700Y-108427135I0J271165D01*
G01*
G37*
G36*
G01*
X53966700Y-108427135D02*
X53966700Y-107467865D01*
G75*
G02*
X54237865Y-107196700I271165J0D01*
G01*
X54997135Y-107196700D01*
G75*
G02*
X55268300Y-107467865I0J-271165D01*
G01*
X55268300Y-108427135D01*
G75*
G02*
X54997135Y-108698300I-271165J0D01*
G01*
X54237865Y-108698300D01*
G75*
G02*
X53966700Y-108427135I0J271165D01*
G01*
G37*
G04 #@! TD*
G04 #@! TO.C,R19*
G36*
G01*
X58047135Y-104560800D02*
X57087865Y-104560800D01*
G75*
G02*
X56816700Y-104289635I0J271165D01*
G01*
X56816700Y-103530365D01*
G75*
G02*
X57087865Y-103259200I271165J0D01*
G01*
X58047135Y-103259200D01*
G75*
G02*
X58318300Y-103530365I0J-271165D01*
G01*
X58318300Y-104289635D01*
G75*
G02*
X58047135Y-104560800I-271165J0D01*
G01*
G37*
G36*
G01*
X58047135Y-106560800D02*
X57087865Y-106560800D01*
G75*
G02*
X56816700Y-106289635I0J271165D01*
G01*
X56816700Y-105530365D01*
G75*
G02*
X57087865Y-105259200I271165J0D01*
G01*
X58047135Y-105259200D01*
G75*
G02*
X58318300Y-105530365I0J-271165D01*
G01*
X58318300Y-106289635D01*
G75*
G02*
X58047135Y-106560800I-271165J0D01*
G01*
G37*
G04 #@! TD*
G04 #@! TO.C,R18*
G36*
G01*
X73977865Y-101386700D02*
X74937135Y-101386700D01*
G75*
G02*
X75208300Y-101657865I0J-271165D01*
G01*
X75208300Y-102417135D01*
G75*
G02*
X74937135Y-102688300I-271165J0D01*
G01*
X73977865Y-102688300D01*
G75*
G02*
X73706700Y-102417135I0J271165D01*
G01*
X73706700Y-101657865D01*
G75*
G02*
X73977865Y-101386700I271165J0D01*
G01*
G37*
G36*
G01*
X73977865Y-99386700D02*
X74937135Y-99386700D01*
G75*
G02*
X75208300Y-99657865I0J-271165D01*
G01*
X75208300Y-100417135D01*
G75*
G02*
X74937135Y-100688300I-271165J0D01*
G01*
X73977865Y-100688300D01*
G75*
G02*
X73706700Y-100417135I0J271165D01*
G01*
X73706700Y-99657865D01*
G75*
G02*
X73977865Y-99386700I271165J0D01*
G01*
G37*
G04 #@! TD*
G04 #@! TO.C,R17*
G36*
G01*
X62052135Y-102555800D02*
X61092865Y-102555800D01*
G75*
G02*
X60821700Y-102284635I0J271165D01*
G01*
X60821700Y-101525365D01*
G75*
G02*
X61092865Y-101254200I271165J0D01*
G01*
X62052135Y-101254200D01*
G75*
G02*
X62323300Y-101525365I0J-271165D01*
G01*
X62323300Y-102284635D01*
G75*
G02*
X62052135Y-102555800I-271165J0D01*
G01*
G37*
G36*
G01*
X62052135Y-104555800D02*
X61092865Y-104555800D01*
G75*
G02*
X60821700Y-104284635I0J271165D01*
G01*
X60821700Y-103525365D01*
G75*
G02*
X61092865Y-103254200I271165J0D01*
G01*
X62052135Y-103254200D01*
G75*
G02*
X62323300Y-103525365I0J-271165D01*
G01*
X62323300Y-104284635D01*
G75*
G02*
X62052135Y-104555800I-271165J0D01*
G01*
G37*
G04 #@! TD*
G04 #@! TO.C,R13*
G36*
G01*
X83283635Y-113128600D02*
X82324365Y-113128600D01*
G75*
G02*
X82053200Y-112857435I0J271165D01*
G01*
X82053200Y-112098165D01*
G75*
G02*
X82324365Y-111827000I271165J0D01*
G01*
X83283635Y-111827000D01*
G75*
G02*
X83554800Y-112098165I0J-271165D01*
G01*
X83554800Y-112857435D01*
G75*
G02*
X83283635Y-113128600I-271165J0D01*
G01*
G37*
G36*
G01*
X83283635Y-115128600D02*
X82324365Y-115128600D01*
G75*
G02*
X82053200Y-114857435I0J271165D01*
G01*
X82053200Y-114098165D01*
G75*
G02*
X82324365Y-113827000I271165J0D01*
G01*
X83283635Y-113827000D01*
G75*
G02*
X83554800Y-114098165I0J-271165D01*
G01*
X83554800Y-114857435D01*
G75*
G02*
X83283635Y-115128600I-271165J0D01*
G01*
G37*
G04 #@! TD*
G04 #@! TO.C,R12*
G36*
G01*
X82298965Y-109019800D02*
X83258235Y-109019800D01*
G75*
G02*
X83529400Y-109290965I0J-271165D01*
G01*
X83529400Y-110050235D01*
G75*
G02*
X83258235Y-110321400I-271165J0D01*
G01*
X82298965Y-110321400D01*
G75*
G02*
X82027800Y-110050235I0J271165D01*
G01*
X82027800Y-109290965D01*
G75*
G02*
X82298965Y-109019800I271165J0D01*
G01*
G37*
G36*
G01*
X82298965Y-107019800D02*
X83258235Y-107019800D01*
G75*
G02*
X83529400Y-107290965I0J-271165D01*
G01*
X83529400Y-108050235D01*
G75*
G02*
X83258235Y-108321400I-271165J0D01*
G01*
X82298965Y-108321400D01*
G75*
G02*
X82027800Y-108050235I0J271165D01*
G01*
X82027800Y-107290965D01*
G75*
G02*
X82298965Y-107019800I271165J0D01*
G01*
G37*
G04 #@! TD*
G04 #@! TO.C,R11*
G36*
G01*
X75957865Y-101411700D02*
X76917135Y-101411700D01*
G75*
G02*
X77188300Y-101682865I0J-271165D01*
G01*
X77188300Y-102442135D01*
G75*
G02*
X76917135Y-102713300I-271165J0D01*
G01*
X75957865Y-102713300D01*
G75*
G02*
X75686700Y-102442135I0J271165D01*
G01*
X75686700Y-101682865D01*
G75*
G02*
X75957865Y-101411700I271165J0D01*
G01*
G37*
G36*
G01*
X75957865Y-99411700D02*
X76917135Y-99411700D01*
G75*
G02*
X77188300Y-99682865I0J-271165D01*
G01*
X77188300Y-100442135D01*
G75*
G02*
X76917135Y-100713300I-271165J0D01*
G01*
X75957865Y-100713300D01*
G75*
G02*
X75686700Y-100442135I0J271165D01*
G01*
X75686700Y-99682865D01*
G75*
G02*
X75957865Y-99411700I271165J0D01*
G01*
G37*
G04 #@! TD*
G04 #@! TO.C,R10*
G36*
G01*
X83124920Y-118901435D02*
X83124920Y-117942165D01*
G75*
G02*
X83396085Y-117671000I271165J0D01*
G01*
X84155355Y-117671000D01*
G75*
G02*
X84426520Y-117942165I0J-271165D01*
G01*
X84426520Y-118901435D01*
G75*
G02*
X84155355Y-119172600I-271165J0D01*
G01*
X83396085Y-119172600D01*
G75*
G02*
X83124920Y-118901435I0J271165D01*
G01*
G37*
G36*
G01*
X81124920Y-118901435D02*
X81124920Y-117942165D01*
G75*
G02*
X81396085Y-117671000I271165J0D01*
G01*
X82155355Y-117671000D01*
G75*
G02*
X82426520Y-117942165I0J-271165D01*
G01*
X82426520Y-118901435D01*
G75*
G02*
X82155355Y-119172600I-271165J0D01*
G01*
X81396085Y-119172600D01*
G75*
G02*
X81124920Y-118901435I0J271165D01*
G01*
G37*
G04 #@! TD*
G04 #@! TO.C,R9*
G36*
G01*
X60150800Y-99305365D02*
X60150800Y-100264635D01*
G75*
G02*
X59879635Y-100535800I-271165J0D01*
G01*
X59120365Y-100535800D01*
G75*
G02*
X58849200Y-100264635I0J271165D01*
G01*
X58849200Y-99305365D01*
G75*
G02*
X59120365Y-99034200I271165J0D01*
G01*
X59879635Y-99034200D01*
G75*
G02*
X60150800Y-99305365I0J-271165D01*
G01*
G37*
G36*
G01*
X62150800Y-99305365D02*
X62150800Y-100264635D01*
G75*
G02*
X61879635Y-100535800I-271165J0D01*
G01*
X61120365Y-100535800D01*
G75*
G02*
X60849200Y-100264635I0J271165D01*
G01*
X60849200Y-99305365D01*
G75*
G02*
X61120365Y-99034200I271165J0D01*
G01*
X61879635Y-99034200D01*
G75*
G02*
X62150800Y-99305365I0J-271165D01*
G01*
G37*
G04 #@! TD*
G04 #@! TO.C,R8*
G36*
G01*
X83128980Y-116922775D02*
X83128980Y-115963505D01*
G75*
G02*
X83400145Y-115692340I271165J0D01*
G01*
X84159415Y-115692340D01*
G75*
G02*
X84430580Y-115963505I0J-271165D01*
G01*
X84430580Y-116922775D01*
G75*
G02*
X84159415Y-117193940I-271165J0D01*
G01*
X83400145Y-117193940D01*
G75*
G02*
X83128980Y-116922775I0J271165D01*
G01*
G37*
G36*
G01*
X81128980Y-116922775D02*
X81128980Y-115963505D01*
G75*
G02*
X81400145Y-115692340I271165J0D01*
G01*
X82159415Y-115692340D01*
G75*
G02*
X82430580Y-115963505I0J-271165D01*
G01*
X82430580Y-116922775D01*
G75*
G02*
X82159415Y-117193940I-271165J0D01*
G01*
X81400145Y-117193940D01*
G75*
G02*
X81128980Y-116922775I0J271165D01*
G01*
G37*
G04 #@! TD*
G04 #@! TO.C,R7*
G36*
G01*
X79341840Y-116925315D02*
X79341840Y-115966045D01*
G75*
G02*
X79613005Y-115694880I271165J0D01*
G01*
X80372275Y-115694880D01*
G75*
G02*
X80643440Y-115966045I0J-271165D01*
G01*
X80643440Y-116925315D01*
G75*
G02*
X80372275Y-117196480I-271165J0D01*
G01*
X79613005Y-117196480D01*
G75*
G02*
X79341840Y-116925315I0J271165D01*
G01*
G37*
G36*
G01*
X77341840Y-116925315D02*
X77341840Y-115966045D01*
G75*
G02*
X77613005Y-115694880I271165J0D01*
G01*
X78372275Y-115694880D01*
G75*
G02*
X78643440Y-115966045I0J-271165D01*
G01*
X78643440Y-116925315D01*
G75*
G02*
X78372275Y-117196480I-271165J0D01*
G01*
X77613005Y-117196480D01*
G75*
G02*
X77341840Y-116925315I0J271165D01*
G01*
G37*
G04 #@! TD*
G04 #@! TO.C,R6*
G36*
G01*
X78640900Y-117942165D02*
X78640900Y-118901435D01*
G75*
G02*
X78369735Y-119172600I-271165J0D01*
G01*
X77610465Y-119172600D01*
G75*
G02*
X77339300Y-118901435I0J271165D01*
G01*
X77339300Y-117942165D01*
G75*
G02*
X77610465Y-117671000I271165J0D01*
G01*
X78369735Y-117671000D01*
G75*
G02*
X78640900Y-117942165I0J-271165D01*
G01*
G37*
G36*
G01*
X80640900Y-117942165D02*
X80640900Y-118901435D01*
G75*
G02*
X80369735Y-119172600I-271165J0D01*
G01*
X79610465Y-119172600D01*
G75*
G02*
X79339300Y-118901435I0J271165D01*
G01*
X79339300Y-117942165D01*
G75*
G02*
X79610465Y-117671000I271165J0D01*
G01*
X80369735Y-117671000D01*
G75*
G02*
X80640900Y-117942165I0J-271165D01*
G01*
G37*
G04 #@! TD*
G04 #@! TO.C,R4*
G36*
G01*
X89712865Y-76904200D02*
X90672135Y-76904200D01*
G75*
G02*
X90943300Y-77175365I0J-271165D01*
G01*
X90943300Y-77934635D01*
G75*
G02*
X90672135Y-78205800I-271165J0D01*
G01*
X89712865Y-78205800D01*
G75*
G02*
X89441700Y-77934635I0J271165D01*
G01*
X89441700Y-77175365D01*
G75*
G02*
X89712865Y-76904200I271165J0D01*
G01*
G37*
G36*
G01*
X89712865Y-74904200D02*
X90672135Y-74904200D01*
G75*
G02*
X90943300Y-75175365I0J-271165D01*
G01*
X90943300Y-75934635D01*
G75*
G02*
X90672135Y-76205800I-271165J0D01*
G01*
X89712865Y-76205800D01*
G75*
G02*
X89441700Y-75934635I0J271165D01*
G01*
X89441700Y-75175365D01*
G75*
G02*
X89712865Y-74904200I271165J0D01*
G01*
G37*
G04 #@! TD*
G04 #@! TO.C,R2*
G36*
G01*
X85770800Y-74120365D02*
X85770800Y-75079635D01*
G75*
G02*
X85499635Y-75350800I-271165J0D01*
G01*
X84740365Y-75350800D01*
G75*
G02*
X84469200Y-75079635I0J271165D01*
G01*
X84469200Y-74120365D01*
G75*
G02*
X84740365Y-73849200I271165J0D01*
G01*
X85499635Y-73849200D01*
G75*
G02*
X85770800Y-74120365I0J-271165D01*
G01*
G37*
G36*
G01*
X87770800Y-74120365D02*
X87770800Y-75079635D01*
G75*
G02*
X87499635Y-75350800I-271165J0D01*
G01*
X86740365Y-75350800D01*
G75*
G02*
X86469200Y-75079635I0J271165D01*
G01*
X86469200Y-74120365D01*
G75*
G02*
X86740365Y-73849200I271165J0D01*
G01*
X87499635Y-73849200D01*
G75*
G02*
X87770800Y-74120365I0J-271165D01*
G01*
G37*
G04 #@! TD*
G04 #@! TO.C,R1*
G36*
G01*
X73178245Y-113625700D02*
X74137515Y-113625700D01*
G75*
G02*
X74408680Y-113896865I0J-271165D01*
G01*
X74408680Y-114656135D01*
G75*
G02*
X74137515Y-114927300I-271165J0D01*
G01*
X73178245Y-114927300D01*
G75*
G02*
X72907080Y-114656135I0J271165D01*
G01*
X72907080Y-113896865D01*
G75*
G02*
X73178245Y-113625700I271165J0D01*
G01*
G37*
G36*
G01*
X73178245Y-111625700D02*
X74137515Y-111625700D01*
G75*
G02*
X74408680Y-111896865I0J-271165D01*
G01*
X74408680Y-112656135D01*
G75*
G02*
X74137515Y-112927300I-271165J0D01*
G01*
X73178245Y-112927300D01*
G75*
G02*
X72907080Y-112656135I0J271165D01*
G01*
X72907080Y-111896865D01*
G75*
G02*
X73178245Y-111625700I271165J0D01*
G01*
G37*
G04 #@! TD*
G04 #@! TO.C,Q3*
G36*
G01*
X58925800Y-108265000D02*
X58925800Y-109065000D01*
G75*
G02*
X58875000Y-109115800I-50800J0D01*
G01*
X57975000Y-109115800D01*
G75*
G02*
X57924200Y-109065000I0J50800D01*
G01*
X57924200Y-108265000D01*
G75*
G02*
X57975000Y-108214200I50800J0D01*
G01*
X58875000Y-108214200D01*
G75*
G02*
X58925800Y-108265000I0J-50800D01*
G01*
G37*
G36*
G01*
X60925800Y-109215000D02*
X60925800Y-110015000D01*
G75*
G02*
X60875000Y-110065800I-50800J0D01*
G01*
X59975000Y-110065800D01*
G75*
G02*
X59924200Y-110015000I0J50800D01*
G01*
X59924200Y-109215000D01*
G75*
G02*
X59975000Y-109164200I50800J0D01*
G01*
X60875000Y-109164200D01*
G75*
G02*
X60925800Y-109215000I0J-50800D01*
G01*
G37*
G36*
G01*
X60925800Y-107315000D02*
X60925800Y-108115000D01*
G75*
G02*
X60875000Y-108165800I-50800J0D01*
G01*
X59975000Y-108165800D01*
G75*
G02*
X59924200Y-108115000I0J50800D01*
G01*
X59924200Y-107315000D01*
G75*
G02*
X59975000Y-107264200I50800J0D01*
G01*
X60875000Y-107264200D01*
G75*
G02*
X60925800Y-107315000I0J-50800D01*
G01*
G37*
G04 #@! TD*
G04 #@! TO.C,Q2*
G36*
G01*
X56367500Y-101364200D02*
X57167500Y-101364200D01*
G75*
G02*
X57218300Y-101415000I0J-50800D01*
G01*
X57218300Y-102315000D01*
G75*
G02*
X57167500Y-102365800I-50800J0D01*
G01*
X56367500Y-102365800D01*
G75*
G02*
X56316700Y-102315000I0J50800D01*
G01*
X56316700Y-101415000D01*
G75*
G02*
X56367500Y-101364200I50800J0D01*
G01*
G37*
G36*
G01*
X57317500Y-99364200D02*
X58117500Y-99364200D01*
G75*
G02*
X58168300Y-99415000I0J-50800D01*
G01*
X58168300Y-100315000D01*
G75*
G02*
X58117500Y-100365800I-50800J0D01*
G01*
X57317500Y-100365800D01*
G75*
G02*
X57266700Y-100315000I0J50800D01*
G01*
X57266700Y-99415000D01*
G75*
G02*
X57317500Y-99364200I50800J0D01*
G01*
G37*
G36*
G01*
X55417500Y-99364200D02*
X56217500Y-99364200D01*
G75*
G02*
X56268300Y-99415000I0J-50800D01*
G01*
X56268300Y-100315000D01*
G75*
G02*
X56217500Y-100365800I-50800J0D01*
G01*
X55417500Y-100365800D01*
G75*
G02*
X55366700Y-100315000I0J50800D01*
G01*
X55366700Y-99415000D01*
G75*
G02*
X55417500Y-99364200I50800J0D01*
G01*
G37*
G04 #@! TD*
G04 #@! TO.C,J4*
G36*
G01*
X75769200Y-70392500D02*
X75769200Y-68692500D01*
G75*
G02*
X75820000Y-68641700I50800J0D01*
G01*
X77520000Y-68641700D01*
G75*
G02*
X77570800Y-68692500I0J-50800D01*
G01*
X77570800Y-70392500D01*
G75*
G02*
X77520000Y-70443300I-50800J0D01*
G01*
X75820000Y-70443300D01*
G75*
G02*
X75769200Y-70392500I0J50800D01*
G01*
G37*
G04 #@! TD*
G04 #@! TO.C,F3*
G36*
G01*
X67199200Y-125192976D02*
X67199200Y-123877024D01*
G75*
G02*
X67467024Y-123609200I267824J0D01*
G01*
X68457976Y-123609200D01*
G75*
G02*
X68725800Y-123877024I0J-267824D01*
G01*
X68725800Y-125192976D01*
G75*
G02*
X68457976Y-125460800I-267824J0D01*
G01*
X67467024Y-125460800D01*
G75*
G02*
X67199200Y-125192976I0J267824D01*
G01*
G37*
G36*
G01*
X64224200Y-125192976D02*
X64224200Y-123877024D01*
G75*
G02*
X64492024Y-123609200I267824J0D01*
G01*
X65482976Y-123609200D01*
G75*
G02*
X65750800Y-123877024I0J-267824D01*
G01*
X65750800Y-125192976D01*
G75*
G02*
X65482976Y-125460800I-267824J0D01*
G01*
X64492024Y-125460800D01*
G75*
G02*
X64224200Y-125192976I0J267824D01*
G01*
G37*
G04 #@! TD*
G04 #@! TO.C,F2*
G36*
G01*
X82970800Y-123744524D02*
X82970800Y-125060476D01*
G75*
G02*
X82702976Y-125328300I-267824J0D01*
G01*
X81712024Y-125328300D01*
G75*
G02*
X81444200Y-125060476I0J267824D01*
G01*
X81444200Y-123744524D01*
G75*
G02*
X81712024Y-123476700I267824J0D01*
G01*
X82702976Y-123476700D01*
G75*
G02*
X82970800Y-123744524I0J-267824D01*
G01*
G37*
G36*
G01*
X85945800Y-123744524D02*
X85945800Y-125060476D01*
G75*
G02*
X85677976Y-125328300I-267824J0D01*
G01*
X84687024Y-125328300D01*
G75*
G02*
X84419200Y-125060476I0J267824D01*
G01*
X84419200Y-123744524D01*
G75*
G02*
X84687024Y-123476700I267824J0D01*
G01*
X85677976Y-123476700D01*
G75*
G02*
X85945800Y-123744524I0J-267824D01*
G01*
G37*
G04 #@! TD*
G04 #@! TO.C,D7*
G36*
G01*
X74936215Y-104440800D02*
X73978785Y-104440800D01*
G75*
G02*
X73706700Y-104168715I0J272085D01*
G01*
X73706700Y-103461285D01*
G75*
G02*
X73978785Y-103189200I272085J0D01*
G01*
X74936215Y-103189200D01*
G75*
G02*
X75208300Y-103461285I0J-272085D01*
G01*
X75208300Y-104168715D01*
G75*
G02*
X74936215Y-104440800I-272085J0D01*
G01*
G37*
G36*
G01*
X74936215Y-106490800D02*
X73978785Y-106490800D01*
G75*
G02*
X73706700Y-106218715I0J272085D01*
G01*
X73706700Y-105511285D01*
G75*
G02*
X73978785Y-105239200I272085J0D01*
G01*
X74936215Y-105239200D01*
G75*
G02*
X75208300Y-105511285I0J-272085D01*
G01*
X75208300Y-106218715D01*
G75*
G02*
X74936215Y-106490800I-272085J0D01*
G01*
G37*
G04 #@! TD*
G04 #@! TO.C,D6*
G36*
G01*
X76891215Y-104448300D02*
X75933785Y-104448300D01*
G75*
G02*
X75661700Y-104176215I0J272085D01*
G01*
X75661700Y-103468785D01*
G75*
G02*
X75933785Y-103196700I272085J0D01*
G01*
X76891215Y-103196700D01*
G75*
G02*
X77163300Y-103468785I0J-272085D01*
G01*
X77163300Y-104176215D01*
G75*
G02*
X76891215Y-104448300I-272085J0D01*
G01*
G37*
G36*
G01*
X76891215Y-106498300D02*
X75933785Y-106498300D01*
G75*
G02*
X75661700Y-106226215I0J272085D01*
G01*
X75661700Y-105518785D01*
G75*
G02*
X75933785Y-105246700I272085J0D01*
G01*
X76891215Y-105246700D01*
G75*
G02*
X77163300Y-105518785I0J-272085D01*
G01*
X77163300Y-106226215D01*
G75*
G02*
X76891215Y-106498300I-272085J0D01*
G01*
G37*
G04 #@! TD*
G04 #@! TO.C,C47*
G36*
G01*
X92676683Y-90550800D02*
X91668317Y-90550800D01*
G75*
G02*
X91396700Y-90279183I0J271617D01*
G01*
X91396700Y-89545817D01*
G75*
G02*
X91668317Y-89274200I271617J0D01*
G01*
X92676683Y-89274200D01*
G75*
G02*
X92948300Y-89545817I0J-271617D01*
G01*
X92948300Y-90279183D01*
G75*
G02*
X92676683Y-90550800I-271617J0D01*
G01*
G37*
G36*
G01*
X92676683Y-92625800D02*
X91668317Y-92625800D01*
G75*
G02*
X91396700Y-92354183I0J271617D01*
G01*
X91396700Y-91620817D01*
G75*
G02*
X91668317Y-91349200I271617J0D01*
G01*
X92676683Y-91349200D01*
G75*
G02*
X92948300Y-91620817I0J-271617D01*
G01*
X92948300Y-92354183D01*
G75*
G02*
X92676683Y-92625800I-271617J0D01*
G01*
G37*
G04 #@! TD*
G04 #@! TO.C,C46*
G36*
G01*
X98841683Y-77093300D02*
X97833317Y-77093300D01*
G75*
G02*
X97561700Y-76821683I0J271617D01*
G01*
X97561700Y-76088317D01*
G75*
G02*
X97833317Y-75816700I271617J0D01*
G01*
X98841683Y-75816700D01*
G75*
G02*
X99113300Y-76088317I0J-271617D01*
G01*
X99113300Y-76821683D01*
G75*
G02*
X98841683Y-77093300I-271617J0D01*
G01*
G37*
G36*
G01*
X98841683Y-79168300D02*
X97833317Y-79168300D01*
G75*
G02*
X97561700Y-78896683I0J271617D01*
G01*
X97561700Y-78163317D01*
G75*
G02*
X97833317Y-77891700I271617J0D01*
G01*
X98841683Y-77891700D01*
G75*
G02*
X99113300Y-78163317I0J-271617D01*
G01*
X99113300Y-78896683D01*
G75*
G02*
X98841683Y-79168300I-271617J0D01*
G01*
G37*
G04 #@! TD*
G04 #@! TO.C,C39*
G36*
G01*
X72924183Y-100658300D02*
X71915817Y-100658300D01*
G75*
G02*
X71644200Y-100386683I0J271617D01*
G01*
X71644200Y-99653317D01*
G75*
G02*
X71915817Y-99381700I271617J0D01*
G01*
X72924183Y-99381700D01*
G75*
G02*
X73195800Y-99653317I0J-271617D01*
G01*
X73195800Y-100386683D01*
G75*
G02*
X72924183Y-100658300I-271617J0D01*
G01*
G37*
G36*
G01*
X72924183Y-102733300D02*
X71915817Y-102733300D01*
G75*
G02*
X71644200Y-102461683I0J271617D01*
G01*
X71644200Y-101728317D01*
G75*
G02*
X71915817Y-101456700I271617J0D01*
G01*
X72924183Y-101456700D01*
G75*
G02*
X73195800Y-101728317I0J-271617D01*
G01*
X73195800Y-102461683D01*
G75*
G02*
X72924183Y-102733300I-271617J0D01*
G01*
G37*
G04 #@! TD*
G04 #@! TO.C,C37*
G36*
G01*
X67870800Y-127500817D02*
X67870800Y-128509183D01*
G75*
G02*
X67599183Y-128780800I-271617J0D01*
G01*
X66865817Y-128780800D01*
G75*
G02*
X66594200Y-128509183I0J271617D01*
G01*
X66594200Y-127500817D01*
G75*
G02*
X66865817Y-127229200I271617J0D01*
G01*
X67599183Y-127229200D01*
G75*
G02*
X67870800Y-127500817I0J-271617D01*
G01*
G37*
G36*
G01*
X69945800Y-127500817D02*
X69945800Y-128509183D01*
G75*
G02*
X69674183Y-128780800I-271617J0D01*
G01*
X68940817Y-128780800D01*
G75*
G02*
X68669200Y-128509183I0J271617D01*
G01*
X68669200Y-127500817D01*
G75*
G02*
X68940817Y-127229200I271617J0D01*
G01*
X69674183Y-127229200D01*
G75*
G02*
X69945800Y-127500817I0J-271617D01*
G01*
G37*
G04 #@! TD*
G04 #@! TO.C,C31*
G36*
G01*
X66603317Y-116936700D02*
X67611683Y-116936700D01*
G75*
G02*
X67883300Y-117208317I0J-271617D01*
G01*
X67883300Y-117941683D01*
G75*
G02*
X67611683Y-118213300I-271617J0D01*
G01*
X66603317Y-118213300D01*
G75*
G02*
X66331700Y-117941683I0J271617D01*
G01*
X66331700Y-117208317D01*
G75*
G02*
X66603317Y-116936700I271617J0D01*
G01*
G37*
G36*
G01*
X66603317Y-114861700D02*
X67611683Y-114861700D01*
G75*
G02*
X67883300Y-115133317I0J-271617D01*
G01*
X67883300Y-115866683D01*
G75*
G02*
X67611683Y-116138300I-271617J0D01*
G01*
X66603317Y-116138300D01*
G75*
G02*
X66331700Y-115866683I0J271617D01*
G01*
X66331700Y-115133317D01*
G75*
G02*
X66603317Y-114861700I271617J0D01*
G01*
G37*
G04 #@! TD*
G04 #@! TO.C,C30*
G36*
G01*
X89811700Y-88506683D02*
X89811700Y-87498317D01*
G75*
G02*
X90083317Y-87226700I271617J0D01*
G01*
X90816683Y-87226700D01*
G75*
G02*
X91088300Y-87498317I0J-271617D01*
G01*
X91088300Y-88506683D01*
G75*
G02*
X90816683Y-88778300I-271617J0D01*
G01*
X90083317Y-88778300D01*
G75*
G02*
X89811700Y-88506683I0J271617D01*
G01*
G37*
G36*
G01*
X87736700Y-88506683D02*
X87736700Y-87498317D01*
G75*
G02*
X88008317Y-87226700I271617J0D01*
G01*
X88741683Y-87226700D01*
G75*
G02*
X89013300Y-87498317I0J-271617D01*
G01*
X89013300Y-88506683D01*
G75*
G02*
X88741683Y-88778300I-271617J0D01*
G01*
X88008317Y-88778300D01*
G75*
G02*
X87736700Y-88506683I0J271617D01*
G01*
G37*
G04 #@! TD*
G04 #@! TO.C,C29*
G36*
G01*
X96129600Y-95949200D02*
X96655400Y-95949200D01*
G75*
G02*
X96918300Y-96212100I0J-262900D01*
G01*
X96918300Y-96862900D01*
G75*
G02*
X96655400Y-97125800I-262900J0D01*
G01*
X96129600Y-97125800D01*
G75*
G02*
X95866700Y-96862900I0J262900D01*
G01*
X95866700Y-96212100D01*
G75*
G02*
X96129600Y-95949200I262900J0D01*
G01*
G37*
G36*
G01*
X96129600Y-94224200D02*
X96655400Y-94224200D01*
G75*
G02*
X96918300Y-94487100I0J-262900D01*
G01*
X96918300Y-95137900D01*
G75*
G02*
X96655400Y-95400800I-262900J0D01*
G01*
X96129600Y-95400800D01*
G75*
G02*
X95866700Y-95137900I0J262900D01*
G01*
X95866700Y-94487100D01*
G75*
G02*
X96129600Y-94224200I262900J0D01*
G01*
G37*
G04 #@! TD*
G04 #@! TO.C,C28*
G36*
G01*
X92987900Y-82115800D02*
X92462100Y-82115800D01*
G75*
G02*
X92199200Y-81852900I0J262900D01*
G01*
X92199200Y-81202100D01*
G75*
G02*
X92462100Y-80939200I262900J0D01*
G01*
X92987900Y-80939200D01*
G75*
G02*
X93250800Y-81202100I0J-262900D01*
G01*
X93250800Y-81852900D01*
G75*
G02*
X92987900Y-82115800I-262900J0D01*
G01*
G37*
G36*
G01*
X92987900Y-83840800D02*
X92462100Y-83840800D01*
G75*
G02*
X92199200Y-83577900I0J262900D01*
G01*
X92199200Y-82927100D01*
G75*
G02*
X92462100Y-82664200I262900J0D01*
G01*
X92987900Y-82664200D01*
G75*
G02*
X93250800Y-82927100I0J-262900D01*
G01*
X93250800Y-83577900D01*
G75*
G02*
X92987900Y-83840800I-262900J0D01*
G01*
G37*
G04 #@! TD*
G04 #@! TO.C,C26*
G36*
G01*
X98042100Y-95949200D02*
X98567900Y-95949200D01*
G75*
G02*
X98830800Y-96212100I0J-262900D01*
G01*
X98830800Y-96862900D01*
G75*
G02*
X98567900Y-97125800I-262900J0D01*
G01*
X98042100Y-97125800D01*
G75*
G02*
X97779200Y-96862900I0J262900D01*
G01*
X97779200Y-96212100D01*
G75*
G02*
X98042100Y-95949200I262900J0D01*
G01*
G37*
G36*
G01*
X98042100Y-94224200D02*
X98567900Y-94224200D01*
G75*
G02*
X98830800Y-94487100I0J-262900D01*
G01*
X98830800Y-95137900D01*
G75*
G02*
X98567900Y-95400800I-262900J0D01*
G01*
X98042100Y-95400800D01*
G75*
G02*
X97779200Y-95137900I0J262900D01*
G01*
X97779200Y-94487100D01*
G75*
G02*
X98042100Y-94224200I262900J0D01*
G01*
G37*
G04 #@! TD*
G04 #@! TO.C,C25*
G36*
G01*
X91457900Y-82120800D02*
X90932100Y-82120800D01*
G75*
G02*
X90669200Y-81857900I0J262900D01*
G01*
X90669200Y-81207100D01*
G75*
G02*
X90932100Y-80944200I262900J0D01*
G01*
X91457900Y-80944200D01*
G75*
G02*
X91720800Y-81207100I0J-262900D01*
G01*
X91720800Y-81857900D01*
G75*
G02*
X91457900Y-82120800I-262900J0D01*
G01*
G37*
G36*
G01*
X91457900Y-83845800D02*
X90932100Y-83845800D01*
G75*
G02*
X90669200Y-83582900I0J262900D01*
G01*
X90669200Y-82932100D01*
G75*
G02*
X90932100Y-82669200I262900J0D01*
G01*
X91457900Y-82669200D01*
G75*
G02*
X91720800Y-82932100I0J-262900D01*
G01*
X91720800Y-83582900D01*
G75*
G02*
X91457900Y-83845800I-262900J0D01*
G01*
G37*
G04 #@! TD*
G04 #@! TO.C,C22*
G36*
G01*
X95837500Y-59198517D02*
X95837500Y-60206883D01*
G75*
G02*
X95565883Y-60478500I-271617J0D01*
G01*
X94832517Y-60478500D01*
G75*
G02*
X94560900Y-60206883I0J271617D01*
G01*
X94560900Y-59198517D01*
G75*
G02*
X94832517Y-58926900I271617J0D01*
G01*
X95565883Y-58926900D01*
G75*
G02*
X95837500Y-59198517I0J-271617D01*
G01*
G37*
G36*
G01*
X97912500Y-59198517D02*
X97912500Y-60206883D01*
G75*
G02*
X97640883Y-60478500I-271617J0D01*
G01*
X96907517Y-60478500D01*
G75*
G02*
X96635900Y-60206883I0J271617D01*
G01*
X96635900Y-59198517D01*
G75*
G02*
X96907517Y-58926900I271617J0D01*
G01*
X97640883Y-58926900D01*
G75*
G02*
X97912500Y-59198517I0J-271617D01*
G01*
G37*
G04 #@! TD*
G04 #@! TO.C,C20*
G36*
G01*
X67518300Y-111790866D02*
X67518300Y-114054134D01*
G75*
G02*
X67249134Y-114323300I-269166J0D01*
G01*
X66360866Y-114323300D01*
G75*
G02*
X66091700Y-114054134I0J269166D01*
G01*
X66091700Y-111790866D01*
G75*
G02*
X66360866Y-111521700I269166J0D01*
G01*
X67249134Y-111521700D01*
G75*
G02*
X67518300Y-111790866I0J-269166D01*
G01*
G37*
G36*
G01*
X70643300Y-111790866D02*
X70643300Y-114054134D01*
G75*
G02*
X70374134Y-114323300I-269166J0D01*
G01*
X69485866Y-114323300D01*
G75*
G02*
X69216700Y-114054134I0J269166D01*
G01*
X69216700Y-111790866D01*
G75*
G02*
X69485866Y-111521700I269166J0D01*
G01*
X70374134Y-111521700D01*
G75*
G02*
X70643300Y-111790866I0J-269166D01*
G01*
G37*
G04 #@! TD*
G04 #@! TO.C,C19*
G36*
G01*
X71030800Y-97598317D02*
X71030800Y-98606683D01*
G75*
G02*
X70759183Y-98878300I-271617J0D01*
G01*
X70025817Y-98878300D01*
G75*
G02*
X69754200Y-98606683I0J271617D01*
G01*
X69754200Y-97598317D01*
G75*
G02*
X70025817Y-97326700I271617J0D01*
G01*
X70759183Y-97326700D01*
G75*
G02*
X71030800Y-97598317I0J-271617D01*
G01*
G37*
G36*
G01*
X73105800Y-97598317D02*
X73105800Y-98606683D01*
G75*
G02*
X72834183Y-98878300I-271617J0D01*
G01*
X72100817Y-98878300D01*
G75*
G02*
X71829200Y-98606683I0J271617D01*
G01*
X71829200Y-97598317D01*
G75*
G02*
X72100817Y-97326700I271617J0D01*
G01*
X72834183Y-97326700D01*
G75*
G02*
X73105800Y-97598317I0J-271617D01*
G01*
G37*
G04 #@! TD*
G04 #@! TO.C,C18*
G36*
G01*
X95841400Y-57128417D02*
X95841400Y-58136783D01*
G75*
G02*
X95569783Y-58408400I-271617J0D01*
G01*
X94836417Y-58408400D01*
G75*
G02*
X94564800Y-58136783I0J271617D01*
G01*
X94564800Y-57128417D01*
G75*
G02*
X94836417Y-56856800I271617J0D01*
G01*
X95569783Y-56856800D01*
G75*
G02*
X95841400Y-57128417I0J-271617D01*
G01*
G37*
G36*
G01*
X97916400Y-57128417D02*
X97916400Y-58136783D01*
G75*
G02*
X97644783Y-58408400I-271617J0D01*
G01*
X96911417Y-58408400D01*
G75*
G02*
X96639800Y-58136783I0J271617D01*
G01*
X96639800Y-57128417D01*
G75*
G02*
X96911417Y-56856800I271617J0D01*
G01*
X97644783Y-56856800D01*
G75*
G02*
X97916400Y-57128417I0J-271617D01*
G01*
G37*
G04 #@! TD*
G04 #@! TO.C,C14*
G36*
G01*
X64316700Y-74864183D02*
X64316700Y-73855817D01*
G75*
G02*
X64588317Y-73584200I271617J0D01*
G01*
X65321683Y-73584200D01*
G75*
G02*
X65593300Y-73855817I0J-271617D01*
G01*
X65593300Y-74864183D01*
G75*
G02*
X65321683Y-75135800I-271617J0D01*
G01*
X64588317Y-75135800D01*
G75*
G02*
X64316700Y-74864183I0J271617D01*
G01*
G37*
G36*
G01*
X62241700Y-74864183D02*
X62241700Y-73855817D01*
G75*
G02*
X62513317Y-73584200I271617J0D01*
G01*
X63246683Y-73584200D01*
G75*
G02*
X63518300Y-73855817I0J-271617D01*
G01*
X63518300Y-74864183D01*
G75*
G02*
X63246683Y-75135800I-271617J0D01*
G01*
X62513317Y-75135800D01*
G75*
G02*
X62241700Y-74864183I0J271617D01*
G01*
G37*
G04 #@! TD*
G04 #@! TO.C,C6*
G36*
G01*
X59078317Y-103314200D02*
X60086683Y-103314200D01*
G75*
G02*
X60358300Y-103585817I0J-271617D01*
G01*
X60358300Y-104319183D01*
G75*
G02*
X60086683Y-104590800I-271617J0D01*
G01*
X59078317Y-104590800D01*
G75*
G02*
X58806700Y-104319183I0J271617D01*
G01*
X58806700Y-103585817D01*
G75*
G02*
X59078317Y-103314200I271617J0D01*
G01*
G37*
G36*
G01*
X59078317Y-101239200D02*
X60086683Y-101239200D01*
G75*
G02*
X60358300Y-101510817I0J-271617D01*
G01*
X60358300Y-102244183D01*
G75*
G02*
X60086683Y-102515800I-271617J0D01*
G01*
X59078317Y-102515800D01*
G75*
G02*
X58806700Y-102244183I0J271617D01*
G01*
X58806700Y-101510817D01*
G75*
G02*
X59078317Y-101239200I271617J0D01*
G01*
G37*
G04 #@! TD*
G04 #@! TO.C,C3*
G36*
G01*
X74179843Y-116720740D02*
X73171477Y-116720740D01*
G75*
G02*
X72899860Y-116449123I0J271617D01*
G01*
X72899860Y-115715757D01*
G75*
G02*
X73171477Y-115444140I271617J0D01*
G01*
X74179843Y-115444140D01*
G75*
G02*
X74451460Y-115715757I0J-271617D01*
G01*
X74451460Y-116449123D01*
G75*
G02*
X74179843Y-116720740I-271617J0D01*
G01*
G37*
G36*
G01*
X74179843Y-118795740D02*
X73171477Y-118795740D01*
G75*
G02*
X72899860Y-118524123I0J271617D01*
G01*
X72899860Y-117790757D01*
G75*
G02*
X73171477Y-117519140I271617J0D01*
G01*
X74179843Y-117519140D01*
G75*
G02*
X74451460Y-117790757I0J-271617D01*
G01*
X74451460Y-118524123D01*
G75*
G02*
X74179843Y-118795740I-271617J0D01*
G01*
G37*
G04 #@! TD*
G04 #@! TO.C,C2*
G36*
G01*
X75498117Y-117773340D02*
X76506483Y-117773340D01*
G75*
G02*
X76778100Y-118044957I0J-271617D01*
G01*
X76778100Y-118778323D01*
G75*
G02*
X76506483Y-119049940I-271617J0D01*
G01*
X75498117Y-119049940D01*
G75*
G02*
X75226500Y-118778323I0J271617D01*
G01*
X75226500Y-118044957D01*
G75*
G02*
X75498117Y-117773340I271617J0D01*
G01*
G37*
G36*
G01*
X75498117Y-115698340D02*
X76506483Y-115698340D01*
G75*
G02*
X76778100Y-115969957I0J-271617D01*
G01*
X76778100Y-116703323D01*
G75*
G02*
X76506483Y-116974940I-271617J0D01*
G01*
X75498117Y-116974940D01*
G75*
G02*
X75226500Y-116703323I0J271617D01*
G01*
X75226500Y-115969957D01*
G75*
G02*
X75498117Y-115698340I271617J0D01*
G01*
G37*
G04 #@! TD*
D15*
G36*
X70750932Y-118188200D02*
G01*
X70751200Y-118189200D01*
X70751200Y-119350800D01*
X70750200Y-119352532D01*
X70749200Y-119352800D01*
X70600800Y-119352800D01*
X70599068Y-119351800D01*
X70598800Y-119350800D01*
X70598800Y-118191200D01*
X70101200Y-118191200D01*
X70101200Y-119350800D01*
X70100200Y-119352532D01*
X70099200Y-119352800D01*
X69940800Y-119352800D01*
X69939068Y-119351800D01*
X69938800Y-119350800D01*
X69938800Y-118191200D01*
X69441200Y-118191200D01*
X69441200Y-119350800D01*
X69440200Y-119352532D01*
X69439200Y-119352800D01*
X69290800Y-119352800D01*
X69289068Y-119351800D01*
X69288800Y-119350800D01*
X69288800Y-118189200D01*
X69289800Y-118187468D01*
X69290800Y-118187200D01*
X70749200Y-118187200D01*
X70750932Y-118188200D01*
G37*
G36*
X70750932Y-115988200D02*
G01*
X70751200Y-115989200D01*
X70751200Y-117150800D01*
X70750200Y-117152532D01*
X70749200Y-117152800D01*
X70600800Y-117152800D01*
X70599068Y-117151800D01*
X70598800Y-117150800D01*
X70598800Y-115991200D01*
X70101200Y-115991200D01*
X70101200Y-117150800D01*
X70100200Y-117152532D01*
X70099200Y-117152800D01*
X69940800Y-117152800D01*
X69939068Y-117151800D01*
X69938800Y-117150800D01*
X69938800Y-115991200D01*
X69441200Y-115991200D01*
X69441200Y-117150800D01*
X69440200Y-117152532D01*
X69439200Y-117152800D01*
X69290800Y-117152800D01*
X69289068Y-117151800D01*
X69288800Y-117150800D01*
X69288800Y-115989200D01*
X69289800Y-115987468D01*
X69290800Y-115987200D01*
X70749200Y-115987200D01*
X70750932Y-115988200D01*
G37*
G36*
X77575686Y-113369710D02*
G01*
X77587896Y-113370913D01*
X77588280Y-113370989D01*
X77595297Y-113373117D01*
X77595660Y-113373267D01*
X77602131Y-113376726D01*
X77602457Y-113376944D01*
X77608126Y-113381597D01*
X77608403Y-113381874D01*
X77616688Y-113391968D01*
X77630338Y-113405617D01*
X77646311Y-113416289D01*
X77664057Y-113423639D01*
X77682901Y-113427387D01*
X77702106Y-113427386D01*
X77720949Y-113423637D01*
X77738695Y-113416286D01*
X77754667Y-113405613D01*
X77768312Y-113391968D01*
X77776597Y-113381874D01*
X77776874Y-113381597D01*
X77782543Y-113376944D01*
X77782869Y-113376726D01*
X77789340Y-113373267D01*
X77789703Y-113373117D01*
X77796720Y-113370989D01*
X77797104Y-113370913D01*
X77809314Y-113369710D01*
X77809510Y-113369700D01*
X77854600Y-113369700D01*
X77856332Y-113370700D01*
X77856332Y-113372700D01*
X77854796Y-113373690D01*
X77837847Y-113375359D01*
X77821731Y-113380248D01*
X77806881Y-113388185D01*
X77793866Y-113398866D01*
X77783185Y-113411881D01*
X77775248Y-113426731D01*
X77770359Y-113442847D01*
X77768700Y-113459694D01*
X77768700Y-114185306D01*
X77770359Y-114202153D01*
X77775248Y-114218269D01*
X77783185Y-114233119D01*
X77793866Y-114246134D01*
X77806881Y-114256815D01*
X77821731Y-114264752D01*
X77837847Y-114269641D01*
X77854796Y-114271310D01*
X77856422Y-114272475D01*
X77856226Y-114274465D01*
X77854600Y-114275300D01*
X77809510Y-114275300D01*
X77809314Y-114275290D01*
X77797104Y-114274087D01*
X77796720Y-114274011D01*
X77789703Y-114271883D01*
X77789340Y-114271733D01*
X77782869Y-114268274D01*
X77782543Y-114268056D01*
X77776874Y-114263403D01*
X77776597Y-114263126D01*
X77768312Y-114253032D01*
X77754662Y-114239383D01*
X77738689Y-114228711D01*
X77720943Y-114221361D01*
X77702099Y-114217613D01*
X77682894Y-114217614D01*
X77664051Y-114221363D01*
X77646305Y-114228714D01*
X77630333Y-114239387D01*
X77616688Y-114253032D01*
X77608403Y-114263126D01*
X77608126Y-114263403D01*
X77602457Y-114268056D01*
X77602131Y-114268274D01*
X77595660Y-114271733D01*
X77595297Y-114271883D01*
X77588280Y-114274011D01*
X77587896Y-114274087D01*
X77575686Y-114275290D01*
X77575490Y-114275300D01*
X77530400Y-114275300D01*
X77528668Y-114274300D01*
X77528668Y-114272300D01*
X77530204Y-114271310D01*
X77547153Y-114269641D01*
X77563269Y-114264752D01*
X77578119Y-114256815D01*
X77591134Y-114246134D01*
X77601815Y-114233119D01*
X77609752Y-114218269D01*
X77614641Y-114202153D01*
X77616300Y-114185306D01*
X77616300Y-113459694D01*
X77614641Y-113442847D01*
X77609752Y-113426731D01*
X77601815Y-113411881D01*
X77591134Y-113398866D01*
X77578119Y-113388185D01*
X77563269Y-113380248D01*
X77547153Y-113375359D01*
X77530204Y-113373690D01*
X77528578Y-113372525D01*
X77528774Y-113370535D01*
X77530400Y-113369700D01*
X77575490Y-113369700D01*
X77575686Y-113369710D01*
G37*
G36*
X76575686Y-113369710D02*
G01*
X76587896Y-113370913D01*
X76588280Y-113370989D01*
X76595297Y-113373117D01*
X76595660Y-113373267D01*
X76602131Y-113376726D01*
X76602457Y-113376944D01*
X76608126Y-113381597D01*
X76608403Y-113381874D01*
X76616688Y-113391968D01*
X76630338Y-113405617D01*
X76646311Y-113416289D01*
X76664057Y-113423639D01*
X76682901Y-113427387D01*
X76702106Y-113427386D01*
X76720949Y-113423637D01*
X76738695Y-113416286D01*
X76754667Y-113405613D01*
X76768312Y-113391968D01*
X76776597Y-113381874D01*
X76776874Y-113381597D01*
X76782543Y-113376944D01*
X76782869Y-113376726D01*
X76789340Y-113373267D01*
X76789703Y-113373117D01*
X76796720Y-113370989D01*
X76797104Y-113370913D01*
X76809314Y-113369710D01*
X76809510Y-113369700D01*
X76854600Y-113369700D01*
X76856332Y-113370700D01*
X76856332Y-113372700D01*
X76854796Y-113373690D01*
X76837847Y-113375359D01*
X76821731Y-113380248D01*
X76806881Y-113388185D01*
X76793866Y-113398866D01*
X76783185Y-113411881D01*
X76775248Y-113426731D01*
X76770359Y-113442847D01*
X76768700Y-113459694D01*
X76768700Y-114185306D01*
X76770359Y-114202153D01*
X76775248Y-114218269D01*
X76783185Y-114233119D01*
X76793866Y-114246134D01*
X76806881Y-114256815D01*
X76821731Y-114264752D01*
X76837847Y-114269641D01*
X76854796Y-114271310D01*
X76856422Y-114272475D01*
X76856226Y-114274465D01*
X76854600Y-114275300D01*
X76809510Y-114275300D01*
X76809314Y-114275290D01*
X76797104Y-114274087D01*
X76796720Y-114274011D01*
X76789703Y-114271883D01*
X76789340Y-114271733D01*
X76782869Y-114268274D01*
X76782543Y-114268056D01*
X76776874Y-114263403D01*
X76776597Y-114263126D01*
X76768312Y-114253032D01*
X76754662Y-114239383D01*
X76738689Y-114228711D01*
X76720943Y-114221361D01*
X76702099Y-114217613D01*
X76682894Y-114217614D01*
X76664051Y-114221363D01*
X76646305Y-114228714D01*
X76630333Y-114239387D01*
X76616688Y-114253032D01*
X76608403Y-114263126D01*
X76608126Y-114263403D01*
X76602457Y-114268056D01*
X76602131Y-114268274D01*
X76595660Y-114271733D01*
X76595297Y-114271883D01*
X76588280Y-114274011D01*
X76587896Y-114274087D01*
X76575686Y-114275290D01*
X76575490Y-114275300D01*
X76530400Y-114275300D01*
X76528668Y-114274300D01*
X76528668Y-114272300D01*
X76530204Y-114271310D01*
X76547153Y-114269641D01*
X76563269Y-114264752D01*
X76578119Y-114256815D01*
X76591134Y-114246134D01*
X76601815Y-114233119D01*
X76609752Y-114218269D01*
X76614641Y-114202153D01*
X76616300Y-114185306D01*
X76616300Y-113459694D01*
X76614641Y-113442847D01*
X76609752Y-113426731D01*
X76601815Y-113411881D01*
X76591134Y-113398866D01*
X76578119Y-113388185D01*
X76563269Y-113380248D01*
X76547153Y-113375359D01*
X76530204Y-113373690D01*
X76528578Y-113372525D01*
X76528774Y-113370535D01*
X76530400Y-113369700D01*
X76575490Y-113369700D01*
X76575686Y-113369710D01*
G37*
G36*
X78075686Y-113369710D02*
G01*
X78087896Y-113370913D01*
X78088280Y-113370989D01*
X78095297Y-113373117D01*
X78095660Y-113373267D01*
X78102131Y-113376726D01*
X78102457Y-113376944D01*
X78108126Y-113381597D01*
X78108403Y-113381874D01*
X78116688Y-113391968D01*
X78130338Y-113405617D01*
X78146311Y-113416289D01*
X78164057Y-113423639D01*
X78182901Y-113427387D01*
X78202106Y-113427386D01*
X78220949Y-113423637D01*
X78238695Y-113416286D01*
X78254667Y-113405613D01*
X78268312Y-113391968D01*
X78276597Y-113381874D01*
X78276874Y-113381597D01*
X78282543Y-113376944D01*
X78282869Y-113376726D01*
X78289340Y-113373267D01*
X78289703Y-113373117D01*
X78296720Y-113370989D01*
X78297104Y-113370913D01*
X78309314Y-113369710D01*
X78309510Y-113369700D01*
X78354600Y-113369700D01*
X78356332Y-113370700D01*
X78356332Y-113372700D01*
X78354796Y-113373690D01*
X78337847Y-113375359D01*
X78321731Y-113380248D01*
X78306881Y-113388185D01*
X78293866Y-113398866D01*
X78283185Y-113411881D01*
X78275248Y-113426731D01*
X78270359Y-113442847D01*
X78268700Y-113459694D01*
X78268700Y-114185306D01*
X78270359Y-114202153D01*
X78275248Y-114218269D01*
X78283185Y-114233119D01*
X78293866Y-114246134D01*
X78306881Y-114256815D01*
X78321731Y-114264752D01*
X78337847Y-114269641D01*
X78354796Y-114271310D01*
X78356422Y-114272475D01*
X78356226Y-114274465D01*
X78354600Y-114275300D01*
X78309510Y-114275300D01*
X78309314Y-114275290D01*
X78297104Y-114274087D01*
X78296720Y-114274011D01*
X78289703Y-114271883D01*
X78289340Y-114271733D01*
X78282869Y-114268274D01*
X78282543Y-114268056D01*
X78276874Y-114263403D01*
X78276597Y-114263126D01*
X78268312Y-114253032D01*
X78254662Y-114239383D01*
X78238689Y-114228711D01*
X78220943Y-114221361D01*
X78202099Y-114217613D01*
X78182894Y-114217614D01*
X78164051Y-114221363D01*
X78146305Y-114228714D01*
X78130333Y-114239387D01*
X78116688Y-114253032D01*
X78108403Y-114263126D01*
X78108126Y-114263403D01*
X78102457Y-114268056D01*
X78102131Y-114268274D01*
X78095660Y-114271733D01*
X78095297Y-114271883D01*
X78088280Y-114274011D01*
X78087896Y-114274087D01*
X78075686Y-114275290D01*
X78075490Y-114275300D01*
X78030400Y-114275300D01*
X78028668Y-114274300D01*
X78028668Y-114272300D01*
X78030204Y-114271310D01*
X78047153Y-114269641D01*
X78063269Y-114264752D01*
X78078119Y-114256815D01*
X78091134Y-114246134D01*
X78101815Y-114233119D01*
X78109752Y-114218269D01*
X78114641Y-114202153D01*
X78116300Y-114185306D01*
X78116300Y-113459694D01*
X78114641Y-113442847D01*
X78109752Y-113426731D01*
X78101815Y-113411881D01*
X78091134Y-113398866D01*
X78078119Y-113388185D01*
X78063269Y-113380248D01*
X78047153Y-113375359D01*
X78030204Y-113373690D01*
X78028578Y-113372525D01*
X78028774Y-113370535D01*
X78030400Y-113369700D01*
X78075490Y-113369700D01*
X78075686Y-113369710D01*
G37*
G36*
X79075686Y-113369710D02*
G01*
X79087896Y-113370913D01*
X79088280Y-113370989D01*
X79095297Y-113373117D01*
X79095660Y-113373267D01*
X79102131Y-113376726D01*
X79102457Y-113376944D01*
X79108126Y-113381597D01*
X79108403Y-113381874D01*
X79116688Y-113391968D01*
X79130338Y-113405617D01*
X79146311Y-113416289D01*
X79164057Y-113423639D01*
X79182901Y-113427387D01*
X79202106Y-113427386D01*
X79220949Y-113423637D01*
X79238695Y-113416286D01*
X79254667Y-113405613D01*
X79268312Y-113391968D01*
X79276597Y-113381874D01*
X79276874Y-113381597D01*
X79282543Y-113376944D01*
X79282869Y-113376726D01*
X79289340Y-113373267D01*
X79289703Y-113373117D01*
X79296720Y-113370989D01*
X79297104Y-113370913D01*
X79309314Y-113369710D01*
X79309510Y-113369700D01*
X79354600Y-113369700D01*
X79356332Y-113370700D01*
X79356332Y-113372700D01*
X79354796Y-113373690D01*
X79337847Y-113375359D01*
X79321731Y-113380248D01*
X79306881Y-113388185D01*
X79293866Y-113398866D01*
X79283185Y-113411881D01*
X79275248Y-113426731D01*
X79270359Y-113442847D01*
X79268700Y-113459694D01*
X79268700Y-114185306D01*
X79270359Y-114202153D01*
X79275248Y-114218269D01*
X79283185Y-114233119D01*
X79293866Y-114246134D01*
X79306881Y-114256815D01*
X79321731Y-114264752D01*
X79337847Y-114269641D01*
X79354796Y-114271310D01*
X79356422Y-114272475D01*
X79356226Y-114274465D01*
X79354600Y-114275300D01*
X79309510Y-114275300D01*
X79309314Y-114275290D01*
X79297104Y-114274087D01*
X79296720Y-114274011D01*
X79289703Y-114271883D01*
X79289340Y-114271733D01*
X79282869Y-114268274D01*
X79282543Y-114268056D01*
X79276874Y-114263403D01*
X79276597Y-114263126D01*
X79268312Y-114253032D01*
X79254662Y-114239383D01*
X79238689Y-114228711D01*
X79220943Y-114221361D01*
X79202099Y-114217613D01*
X79182894Y-114217614D01*
X79164051Y-114221363D01*
X79146305Y-114228714D01*
X79130333Y-114239387D01*
X79116688Y-114253032D01*
X79108403Y-114263126D01*
X79108126Y-114263403D01*
X79102457Y-114268056D01*
X79102131Y-114268274D01*
X79095660Y-114271733D01*
X79095297Y-114271883D01*
X79088280Y-114274011D01*
X79087896Y-114274087D01*
X79075686Y-114275290D01*
X79075490Y-114275300D01*
X79030400Y-114275300D01*
X79028668Y-114274300D01*
X79028668Y-114272300D01*
X79030204Y-114271310D01*
X79047153Y-114269641D01*
X79063269Y-114264752D01*
X79078119Y-114256815D01*
X79091134Y-114246134D01*
X79101815Y-114233119D01*
X79109752Y-114218269D01*
X79114641Y-114202153D01*
X79116300Y-114185306D01*
X79116300Y-113459694D01*
X79114641Y-113442847D01*
X79109752Y-113426731D01*
X79101815Y-113411881D01*
X79091134Y-113398866D01*
X79078119Y-113388185D01*
X79063269Y-113380248D01*
X79047153Y-113375359D01*
X79030204Y-113373690D01*
X79028578Y-113372525D01*
X79028774Y-113370535D01*
X79030400Y-113369700D01*
X79075490Y-113369700D01*
X79075686Y-113369710D01*
G37*
G36*
X77075686Y-113369710D02*
G01*
X77087896Y-113370913D01*
X77088280Y-113370989D01*
X77095297Y-113373117D01*
X77095660Y-113373267D01*
X77102131Y-113376726D01*
X77102457Y-113376944D01*
X77108126Y-113381597D01*
X77108403Y-113381874D01*
X77116688Y-113391968D01*
X77130338Y-113405617D01*
X77146311Y-113416289D01*
X77164057Y-113423639D01*
X77182901Y-113427387D01*
X77202106Y-113427386D01*
X77220949Y-113423637D01*
X77238695Y-113416286D01*
X77254667Y-113405613D01*
X77268312Y-113391968D01*
X77276597Y-113381874D01*
X77276874Y-113381597D01*
X77282543Y-113376944D01*
X77282869Y-113376726D01*
X77289340Y-113373267D01*
X77289703Y-113373117D01*
X77296720Y-113370989D01*
X77297104Y-113370913D01*
X77309314Y-113369710D01*
X77309510Y-113369700D01*
X77354600Y-113369700D01*
X77356332Y-113370700D01*
X77356332Y-113372700D01*
X77354796Y-113373690D01*
X77337847Y-113375359D01*
X77321731Y-113380248D01*
X77306881Y-113388185D01*
X77293866Y-113398866D01*
X77283185Y-113411881D01*
X77275248Y-113426731D01*
X77270359Y-113442847D01*
X77268700Y-113459694D01*
X77268700Y-114185306D01*
X77270359Y-114202153D01*
X77275248Y-114218269D01*
X77283185Y-114233119D01*
X77293866Y-114246134D01*
X77306881Y-114256815D01*
X77321731Y-114264752D01*
X77337847Y-114269641D01*
X77354796Y-114271310D01*
X77356422Y-114272475D01*
X77356226Y-114274465D01*
X77354600Y-114275300D01*
X77309510Y-114275300D01*
X77309314Y-114275290D01*
X77297104Y-114274087D01*
X77296720Y-114274011D01*
X77289703Y-114271883D01*
X77289340Y-114271733D01*
X77282869Y-114268274D01*
X77282543Y-114268056D01*
X77276874Y-114263403D01*
X77276597Y-114263126D01*
X77268312Y-114253032D01*
X77254662Y-114239383D01*
X77238689Y-114228711D01*
X77220943Y-114221361D01*
X77202099Y-114217613D01*
X77182894Y-114217614D01*
X77164051Y-114221363D01*
X77146305Y-114228714D01*
X77130333Y-114239387D01*
X77116688Y-114253032D01*
X77108403Y-114263126D01*
X77108126Y-114263403D01*
X77102457Y-114268056D01*
X77102131Y-114268274D01*
X77095660Y-114271733D01*
X77095297Y-114271883D01*
X77088280Y-114274011D01*
X77087896Y-114274087D01*
X77075686Y-114275290D01*
X77075490Y-114275300D01*
X77030400Y-114275300D01*
X77028668Y-114274300D01*
X77028668Y-114272300D01*
X77030204Y-114271310D01*
X77047153Y-114269641D01*
X77063269Y-114264752D01*
X77078119Y-114256815D01*
X77091134Y-114246134D01*
X77101815Y-114233119D01*
X77109752Y-114218269D01*
X77114641Y-114202153D01*
X77116300Y-114185306D01*
X77116300Y-113459694D01*
X77114641Y-113442847D01*
X77109752Y-113426731D01*
X77101815Y-113411881D01*
X77091134Y-113398866D01*
X77078119Y-113388185D01*
X77063269Y-113380248D01*
X77047153Y-113375359D01*
X77030204Y-113373690D01*
X77028578Y-113372525D01*
X77028774Y-113370535D01*
X77030400Y-113369700D01*
X77075490Y-113369700D01*
X77075686Y-113369710D01*
G37*
G36*
X78575686Y-113369710D02*
G01*
X78587896Y-113370913D01*
X78588280Y-113370989D01*
X78595297Y-113373117D01*
X78595660Y-113373267D01*
X78602131Y-113376726D01*
X78602457Y-113376944D01*
X78608126Y-113381597D01*
X78608403Y-113381874D01*
X78616688Y-113391968D01*
X78630338Y-113405617D01*
X78646311Y-113416289D01*
X78664057Y-113423639D01*
X78682901Y-113427387D01*
X78702106Y-113427386D01*
X78720949Y-113423637D01*
X78738695Y-113416286D01*
X78754667Y-113405613D01*
X78768312Y-113391968D01*
X78776597Y-113381874D01*
X78776874Y-113381597D01*
X78782543Y-113376944D01*
X78782869Y-113376726D01*
X78789340Y-113373267D01*
X78789703Y-113373117D01*
X78796720Y-113370989D01*
X78797104Y-113370913D01*
X78809314Y-113369710D01*
X78809510Y-113369700D01*
X78854600Y-113369700D01*
X78856332Y-113370700D01*
X78856332Y-113372700D01*
X78854796Y-113373690D01*
X78837847Y-113375359D01*
X78821731Y-113380248D01*
X78806881Y-113388185D01*
X78793866Y-113398866D01*
X78783185Y-113411881D01*
X78775248Y-113426731D01*
X78770359Y-113442847D01*
X78768700Y-113459694D01*
X78768700Y-114185306D01*
X78770359Y-114202153D01*
X78775248Y-114218269D01*
X78783185Y-114233119D01*
X78793866Y-114246134D01*
X78806881Y-114256815D01*
X78821731Y-114264752D01*
X78837847Y-114269641D01*
X78854796Y-114271310D01*
X78856422Y-114272475D01*
X78856226Y-114274465D01*
X78854600Y-114275300D01*
X78809510Y-114275300D01*
X78809314Y-114275290D01*
X78797104Y-114274087D01*
X78796720Y-114274011D01*
X78789703Y-114271883D01*
X78789340Y-114271733D01*
X78782869Y-114268274D01*
X78782543Y-114268056D01*
X78776874Y-114263403D01*
X78776597Y-114263126D01*
X78768312Y-114253032D01*
X78754662Y-114239383D01*
X78738689Y-114228711D01*
X78720943Y-114221361D01*
X78702099Y-114217613D01*
X78682894Y-114217614D01*
X78664051Y-114221363D01*
X78646305Y-114228714D01*
X78630333Y-114239387D01*
X78616688Y-114253032D01*
X78608403Y-114263126D01*
X78608126Y-114263403D01*
X78602457Y-114268056D01*
X78602131Y-114268274D01*
X78595660Y-114271733D01*
X78595297Y-114271883D01*
X78588280Y-114274011D01*
X78587896Y-114274087D01*
X78575686Y-114275290D01*
X78575490Y-114275300D01*
X78530400Y-114275300D01*
X78528668Y-114274300D01*
X78528668Y-114272300D01*
X78530204Y-114271310D01*
X78547153Y-114269641D01*
X78563269Y-114264752D01*
X78578119Y-114256815D01*
X78591134Y-114246134D01*
X78601815Y-114233119D01*
X78609752Y-114218269D01*
X78614641Y-114202153D01*
X78616300Y-114185306D01*
X78616300Y-113459694D01*
X78614641Y-113442847D01*
X78609752Y-113426731D01*
X78601815Y-113411881D01*
X78591134Y-113398866D01*
X78578119Y-113388185D01*
X78563269Y-113380248D01*
X78547153Y-113375359D01*
X78530204Y-113373690D01*
X78528578Y-113372525D01*
X78528774Y-113370535D01*
X78530400Y-113369700D01*
X78575490Y-113369700D01*
X78575686Y-113369710D01*
G37*
G36*
X75944465Y-112458774D02*
G01*
X75945300Y-112460400D01*
X75945300Y-112505490D01*
X75945290Y-112505686D01*
X75944087Y-112517896D01*
X75944011Y-112518280D01*
X75941883Y-112525297D01*
X75941733Y-112525660D01*
X75938274Y-112532131D01*
X75938056Y-112532457D01*
X75933403Y-112538126D01*
X75933126Y-112538403D01*
X75923032Y-112546688D01*
X75909383Y-112560338D01*
X75898711Y-112576311D01*
X75891361Y-112594057D01*
X75887613Y-112612901D01*
X75887614Y-112632106D01*
X75891363Y-112650949D01*
X75898714Y-112668695D01*
X75909387Y-112684667D01*
X75923032Y-112698312D01*
X75933126Y-112706597D01*
X75933403Y-112706874D01*
X75938056Y-112712543D01*
X75938274Y-112712869D01*
X75941733Y-112719340D01*
X75941883Y-112719703D01*
X75944011Y-112726720D01*
X75944087Y-112727104D01*
X75945290Y-112739314D01*
X75945300Y-112739510D01*
X75945300Y-112784600D01*
X75944300Y-112786332D01*
X75942300Y-112786332D01*
X75941310Y-112784796D01*
X75939641Y-112767847D01*
X75934752Y-112751731D01*
X75926815Y-112736881D01*
X75916134Y-112723866D01*
X75903119Y-112713185D01*
X75888269Y-112705248D01*
X75872153Y-112700359D01*
X75855306Y-112698700D01*
X75129694Y-112698700D01*
X75112847Y-112700359D01*
X75096731Y-112705248D01*
X75081881Y-112713185D01*
X75068866Y-112723866D01*
X75058185Y-112736881D01*
X75050248Y-112751731D01*
X75045359Y-112767847D01*
X75043690Y-112784796D01*
X75042525Y-112786422D01*
X75040535Y-112786226D01*
X75039700Y-112784600D01*
X75039700Y-112739510D01*
X75039710Y-112739314D01*
X75040913Y-112727104D01*
X75040989Y-112726720D01*
X75043117Y-112719703D01*
X75043267Y-112719340D01*
X75046726Y-112712869D01*
X75046944Y-112712543D01*
X75051597Y-112706874D01*
X75051874Y-112706597D01*
X75061968Y-112698312D01*
X75075617Y-112684662D01*
X75086289Y-112668689D01*
X75093639Y-112650943D01*
X75097387Y-112632099D01*
X75097386Y-112612894D01*
X75093637Y-112594051D01*
X75086286Y-112576305D01*
X75075613Y-112560333D01*
X75061968Y-112546688D01*
X75051874Y-112538403D01*
X75051597Y-112538126D01*
X75046944Y-112532457D01*
X75046726Y-112532131D01*
X75043267Y-112525660D01*
X75043117Y-112525297D01*
X75040989Y-112518280D01*
X75040913Y-112517896D01*
X75039710Y-112505686D01*
X75039700Y-112505490D01*
X75039700Y-112460400D01*
X75040700Y-112458668D01*
X75042700Y-112458668D01*
X75043690Y-112460204D01*
X75045359Y-112477153D01*
X75050248Y-112493269D01*
X75058185Y-112508119D01*
X75068866Y-112521134D01*
X75081881Y-112531815D01*
X75096731Y-112539752D01*
X75112847Y-112544641D01*
X75129694Y-112546300D01*
X75855306Y-112546300D01*
X75872153Y-112544641D01*
X75888269Y-112539752D01*
X75903119Y-112531815D01*
X75916134Y-112521134D01*
X75926815Y-112508119D01*
X75934752Y-112493269D01*
X75939641Y-112477153D01*
X75941310Y-112460204D01*
X75942475Y-112458578D01*
X75944465Y-112458774D01*
G37*
G36*
X80844465Y-112458774D02*
G01*
X80845300Y-112460400D01*
X80845300Y-112505490D01*
X80845290Y-112505686D01*
X80844087Y-112517896D01*
X80844011Y-112518280D01*
X80841883Y-112525297D01*
X80841733Y-112525660D01*
X80838274Y-112532131D01*
X80838056Y-112532457D01*
X80833403Y-112538126D01*
X80833126Y-112538403D01*
X80823032Y-112546688D01*
X80809383Y-112560338D01*
X80798711Y-112576311D01*
X80791361Y-112594057D01*
X80787613Y-112612901D01*
X80787614Y-112632106D01*
X80791363Y-112650949D01*
X80798714Y-112668695D01*
X80809387Y-112684667D01*
X80823032Y-112698312D01*
X80833126Y-112706597D01*
X80833403Y-112706874D01*
X80838056Y-112712543D01*
X80838274Y-112712869D01*
X80841733Y-112719340D01*
X80841883Y-112719703D01*
X80844011Y-112726720D01*
X80844087Y-112727104D01*
X80845290Y-112739314D01*
X80845300Y-112739510D01*
X80845300Y-112784600D01*
X80844300Y-112786332D01*
X80842300Y-112786332D01*
X80841310Y-112784796D01*
X80839641Y-112767847D01*
X80834752Y-112751731D01*
X80826815Y-112736881D01*
X80816134Y-112723866D01*
X80803119Y-112713185D01*
X80788269Y-112705248D01*
X80772153Y-112700359D01*
X80755306Y-112698700D01*
X80029694Y-112698700D01*
X80012847Y-112700359D01*
X79996731Y-112705248D01*
X79981881Y-112713185D01*
X79968866Y-112723866D01*
X79958185Y-112736881D01*
X79950248Y-112751731D01*
X79945359Y-112767847D01*
X79943690Y-112784796D01*
X79942525Y-112786422D01*
X79940535Y-112786226D01*
X79939700Y-112784600D01*
X79939700Y-112739510D01*
X79939710Y-112739314D01*
X79940913Y-112727104D01*
X79940989Y-112726720D01*
X79943117Y-112719703D01*
X79943267Y-112719340D01*
X79946726Y-112712869D01*
X79946944Y-112712543D01*
X79951597Y-112706874D01*
X79951874Y-112706597D01*
X79961968Y-112698312D01*
X79975617Y-112684662D01*
X79986289Y-112668689D01*
X79993639Y-112650943D01*
X79997387Y-112632099D01*
X79997386Y-112612894D01*
X79993637Y-112594051D01*
X79986286Y-112576305D01*
X79975613Y-112560333D01*
X79961968Y-112546688D01*
X79951874Y-112538403D01*
X79951597Y-112538126D01*
X79946944Y-112532457D01*
X79946726Y-112532131D01*
X79943267Y-112525660D01*
X79943117Y-112525297D01*
X79940989Y-112518280D01*
X79940913Y-112517896D01*
X79939710Y-112505686D01*
X79939700Y-112505490D01*
X79939700Y-112460400D01*
X79940700Y-112458668D01*
X79942700Y-112458668D01*
X79943690Y-112460204D01*
X79945359Y-112477153D01*
X79950248Y-112493269D01*
X79958185Y-112508119D01*
X79968866Y-112521134D01*
X79981881Y-112531815D01*
X79996731Y-112539752D01*
X80012847Y-112544641D01*
X80029694Y-112546300D01*
X80755306Y-112546300D01*
X80772153Y-112544641D01*
X80788269Y-112539752D01*
X80803119Y-112531815D01*
X80816134Y-112521134D01*
X80826815Y-112508119D01*
X80834752Y-112493269D01*
X80839641Y-112477153D01*
X80841310Y-112460204D01*
X80842475Y-112458578D01*
X80844465Y-112458774D01*
G37*
G36*
X80844465Y-111958774D02*
G01*
X80845300Y-111960400D01*
X80845300Y-112005490D01*
X80845290Y-112005686D01*
X80844087Y-112017896D01*
X80844011Y-112018280D01*
X80841883Y-112025297D01*
X80841733Y-112025660D01*
X80838274Y-112032131D01*
X80838056Y-112032457D01*
X80833403Y-112038126D01*
X80833126Y-112038403D01*
X80823032Y-112046688D01*
X80809383Y-112060338D01*
X80798711Y-112076311D01*
X80791361Y-112094057D01*
X80787613Y-112112901D01*
X80787614Y-112132106D01*
X80791363Y-112150949D01*
X80798714Y-112168695D01*
X80809387Y-112184667D01*
X80823032Y-112198312D01*
X80833126Y-112206597D01*
X80833403Y-112206874D01*
X80838056Y-112212543D01*
X80838274Y-112212869D01*
X80841733Y-112219340D01*
X80841883Y-112219703D01*
X80844011Y-112226720D01*
X80844087Y-112227104D01*
X80845290Y-112239314D01*
X80845300Y-112239510D01*
X80845300Y-112284600D01*
X80844300Y-112286332D01*
X80842300Y-112286332D01*
X80841310Y-112284796D01*
X80839641Y-112267847D01*
X80834752Y-112251731D01*
X80826815Y-112236881D01*
X80816134Y-112223866D01*
X80803119Y-112213185D01*
X80788269Y-112205248D01*
X80772153Y-112200359D01*
X80755306Y-112198700D01*
X80029694Y-112198700D01*
X80012847Y-112200359D01*
X79996731Y-112205248D01*
X79981881Y-112213185D01*
X79968866Y-112223866D01*
X79958185Y-112236881D01*
X79950248Y-112251731D01*
X79945359Y-112267847D01*
X79943690Y-112284796D01*
X79942525Y-112286422D01*
X79940535Y-112286226D01*
X79939700Y-112284600D01*
X79939700Y-112239510D01*
X79939710Y-112239314D01*
X79940913Y-112227104D01*
X79940989Y-112226720D01*
X79943117Y-112219703D01*
X79943267Y-112219340D01*
X79946726Y-112212869D01*
X79946944Y-112212543D01*
X79951597Y-112206874D01*
X79951874Y-112206597D01*
X79961968Y-112198312D01*
X79975617Y-112184662D01*
X79986289Y-112168689D01*
X79993639Y-112150943D01*
X79997387Y-112132099D01*
X79997386Y-112112894D01*
X79993637Y-112094051D01*
X79986286Y-112076305D01*
X79975613Y-112060333D01*
X79961968Y-112046688D01*
X79951874Y-112038403D01*
X79951597Y-112038126D01*
X79946944Y-112032457D01*
X79946726Y-112032131D01*
X79943267Y-112025660D01*
X79943117Y-112025297D01*
X79940989Y-112018280D01*
X79940913Y-112017896D01*
X79939710Y-112005686D01*
X79939700Y-112005490D01*
X79939700Y-111960400D01*
X79940700Y-111958668D01*
X79942700Y-111958668D01*
X79943690Y-111960204D01*
X79945359Y-111977153D01*
X79950248Y-111993269D01*
X79958185Y-112008119D01*
X79968866Y-112021134D01*
X79981881Y-112031815D01*
X79996731Y-112039752D01*
X80012847Y-112044641D01*
X80029694Y-112046300D01*
X80755306Y-112046300D01*
X80772153Y-112044641D01*
X80788269Y-112039752D01*
X80803119Y-112031815D01*
X80816134Y-112021134D01*
X80826815Y-112008119D01*
X80834752Y-111993269D01*
X80839641Y-111977153D01*
X80841310Y-111960204D01*
X80842475Y-111958578D01*
X80844465Y-111958774D01*
G37*
G36*
X75944465Y-111958774D02*
G01*
X75945300Y-111960400D01*
X75945300Y-112005490D01*
X75945290Y-112005686D01*
X75944087Y-112017896D01*
X75944011Y-112018280D01*
X75941883Y-112025297D01*
X75941733Y-112025660D01*
X75938274Y-112032131D01*
X75938056Y-112032457D01*
X75933403Y-112038126D01*
X75933126Y-112038403D01*
X75923032Y-112046688D01*
X75909383Y-112060338D01*
X75898711Y-112076311D01*
X75891361Y-112094057D01*
X75887613Y-112112901D01*
X75887614Y-112132106D01*
X75891363Y-112150949D01*
X75898714Y-112168695D01*
X75909387Y-112184667D01*
X75923032Y-112198312D01*
X75933126Y-112206597D01*
X75933403Y-112206874D01*
X75938056Y-112212543D01*
X75938274Y-112212869D01*
X75941733Y-112219340D01*
X75941883Y-112219703D01*
X75944011Y-112226720D01*
X75944087Y-112227104D01*
X75945290Y-112239314D01*
X75945300Y-112239510D01*
X75945300Y-112284600D01*
X75944300Y-112286332D01*
X75942300Y-112286332D01*
X75941310Y-112284796D01*
X75939641Y-112267847D01*
X75934752Y-112251731D01*
X75926815Y-112236881D01*
X75916134Y-112223866D01*
X75903119Y-112213185D01*
X75888269Y-112205248D01*
X75872153Y-112200359D01*
X75855306Y-112198700D01*
X75129694Y-112198700D01*
X75112847Y-112200359D01*
X75096731Y-112205248D01*
X75081881Y-112213185D01*
X75068866Y-112223866D01*
X75058185Y-112236881D01*
X75050248Y-112251731D01*
X75045359Y-112267847D01*
X75043690Y-112284796D01*
X75042525Y-112286422D01*
X75040535Y-112286226D01*
X75039700Y-112284600D01*
X75039700Y-112239510D01*
X75039710Y-112239314D01*
X75040913Y-112227104D01*
X75040989Y-112226720D01*
X75043117Y-112219703D01*
X75043267Y-112219340D01*
X75046726Y-112212869D01*
X75046944Y-112212543D01*
X75051597Y-112206874D01*
X75051874Y-112206597D01*
X75061968Y-112198312D01*
X75075617Y-112184662D01*
X75086289Y-112168689D01*
X75093639Y-112150943D01*
X75097387Y-112132099D01*
X75097386Y-112112894D01*
X75093637Y-112094051D01*
X75086286Y-112076305D01*
X75075613Y-112060333D01*
X75061968Y-112046688D01*
X75051874Y-112038403D01*
X75051597Y-112038126D01*
X75046944Y-112032457D01*
X75046726Y-112032131D01*
X75043267Y-112025660D01*
X75043117Y-112025297D01*
X75040989Y-112018280D01*
X75040913Y-112017896D01*
X75039710Y-112005686D01*
X75039700Y-112005490D01*
X75039700Y-111960400D01*
X75040700Y-111958668D01*
X75042700Y-111958668D01*
X75043690Y-111960204D01*
X75045359Y-111977153D01*
X75050248Y-111993269D01*
X75058185Y-112008119D01*
X75068866Y-112021134D01*
X75081881Y-112031815D01*
X75096731Y-112039752D01*
X75112847Y-112044641D01*
X75129694Y-112046300D01*
X75855306Y-112046300D01*
X75872153Y-112044641D01*
X75888269Y-112039752D01*
X75903119Y-112031815D01*
X75916134Y-112021134D01*
X75926815Y-112008119D01*
X75934752Y-111993269D01*
X75939641Y-111977153D01*
X75941310Y-111960204D01*
X75942475Y-111958578D01*
X75944465Y-111958774D01*
G37*
G36*
X80844465Y-111458774D02*
G01*
X80845300Y-111460400D01*
X80845300Y-111505490D01*
X80845290Y-111505686D01*
X80844087Y-111517896D01*
X80844011Y-111518280D01*
X80841883Y-111525297D01*
X80841733Y-111525660D01*
X80838274Y-111532131D01*
X80838056Y-111532457D01*
X80833403Y-111538126D01*
X80833126Y-111538403D01*
X80823032Y-111546688D01*
X80809383Y-111560338D01*
X80798711Y-111576311D01*
X80791361Y-111594057D01*
X80787613Y-111612901D01*
X80787614Y-111632106D01*
X80791363Y-111650949D01*
X80798714Y-111668695D01*
X80809387Y-111684667D01*
X80823032Y-111698312D01*
X80833126Y-111706597D01*
X80833403Y-111706874D01*
X80838056Y-111712543D01*
X80838274Y-111712869D01*
X80841733Y-111719340D01*
X80841883Y-111719703D01*
X80844011Y-111726720D01*
X80844087Y-111727104D01*
X80845290Y-111739314D01*
X80845300Y-111739510D01*
X80845300Y-111784600D01*
X80844300Y-111786332D01*
X80842300Y-111786332D01*
X80841310Y-111784796D01*
X80839641Y-111767847D01*
X80834752Y-111751731D01*
X80826815Y-111736881D01*
X80816134Y-111723866D01*
X80803119Y-111713185D01*
X80788269Y-111705248D01*
X80772153Y-111700359D01*
X80755306Y-111698700D01*
X80029694Y-111698700D01*
X80012847Y-111700359D01*
X79996731Y-111705248D01*
X79981881Y-111713185D01*
X79968866Y-111723866D01*
X79958185Y-111736881D01*
X79950248Y-111751731D01*
X79945359Y-111767847D01*
X79943690Y-111784796D01*
X79942525Y-111786422D01*
X79940535Y-111786226D01*
X79939700Y-111784600D01*
X79939700Y-111739510D01*
X79939710Y-111739314D01*
X79940913Y-111727104D01*
X79940989Y-111726720D01*
X79943117Y-111719703D01*
X79943267Y-111719340D01*
X79946726Y-111712869D01*
X79946944Y-111712543D01*
X79951597Y-111706874D01*
X79951874Y-111706597D01*
X79961968Y-111698312D01*
X79975617Y-111684662D01*
X79986289Y-111668689D01*
X79993639Y-111650943D01*
X79997387Y-111632099D01*
X79997386Y-111612894D01*
X79993637Y-111594051D01*
X79986286Y-111576305D01*
X79975613Y-111560333D01*
X79961968Y-111546688D01*
X79951874Y-111538403D01*
X79951597Y-111538126D01*
X79946944Y-111532457D01*
X79946726Y-111532131D01*
X79943267Y-111525660D01*
X79943117Y-111525297D01*
X79940989Y-111518280D01*
X79940913Y-111517896D01*
X79939710Y-111505686D01*
X79939700Y-111505490D01*
X79939700Y-111460400D01*
X79940700Y-111458668D01*
X79942700Y-111458668D01*
X79943690Y-111460204D01*
X79945359Y-111477153D01*
X79950248Y-111493269D01*
X79958185Y-111508119D01*
X79968866Y-111521134D01*
X79981881Y-111531815D01*
X79996731Y-111539752D01*
X80012847Y-111544641D01*
X80029694Y-111546300D01*
X80755306Y-111546300D01*
X80772153Y-111544641D01*
X80788269Y-111539752D01*
X80803119Y-111531815D01*
X80816134Y-111521134D01*
X80826815Y-111508119D01*
X80834752Y-111493269D01*
X80839641Y-111477153D01*
X80841310Y-111460204D01*
X80842475Y-111458578D01*
X80844465Y-111458774D01*
G37*
G36*
X75944465Y-111458774D02*
G01*
X75945300Y-111460400D01*
X75945300Y-111505490D01*
X75945290Y-111505686D01*
X75944087Y-111517896D01*
X75944011Y-111518280D01*
X75941883Y-111525297D01*
X75941733Y-111525660D01*
X75938274Y-111532131D01*
X75938056Y-111532457D01*
X75933403Y-111538126D01*
X75933126Y-111538403D01*
X75923032Y-111546688D01*
X75909383Y-111560338D01*
X75898711Y-111576311D01*
X75891361Y-111594057D01*
X75887613Y-111612901D01*
X75887614Y-111632106D01*
X75891363Y-111650949D01*
X75898714Y-111668695D01*
X75909387Y-111684667D01*
X75923032Y-111698312D01*
X75933126Y-111706597D01*
X75933403Y-111706874D01*
X75938056Y-111712543D01*
X75938274Y-111712869D01*
X75941733Y-111719340D01*
X75941883Y-111719703D01*
X75944011Y-111726720D01*
X75944087Y-111727104D01*
X75945290Y-111739314D01*
X75945300Y-111739510D01*
X75945300Y-111784600D01*
X75944300Y-111786332D01*
X75942300Y-111786332D01*
X75941310Y-111784796D01*
X75939641Y-111767847D01*
X75934752Y-111751731D01*
X75926815Y-111736881D01*
X75916134Y-111723866D01*
X75903119Y-111713185D01*
X75888269Y-111705248D01*
X75872153Y-111700359D01*
X75855306Y-111698700D01*
X75129694Y-111698700D01*
X75112847Y-111700359D01*
X75096731Y-111705248D01*
X75081881Y-111713185D01*
X75068866Y-111723866D01*
X75058185Y-111736881D01*
X75050248Y-111751731D01*
X75045359Y-111767847D01*
X75043690Y-111784796D01*
X75042525Y-111786422D01*
X75040535Y-111786226D01*
X75039700Y-111784600D01*
X75039700Y-111739510D01*
X75039710Y-111739314D01*
X75040913Y-111727104D01*
X75040989Y-111726720D01*
X75043117Y-111719703D01*
X75043267Y-111719340D01*
X75046726Y-111712869D01*
X75046944Y-111712543D01*
X75051597Y-111706874D01*
X75051874Y-111706597D01*
X75061968Y-111698312D01*
X75075617Y-111684662D01*
X75086289Y-111668689D01*
X75093639Y-111650943D01*
X75097387Y-111632099D01*
X75097386Y-111612894D01*
X75093637Y-111594051D01*
X75086286Y-111576305D01*
X75075613Y-111560333D01*
X75061968Y-111546688D01*
X75051874Y-111538403D01*
X75051597Y-111538126D01*
X75046944Y-111532457D01*
X75046726Y-111532131D01*
X75043267Y-111525660D01*
X75043117Y-111525297D01*
X75040989Y-111518280D01*
X75040913Y-111517896D01*
X75039710Y-111505686D01*
X75039700Y-111505490D01*
X75039700Y-111460400D01*
X75040700Y-111458668D01*
X75042700Y-111458668D01*
X75043690Y-111460204D01*
X75045359Y-111477153D01*
X75050248Y-111493269D01*
X75058185Y-111508119D01*
X75068866Y-111521134D01*
X75081881Y-111531815D01*
X75096731Y-111539752D01*
X75112847Y-111544641D01*
X75129694Y-111546300D01*
X75855306Y-111546300D01*
X75872153Y-111544641D01*
X75888269Y-111539752D01*
X75903119Y-111531815D01*
X75916134Y-111521134D01*
X75926815Y-111508119D01*
X75934752Y-111493269D01*
X75939641Y-111477153D01*
X75941310Y-111460204D01*
X75942475Y-111458578D01*
X75944465Y-111458774D01*
G37*
G36*
X80844465Y-110958774D02*
G01*
X80845300Y-110960400D01*
X80845300Y-111005490D01*
X80845290Y-111005686D01*
X80844087Y-111017896D01*
X80844011Y-111018280D01*
X80841883Y-111025297D01*
X80841733Y-111025660D01*
X80838274Y-111032131D01*
X80838056Y-111032457D01*
X80833403Y-111038126D01*
X80833126Y-111038403D01*
X80823032Y-111046688D01*
X80809383Y-111060338D01*
X80798711Y-111076311D01*
X80791361Y-111094057D01*
X80787613Y-111112901D01*
X80787614Y-111132106D01*
X80791363Y-111150949D01*
X80798714Y-111168695D01*
X80809387Y-111184667D01*
X80823032Y-111198312D01*
X80833126Y-111206597D01*
X80833403Y-111206874D01*
X80838056Y-111212543D01*
X80838274Y-111212869D01*
X80841733Y-111219340D01*
X80841883Y-111219703D01*
X80844011Y-111226720D01*
X80844087Y-111227104D01*
X80845290Y-111239314D01*
X80845300Y-111239510D01*
X80845300Y-111284600D01*
X80844300Y-111286332D01*
X80842300Y-111286332D01*
X80841310Y-111284796D01*
X80839641Y-111267847D01*
X80834752Y-111251731D01*
X80826815Y-111236881D01*
X80816134Y-111223866D01*
X80803119Y-111213185D01*
X80788269Y-111205248D01*
X80772153Y-111200359D01*
X80755306Y-111198700D01*
X80029694Y-111198700D01*
X80012847Y-111200359D01*
X79996731Y-111205248D01*
X79981881Y-111213185D01*
X79968866Y-111223866D01*
X79958185Y-111236881D01*
X79950248Y-111251731D01*
X79945359Y-111267847D01*
X79943690Y-111284796D01*
X79942525Y-111286422D01*
X79940535Y-111286226D01*
X79939700Y-111284600D01*
X79939700Y-111239510D01*
X79939710Y-111239314D01*
X79940913Y-111227104D01*
X79940989Y-111226720D01*
X79943117Y-111219703D01*
X79943267Y-111219340D01*
X79946726Y-111212869D01*
X79946944Y-111212543D01*
X79951597Y-111206874D01*
X79951874Y-111206597D01*
X79961968Y-111198312D01*
X79975617Y-111184662D01*
X79986289Y-111168689D01*
X79993639Y-111150943D01*
X79997387Y-111132099D01*
X79997386Y-111112894D01*
X79993637Y-111094051D01*
X79986286Y-111076305D01*
X79975613Y-111060333D01*
X79961968Y-111046688D01*
X79951874Y-111038403D01*
X79951597Y-111038126D01*
X79946944Y-111032457D01*
X79946726Y-111032131D01*
X79943267Y-111025660D01*
X79943117Y-111025297D01*
X79940989Y-111018280D01*
X79940913Y-111017896D01*
X79939710Y-111005686D01*
X79939700Y-111005490D01*
X79939700Y-110960400D01*
X79940700Y-110958668D01*
X79942700Y-110958668D01*
X79943690Y-110960204D01*
X79945359Y-110977153D01*
X79950248Y-110993269D01*
X79958185Y-111008119D01*
X79968866Y-111021134D01*
X79981881Y-111031815D01*
X79996731Y-111039752D01*
X80012847Y-111044641D01*
X80029694Y-111046300D01*
X80755306Y-111046300D01*
X80772153Y-111044641D01*
X80788269Y-111039752D01*
X80803119Y-111031815D01*
X80816134Y-111021134D01*
X80826815Y-111008119D01*
X80834752Y-110993269D01*
X80839641Y-110977153D01*
X80841310Y-110960204D01*
X80842475Y-110958578D01*
X80844465Y-110958774D01*
G37*
G36*
X75944465Y-110958774D02*
G01*
X75945300Y-110960400D01*
X75945300Y-111005490D01*
X75945290Y-111005686D01*
X75944087Y-111017896D01*
X75944011Y-111018280D01*
X75941883Y-111025297D01*
X75941733Y-111025660D01*
X75938274Y-111032131D01*
X75938056Y-111032457D01*
X75933403Y-111038126D01*
X75933126Y-111038403D01*
X75923032Y-111046688D01*
X75909383Y-111060338D01*
X75898711Y-111076311D01*
X75891361Y-111094057D01*
X75887613Y-111112901D01*
X75887614Y-111132106D01*
X75891363Y-111150949D01*
X75898714Y-111168695D01*
X75909387Y-111184667D01*
X75923032Y-111198312D01*
X75933126Y-111206597D01*
X75933403Y-111206874D01*
X75938056Y-111212543D01*
X75938274Y-111212869D01*
X75941733Y-111219340D01*
X75941883Y-111219703D01*
X75944011Y-111226720D01*
X75944087Y-111227104D01*
X75945290Y-111239314D01*
X75945300Y-111239510D01*
X75945300Y-111284600D01*
X75944300Y-111286332D01*
X75942300Y-111286332D01*
X75941310Y-111284796D01*
X75939641Y-111267847D01*
X75934752Y-111251731D01*
X75926815Y-111236881D01*
X75916134Y-111223866D01*
X75903119Y-111213185D01*
X75888269Y-111205248D01*
X75872153Y-111200359D01*
X75855306Y-111198700D01*
X75129694Y-111198700D01*
X75112847Y-111200359D01*
X75096731Y-111205248D01*
X75081881Y-111213185D01*
X75068866Y-111223866D01*
X75058185Y-111236881D01*
X75050248Y-111251731D01*
X75045359Y-111267847D01*
X75043690Y-111284796D01*
X75042525Y-111286422D01*
X75040535Y-111286226D01*
X75039700Y-111284600D01*
X75039700Y-111239510D01*
X75039710Y-111239314D01*
X75040913Y-111227104D01*
X75040989Y-111226720D01*
X75043117Y-111219703D01*
X75043267Y-111219340D01*
X75046726Y-111212869D01*
X75046944Y-111212543D01*
X75051597Y-111206874D01*
X75051874Y-111206597D01*
X75061968Y-111198312D01*
X75075617Y-111184662D01*
X75086289Y-111168689D01*
X75093639Y-111150943D01*
X75097387Y-111132099D01*
X75097386Y-111112894D01*
X75093637Y-111094051D01*
X75086286Y-111076305D01*
X75075613Y-111060333D01*
X75061968Y-111046688D01*
X75051874Y-111038403D01*
X75051597Y-111038126D01*
X75046944Y-111032457D01*
X75046726Y-111032131D01*
X75043267Y-111025660D01*
X75043117Y-111025297D01*
X75040989Y-111018280D01*
X75040913Y-111017896D01*
X75039710Y-111005686D01*
X75039700Y-111005490D01*
X75039700Y-110960400D01*
X75040700Y-110958668D01*
X75042700Y-110958668D01*
X75043690Y-110960204D01*
X75045359Y-110977153D01*
X75050248Y-110993269D01*
X75058185Y-111008119D01*
X75068866Y-111021134D01*
X75081881Y-111031815D01*
X75096731Y-111039752D01*
X75112847Y-111044641D01*
X75129694Y-111046300D01*
X75855306Y-111046300D01*
X75872153Y-111044641D01*
X75888269Y-111039752D01*
X75903119Y-111031815D01*
X75916134Y-111021134D01*
X75926815Y-111008119D01*
X75934752Y-110993269D01*
X75939641Y-110977153D01*
X75941310Y-110960204D01*
X75942475Y-110958578D01*
X75944465Y-110958774D01*
G37*
G36*
X75944465Y-110458774D02*
G01*
X75945300Y-110460400D01*
X75945300Y-110505490D01*
X75945290Y-110505686D01*
X75944087Y-110517896D01*
X75944011Y-110518280D01*
X75941883Y-110525297D01*
X75941733Y-110525660D01*
X75938274Y-110532131D01*
X75938056Y-110532457D01*
X75933403Y-110538126D01*
X75933126Y-110538403D01*
X75923032Y-110546688D01*
X75909383Y-110560338D01*
X75898711Y-110576311D01*
X75891361Y-110594057D01*
X75887613Y-110612901D01*
X75887614Y-110632106D01*
X75891363Y-110650949D01*
X75898714Y-110668695D01*
X75909387Y-110684667D01*
X75923032Y-110698312D01*
X75933126Y-110706597D01*
X75933403Y-110706874D01*
X75938056Y-110712543D01*
X75938274Y-110712869D01*
X75941733Y-110719340D01*
X75941883Y-110719703D01*
X75944011Y-110726720D01*
X75944087Y-110727104D01*
X75945290Y-110739314D01*
X75945300Y-110739510D01*
X75945300Y-110784600D01*
X75944300Y-110786332D01*
X75942300Y-110786332D01*
X75941310Y-110784796D01*
X75939641Y-110767847D01*
X75934752Y-110751731D01*
X75926815Y-110736881D01*
X75916134Y-110723866D01*
X75903119Y-110713185D01*
X75888269Y-110705248D01*
X75872153Y-110700359D01*
X75855306Y-110698700D01*
X75129694Y-110698700D01*
X75112847Y-110700359D01*
X75096731Y-110705248D01*
X75081881Y-110713185D01*
X75068866Y-110723866D01*
X75058185Y-110736881D01*
X75050248Y-110751731D01*
X75045359Y-110767847D01*
X75043690Y-110784796D01*
X75042525Y-110786422D01*
X75040535Y-110786226D01*
X75039700Y-110784600D01*
X75039700Y-110739510D01*
X75039710Y-110739314D01*
X75040913Y-110727104D01*
X75040989Y-110726720D01*
X75043117Y-110719703D01*
X75043267Y-110719340D01*
X75046726Y-110712869D01*
X75046944Y-110712543D01*
X75051597Y-110706874D01*
X75051874Y-110706597D01*
X75061968Y-110698312D01*
X75075617Y-110684662D01*
X75086289Y-110668689D01*
X75093639Y-110650943D01*
X75097387Y-110632099D01*
X75097386Y-110612894D01*
X75093637Y-110594051D01*
X75086286Y-110576305D01*
X75075613Y-110560333D01*
X75061968Y-110546688D01*
X75051874Y-110538403D01*
X75051597Y-110538126D01*
X75046944Y-110532457D01*
X75046726Y-110532131D01*
X75043267Y-110525660D01*
X75043117Y-110525297D01*
X75040989Y-110518280D01*
X75040913Y-110517896D01*
X75039710Y-110505686D01*
X75039700Y-110505490D01*
X75039700Y-110460400D01*
X75040700Y-110458668D01*
X75042700Y-110458668D01*
X75043690Y-110460204D01*
X75045359Y-110477153D01*
X75050248Y-110493269D01*
X75058185Y-110508119D01*
X75068866Y-110521134D01*
X75081881Y-110531815D01*
X75096731Y-110539752D01*
X75112847Y-110544641D01*
X75129694Y-110546300D01*
X75855306Y-110546300D01*
X75872153Y-110544641D01*
X75888269Y-110539752D01*
X75903119Y-110531815D01*
X75916134Y-110521134D01*
X75926815Y-110508119D01*
X75934752Y-110493269D01*
X75939641Y-110477153D01*
X75941310Y-110460204D01*
X75942475Y-110458578D01*
X75944465Y-110458774D01*
G37*
G36*
X80844465Y-110458774D02*
G01*
X80845300Y-110460400D01*
X80845300Y-110505490D01*
X80845290Y-110505686D01*
X80844087Y-110517896D01*
X80844011Y-110518280D01*
X80841883Y-110525297D01*
X80841733Y-110525660D01*
X80838274Y-110532131D01*
X80838056Y-110532457D01*
X80833403Y-110538126D01*
X80833126Y-110538403D01*
X80823032Y-110546688D01*
X80809383Y-110560338D01*
X80798711Y-110576311D01*
X80791361Y-110594057D01*
X80787613Y-110612901D01*
X80787614Y-110632106D01*
X80791363Y-110650949D01*
X80798714Y-110668695D01*
X80809387Y-110684667D01*
X80823032Y-110698312D01*
X80833126Y-110706597D01*
X80833403Y-110706874D01*
X80838056Y-110712543D01*
X80838274Y-110712869D01*
X80841733Y-110719340D01*
X80841883Y-110719703D01*
X80844011Y-110726720D01*
X80844087Y-110727104D01*
X80845290Y-110739314D01*
X80845300Y-110739510D01*
X80845300Y-110784600D01*
X80844300Y-110786332D01*
X80842300Y-110786332D01*
X80841310Y-110784796D01*
X80839641Y-110767847D01*
X80834752Y-110751731D01*
X80826815Y-110736881D01*
X80816134Y-110723866D01*
X80803119Y-110713185D01*
X80788269Y-110705248D01*
X80772153Y-110700359D01*
X80755306Y-110698700D01*
X80029694Y-110698700D01*
X80012847Y-110700359D01*
X79996731Y-110705248D01*
X79981881Y-110713185D01*
X79968866Y-110723866D01*
X79958185Y-110736881D01*
X79950248Y-110751731D01*
X79945359Y-110767847D01*
X79943690Y-110784796D01*
X79942525Y-110786422D01*
X79940535Y-110786226D01*
X79939700Y-110784600D01*
X79939700Y-110739510D01*
X79939710Y-110739314D01*
X79940913Y-110727104D01*
X79940989Y-110726720D01*
X79943117Y-110719703D01*
X79943267Y-110719340D01*
X79946726Y-110712869D01*
X79946944Y-110712543D01*
X79951597Y-110706874D01*
X79951874Y-110706597D01*
X79961968Y-110698312D01*
X79975617Y-110684662D01*
X79986289Y-110668689D01*
X79993639Y-110650943D01*
X79997387Y-110632099D01*
X79997386Y-110612894D01*
X79993637Y-110594051D01*
X79986286Y-110576305D01*
X79975613Y-110560333D01*
X79961968Y-110546688D01*
X79951874Y-110538403D01*
X79951597Y-110538126D01*
X79946944Y-110532457D01*
X79946726Y-110532131D01*
X79943267Y-110525660D01*
X79943117Y-110525297D01*
X79940989Y-110518280D01*
X79940913Y-110517896D01*
X79939710Y-110505686D01*
X79939700Y-110505490D01*
X79939700Y-110460400D01*
X79940700Y-110458668D01*
X79942700Y-110458668D01*
X79943690Y-110460204D01*
X79945359Y-110477153D01*
X79950248Y-110493269D01*
X79958185Y-110508119D01*
X79968866Y-110521134D01*
X79981881Y-110531815D01*
X79996731Y-110539752D01*
X80012847Y-110544641D01*
X80029694Y-110546300D01*
X80755306Y-110546300D01*
X80772153Y-110544641D01*
X80788269Y-110539752D01*
X80803119Y-110531815D01*
X80816134Y-110521134D01*
X80826815Y-110508119D01*
X80834752Y-110493269D01*
X80839641Y-110477153D01*
X80841310Y-110460204D01*
X80842475Y-110458578D01*
X80844465Y-110458774D01*
G37*
G36*
X75944465Y-109958774D02*
G01*
X75945300Y-109960400D01*
X75945300Y-110005490D01*
X75945290Y-110005686D01*
X75944087Y-110017896D01*
X75944011Y-110018280D01*
X75941883Y-110025297D01*
X75941733Y-110025660D01*
X75938274Y-110032131D01*
X75938056Y-110032457D01*
X75933403Y-110038126D01*
X75933126Y-110038403D01*
X75923032Y-110046688D01*
X75909383Y-110060338D01*
X75898711Y-110076311D01*
X75891361Y-110094057D01*
X75887613Y-110112901D01*
X75887614Y-110132106D01*
X75891363Y-110150949D01*
X75898714Y-110168695D01*
X75909387Y-110184667D01*
X75923032Y-110198312D01*
X75933126Y-110206597D01*
X75933403Y-110206874D01*
X75938056Y-110212543D01*
X75938274Y-110212869D01*
X75941733Y-110219340D01*
X75941883Y-110219703D01*
X75944011Y-110226720D01*
X75944087Y-110227104D01*
X75945290Y-110239314D01*
X75945300Y-110239510D01*
X75945300Y-110284600D01*
X75944300Y-110286332D01*
X75942300Y-110286332D01*
X75941310Y-110284796D01*
X75939641Y-110267847D01*
X75934752Y-110251731D01*
X75926815Y-110236881D01*
X75916134Y-110223866D01*
X75903119Y-110213185D01*
X75888269Y-110205248D01*
X75872153Y-110200359D01*
X75855306Y-110198700D01*
X75129694Y-110198700D01*
X75112847Y-110200359D01*
X75096731Y-110205248D01*
X75081881Y-110213185D01*
X75068866Y-110223866D01*
X75058185Y-110236881D01*
X75050248Y-110251731D01*
X75045359Y-110267847D01*
X75043690Y-110284796D01*
X75042525Y-110286422D01*
X75040535Y-110286226D01*
X75039700Y-110284600D01*
X75039700Y-110239510D01*
X75039710Y-110239314D01*
X75040913Y-110227104D01*
X75040989Y-110226720D01*
X75043117Y-110219703D01*
X75043267Y-110219340D01*
X75046726Y-110212869D01*
X75046944Y-110212543D01*
X75051597Y-110206874D01*
X75051874Y-110206597D01*
X75061968Y-110198312D01*
X75075617Y-110184662D01*
X75086289Y-110168689D01*
X75093639Y-110150943D01*
X75097387Y-110132099D01*
X75097386Y-110112894D01*
X75093637Y-110094051D01*
X75086286Y-110076305D01*
X75075613Y-110060333D01*
X75061968Y-110046688D01*
X75051874Y-110038403D01*
X75051597Y-110038126D01*
X75046944Y-110032457D01*
X75046726Y-110032131D01*
X75043267Y-110025660D01*
X75043117Y-110025297D01*
X75040989Y-110018280D01*
X75040913Y-110017896D01*
X75039710Y-110005686D01*
X75039700Y-110005490D01*
X75039700Y-109960400D01*
X75040700Y-109958668D01*
X75042700Y-109958668D01*
X75043690Y-109960204D01*
X75045359Y-109977153D01*
X75050248Y-109993269D01*
X75058185Y-110008119D01*
X75068866Y-110021134D01*
X75081881Y-110031815D01*
X75096731Y-110039752D01*
X75112847Y-110044641D01*
X75129694Y-110046300D01*
X75855306Y-110046300D01*
X75872153Y-110044641D01*
X75888269Y-110039752D01*
X75903119Y-110031815D01*
X75916134Y-110021134D01*
X75926815Y-110008119D01*
X75934752Y-109993269D01*
X75939641Y-109977153D01*
X75941310Y-109960204D01*
X75942475Y-109958578D01*
X75944465Y-109958774D01*
G37*
G36*
X80844465Y-109958774D02*
G01*
X80845300Y-109960400D01*
X80845300Y-110005490D01*
X80845290Y-110005686D01*
X80844087Y-110017896D01*
X80844011Y-110018280D01*
X80841883Y-110025297D01*
X80841733Y-110025660D01*
X80838274Y-110032131D01*
X80838056Y-110032457D01*
X80833403Y-110038126D01*
X80833126Y-110038403D01*
X80823032Y-110046688D01*
X80809383Y-110060338D01*
X80798711Y-110076311D01*
X80791361Y-110094057D01*
X80787613Y-110112901D01*
X80787614Y-110132106D01*
X80791363Y-110150949D01*
X80798714Y-110168695D01*
X80809387Y-110184667D01*
X80823032Y-110198312D01*
X80833126Y-110206597D01*
X80833403Y-110206874D01*
X80838056Y-110212543D01*
X80838274Y-110212869D01*
X80841733Y-110219340D01*
X80841883Y-110219703D01*
X80844011Y-110226720D01*
X80844087Y-110227104D01*
X80845290Y-110239314D01*
X80845300Y-110239510D01*
X80845300Y-110284600D01*
X80844300Y-110286332D01*
X80842300Y-110286332D01*
X80841310Y-110284796D01*
X80839641Y-110267847D01*
X80834752Y-110251731D01*
X80826815Y-110236881D01*
X80816134Y-110223866D01*
X80803119Y-110213185D01*
X80788269Y-110205248D01*
X80772153Y-110200359D01*
X80755306Y-110198700D01*
X80029694Y-110198700D01*
X80012847Y-110200359D01*
X79996731Y-110205248D01*
X79981881Y-110213185D01*
X79968866Y-110223866D01*
X79958185Y-110236881D01*
X79950248Y-110251731D01*
X79945359Y-110267847D01*
X79943690Y-110284796D01*
X79942525Y-110286422D01*
X79940535Y-110286226D01*
X79939700Y-110284600D01*
X79939700Y-110239510D01*
X79939710Y-110239314D01*
X79940913Y-110227104D01*
X79940989Y-110226720D01*
X79943117Y-110219703D01*
X79943267Y-110219340D01*
X79946726Y-110212869D01*
X79946944Y-110212543D01*
X79951597Y-110206874D01*
X79951874Y-110206597D01*
X79961968Y-110198312D01*
X79975617Y-110184662D01*
X79986289Y-110168689D01*
X79993639Y-110150943D01*
X79997387Y-110132099D01*
X79997386Y-110112894D01*
X79993637Y-110094051D01*
X79986286Y-110076305D01*
X79975613Y-110060333D01*
X79961968Y-110046688D01*
X79951874Y-110038403D01*
X79951597Y-110038126D01*
X79946944Y-110032457D01*
X79946726Y-110032131D01*
X79943267Y-110025660D01*
X79943117Y-110025297D01*
X79940989Y-110018280D01*
X79940913Y-110017896D01*
X79939710Y-110005686D01*
X79939700Y-110005490D01*
X79939700Y-109960400D01*
X79940700Y-109958668D01*
X79942700Y-109958668D01*
X79943690Y-109960204D01*
X79945359Y-109977153D01*
X79950248Y-109993269D01*
X79958185Y-110008119D01*
X79968866Y-110021134D01*
X79981881Y-110031815D01*
X79996731Y-110039752D01*
X80012847Y-110044641D01*
X80029694Y-110046300D01*
X80755306Y-110046300D01*
X80772153Y-110044641D01*
X80788269Y-110039752D01*
X80803119Y-110031815D01*
X80816134Y-110021134D01*
X80826815Y-110008119D01*
X80834752Y-109993269D01*
X80839641Y-109977153D01*
X80841310Y-109960204D01*
X80842475Y-109958578D01*
X80844465Y-109958774D01*
G37*
G36*
X77075686Y-108469710D02*
G01*
X77087896Y-108470913D01*
X77088280Y-108470989D01*
X77095297Y-108473117D01*
X77095660Y-108473267D01*
X77102131Y-108476726D01*
X77102457Y-108476944D01*
X77108126Y-108481597D01*
X77108403Y-108481874D01*
X77116688Y-108491968D01*
X77130338Y-108505617D01*
X77146311Y-108516289D01*
X77164057Y-108523639D01*
X77182901Y-108527387D01*
X77202106Y-108527386D01*
X77220949Y-108523637D01*
X77238695Y-108516286D01*
X77254667Y-108505613D01*
X77268312Y-108491968D01*
X77276597Y-108481874D01*
X77276874Y-108481597D01*
X77282543Y-108476944D01*
X77282869Y-108476726D01*
X77289340Y-108473267D01*
X77289703Y-108473117D01*
X77296720Y-108470989D01*
X77297104Y-108470913D01*
X77309314Y-108469710D01*
X77309510Y-108469700D01*
X77354600Y-108469700D01*
X77356332Y-108470700D01*
X77356332Y-108472700D01*
X77354796Y-108473690D01*
X77337847Y-108475359D01*
X77321731Y-108480248D01*
X77306881Y-108488185D01*
X77293866Y-108498866D01*
X77283185Y-108511881D01*
X77275248Y-108526731D01*
X77270359Y-108542847D01*
X77268700Y-108559694D01*
X77268700Y-109285306D01*
X77270359Y-109302153D01*
X77275248Y-109318269D01*
X77283185Y-109333119D01*
X77293866Y-109346134D01*
X77306881Y-109356815D01*
X77321731Y-109364752D01*
X77337847Y-109369641D01*
X77354796Y-109371310D01*
X77356422Y-109372475D01*
X77356226Y-109374465D01*
X77354600Y-109375300D01*
X77309510Y-109375300D01*
X77309314Y-109375290D01*
X77297104Y-109374087D01*
X77296720Y-109374011D01*
X77289703Y-109371883D01*
X77289340Y-109371733D01*
X77282869Y-109368274D01*
X77282543Y-109368056D01*
X77276874Y-109363403D01*
X77276597Y-109363126D01*
X77268312Y-109353032D01*
X77254662Y-109339383D01*
X77238689Y-109328711D01*
X77220943Y-109321361D01*
X77202099Y-109317613D01*
X77182894Y-109317614D01*
X77164051Y-109321363D01*
X77146305Y-109328714D01*
X77130333Y-109339387D01*
X77116688Y-109353032D01*
X77108403Y-109363126D01*
X77108126Y-109363403D01*
X77102457Y-109368056D01*
X77102131Y-109368274D01*
X77095660Y-109371733D01*
X77095297Y-109371883D01*
X77088280Y-109374011D01*
X77087896Y-109374087D01*
X77075686Y-109375290D01*
X77075490Y-109375300D01*
X77030400Y-109375300D01*
X77028668Y-109374300D01*
X77028668Y-109372300D01*
X77030204Y-109371310D01*
X77047153Y-109369641D01*
X77063269Y-109364752D01*
X77078119Y-109356815D01*
X77091134Y-109346134D01*
X77101815Y-109333119D01*
X77109752Y-109318269D01*
X77114641Y-109302153D01*
X77116300Y-109285306D01*
X77116300Y-108559694D01*
X77114641Y-108542847D01*
X77109752Y-108526731D01*
X77101815Y-108511881D01*
X77091134Y-108498866D01*
X77078119Y-108488185D01*
X77063269Y-108480248D01*
X77047153Y-108475359D01*
X77030204Y-108473690D01*
X77028578Y-108472525D01*
X77028774Y-108470535D01*
X77030400Y-108469700D01*
X77075490Y-108469700D01*
X77075686Y-108469710D01*
G37*
G36*
X78075686Y-108469710D02*
G01*
X78087896Y-108470913D01*
X78088280Y-108470989D01*
X78095297Y-108473117D01*
X78095660Y-108473267D01*
X78102131Y-108476726D01*
X78102457Y-108476944D01*
X78108126Y-108481597D01*
X78108403Y-108481874D01*
X78116688Y-108491968D01*
X78130338Y-108505617D01*
X78146311Y-108516289D01*
X78164057Y-108523639D01*
X78182901Y-108527387D01*
X78202106Y-108527386D01*
X78220949Y-108523637D01*
X78238695Y-108516286D01*
X78254667Y-108505613D01*
X78268312Y-108491968D01*
X78276597Y-108481874D01*
X78276874Y-108481597D01*
X78282543Y-108476944D01*
X78282869Y-108476726D01*
X78289340Y-108473267D01*
X78289703Y-108473117D01*
X78296720Y-108470989D01*
X78297104Y-108470913D01*
X78309314Y-108469710D01*
X78309510Y-108469700D01*
X78354600Y-108469700D01*
X78356332Y-108470700D01*
X78356332Y-108472700D01*
X78354796Y-108473690D01*
X78337847Y-108475359D01*
X78321731Y-108480248D01*
X78306881Y-108488185D01*
X78293866Y-108498866D01*
X78283185Y-108511881D01*
X78275248Y-108526731D01*
X78270359Y-108542847D01*
X78268700Y-108559694D01*
X78268700Y-109285306D01*
X78270359Y-109302153D01*
X78275248Y-109318269D01*
X78283185Y-109333119D01*
X78293866Y-109346134D01*
X78306881Y-109356815D01*
X78321731Y-109364752D01*
X78337847Y-109369641D01*
X78354796Y-109371310D01*
X78356422Y-109372475D01*
X78356226Y-109374465D01*
X78354600Y-109375300D01*
X78309510Y-109375300D01*
X78309314Y-109375290D01*
X78297104Y-109374087D01*
X78296720Y-109374011D01*
X78289703Y-109371883D01*
X78289340Y-109371733D01*
X78282869Y-109368274D01*
X78282543Y-109368056D01*
X78276874Y-109363403D01*
X78276597Y-109363126D01*
X78268312Y-109353032D01*
X78254662Y-109339383D01*
X78238689Y-109328711D01*
X78220943Y-109321361D01*
X78202099Y-109317613D01*
X78182894Y-109317614D01*
X78164051Y-109321363D01*
X78146305Y-109328714D01*
X78130333Y-109339387D01*
X78116688Y-109353032D01*
X78108403Y-109363126D01*
X78108126Y-109363403D01*
X78102457Y-109368056D01*
X78102131Y-109368274D01*
X78095660Y-109371733D01*
X78095297Y-109371883D01*
X78088280Y-109374011D01*
X78087896Y-109374087D01*
X78075686Y-109375290D01*
X78075490Y-109375300D01*
X78030400Y-109375300D01*
X78028668Y-109374300D01*
X78028668Y-109372300D01*
X78030204Y-109371310D01*
X78047153Y-109369641D01*
X78063269Y-109364752D01*
X78078119Y-109356815D01*
X78091134Y-109346134D01*
X78101815Y-109333119D01*
X78109752Y-109318269D01*
X78114641Y-109302153D01*
X78116300Y-109285306D01*
X78116300Y-108559694D01*
X78114641Y-108542847D01*
X78109752Y-108526731D01*
X78101815Y-108511881D01*
X78091134Y-108498866D01*
X78078119Y-108488185D01*
X78063269Y-108480248D01*
X78047153Y-108475359D01*
X78030204Y-108473690D01*
X78028578Y-108472525D01*
X78028774Y-108470535D01*
X78030400Y-108469700D01*
X78075490Y-108469700D01*
X78075686Y-108469710D01*
G37*
G36*
X76575686Y-108469710D02*
G01*
X76587896Y-108470913D01*
X76588280Y-108470989D01*
X76595297Y-108473117D01*
X76595660Y-108473267D01*
X76602131Y-108476726D01*
X76602457Y-108476944D01*
X76608126Y-108481597D01*
X76608403Y-108481874D01*
X76616688Y-108491968D01*
X76630338Y-108505617D01*
X76646311Y-108516289D01*
X76664057Y-108523639D01*
X76682901Y-108527387D01*
X76702106Y-108527386D01*
X76720949Y-108523637D01*
X76738695Y-108516286D01*
X76754667Y-108505613D01*
X76768312Y-108491968D01*
X76776597Y-108481874D01*
X76776874Y-108481597D01*
X76782543Y-108476944D01*
X76782869Y-108476726D01*
X76789340Y-108473267D01*
X76789703Y-108473117D01*
X76796720Y-108470989D01*
X76797104Y-108470913D01*
X76809314Y-108469710D01*
X76809510Y-108469700D01*
X76854600Y-108469700D01*
X76856332Y-108470700D01*
X76856332Y-108472700D01*
X76854796Y-108473690D01*
X76837847Y-108475359D01*
X76821731Y-108480248D01*
X76806881Y-108488185D01*
X76793866Y-108498866D01*
X76783185Y-108511881D01*
X76775248Y-108526731D01*
X76770359Y-108542847D01*
X76768700Y-108559694D01*
X76768700Y-109285306D01*
X76770359Y-109302153D01*
X76775248Y-109318269D01*
X76783185Y-109333119D01*
X76793866Y-109346134D01*
X76806881Y-109356815D01*
X76821731Y-109364752D01*
X76837847Y-109369641D01*
X76854796Y-109371310D01*
X76856422Y-109372475D01*
X76856226Y-109374465D01*
X76854600Y-109375300D01*
X76809510Y-109375300D01*
X76809314Y-109375290D01*
X76797104Y-109374087D01*
X76796720Y-109374011D01*
X76789703Y-109371883D01*
X76789340Y-109371733D01*
X76782869Y-109368274D01*
X76782543Y-109368056D01*
X76776874Y-109363403D01*
X76776597Y-109363126D01*
X76768312Y-109353032D01*
X76754662Y-109339383D01*
X76738689Y-109328711D01*
X76720943Y-109321361D01*
X76702099Y-109317613D01*
X76682894Y-109317614D01*
X76664051Y-109321363D01*
X76646305Y-109328714D01*
X76630333Y-109339387D01*
X76616688Y-109353032D01*
X76608403Y-109363126D01*
X76608126Y-109363403D01*
X76602457Y-109368056D01*
X76602131Y-109368274D01*
X76595660Y-109371733D01*
X76595297Y-109371883D01*
X76588280Y-109374011D01*
X76587896Y-109374087D01*
X76575686Y-109375290D01*
X76575490Y-109375300D01*
X76530400Y-109375300D01*
X76528668Y-109374300D01*
X76528668Y-109372300D01*
X76530204Y-109371310D01*
X76547153Y-109369641D01*
X76563269Y-109364752D01*
X76578119Y-109356815D01*
X76591134Y-109346134D01*
X76601815Y-109333119D01*
X76609752Y-109318269D01*
X76614641Y-109302153D01*
X76616300Y-109285306D01*
X76616300Y-108559694D01*
X76614641Y-108542847D01*
X76609752Y-108526731D01*
X76601815Y-108511881D01*
X76591134Y-108498866D01*
X76578119Y-108488185D01*
X76563269Y-108480248D01*
X76547153Y-108475359D01*
X76530204Y-108473690D01*
X76528578Y-108472525D01*
X76528774Y-108470535D01*
X76530400Y-108469700D01*
X76575490Y-108469700D01*
X76575686Y-108469710D01*
G37*
G36*
X77575686Y-108469710D02*
G01*
X77587896Y-108470913D01*
X77588280Y-108470989D01*
X77595297Y-108473117D01*
X77595660Y-108473267D01*
X77602131Y-108476726D01*
X77602457Y-108476944D01*
X77608126Y-108481597D01*
X77608403Y-108481874D01*
X77616688Y-108491968D01*
X77630338Y-108505617D01*
X77646311Y-108516289D01*
X77664057Y-108523639D01*
X77682901Y-108527387D01*
X77702106Y-108527386D01*
X77720949Y-108523637D01*
X77738695Y-108516286D01*
X77754667Y-108505613D01*
X77768312Y-108491968D01*
X77776597Y-108481874D01*
X77776874Y-108481597D01*
X77782543Y-108476944D01*
X77782869Y-108476726D01*
X77789340Y-108473267D01*
X77789703Y-108473117D01*
X77796720Y-108470989D01*
X77797104Y-108470913D01*
X77809314Y-108469710D01*
X77809510Y-108469700D01*
X77854600Y-108469700D01*
X77856332Y-108470700D01*
X77856332Y-108472700D01*
X77854796Y-108473690D01*
X77837847Y-108475359D01*
X77821731Y-108480248D01*
X77806881Y-108488185D01*
X77793866Y-108498866D01*
X77783185Y-108511881D01*
X77775248Y-108526731D01*
X77770359Y-108542847D01*
X77768700Y-108559694D01*
X77768700Y-109285306D01*
X77770359Y-109302153D01*
X77775248Y-109318269D01*
X77783185Y-109333119D01*
X77793866Y-109346134D01*
X77806881Y-109356815D01*
X77821731Y-109364752D01*
X77837847Y-109369641D01*
X77854796Y-109371310D01*
X77856422Y-109372475D01*
X77856226Y-109374465D01*
X77854600Y-109375300D01*
X77809510Y-109375300D01*
X77809314Y-109375290D01*
X77797104Y-109374087D01*
X77796720Y-109374011D01*
X77789703Y-109371883D01*
X77789340Y-109371733D01*
X77782869Y-109368274D01*
X77782543Y-109368056D01*
X77776874Y-109363403D01*
X77776597Y-109363126D01*
X77768312Y-109353032D01*
X77754662Y-109339383D01*
X77738689Y-109328711D01*
X77720943Y-109321361D01*
X77702099Y-109317613D01*
X77682894Y-109317614D01*
X77664051Y-109321363D01*
X77646305Y-109328714D01*
X77630333Y-109339387D01*
X77616688Y-109353032D01*
X77608403Y-109363126D01*
X77608126Y-109363403D01*
X77602457Y-109368056D01*
X77602131Y-109368274D01*
X77595660Y-109371733D01*
X77595297Y-109371883D01*
X77588280Y-109374011D01*
X77587896Y-109374087D01*
X77575686Y-109375290D01*
X77575490Y-109375300D01*
X77530400Y-109375300D01*
X77528668Y-109374300D01*
X77528668Y-109372300D01*
X77530204Y-109371310D01*
X77547153Y-109369641D01*
X77563269Y-109364752D01*
X77578119Y-109356815D01*
X77591134Y-109346134D01*
X77601815Y-109333119D01*
X77609752Y-109318269D01*
X77614641Y-109302153D01*
X77616300Y-109285306D01*
X77616300Y-108559694D01*
X77614641Y-108542847D01*
X77609752Y-108526731D01*
X77601815Y-108511881D01*
X77591134Y-108498866D01*
X77578119Y-108488185D01*
X77563269Y-108480248D01*
X77547153Y-108475359D01*
X77530204Y-108473690D01*
X77528578Y-108472525D01*
X77528774Y-108470535D01*
X77530400Y-108469700D01*
X77575490Y-108469700D01*
X77575686Y-108469710D01*
G37*
G36*
X79075686Y-108469710D02*
G01*
X79087896Y-108470913D01*
X79088280Y-108470989D01*
X79095297Y-108473117D01*
X79095660Y-108473267D01*
X79102131Y-108476726D01*
X79102457Y-108476944D01*
X79108126Y-108481597D01*
X79108403Y-108481874D01*
X79116688Y-108491968D01*
X79130338Y-108505617D01*
X79146311Y-108516289D01*
X79164057Y-108523639D01*
X79182901Y-108527387D01*
X79202106Y-108527386D01*
X79220949Y-108523637D01*
X79238695Y-108516286D01*
X79254667Y-108505613D01*
X79268312Y-108491968D01*
X79276597Y-108481874D01*
X79276874Y-108481597D01*
X79282543Y-108476944D01*
X79282869Y-108476726D01*
X79289340Y-108473267D01*
X79289703Y-108473117D01*
X79296720Y-108470989D01*
X79297104Y-108470913D01*
X79309314Y-108469710D01*
X79309510Y-108469700D01*
X79354600Y-108469700D01*
X79356332Y-108470700D01*
X79356332Y-108472700D01*
X79354796Y-108473690D01*
X79337847Y-108475359D01*
X79321731Y-108480248D01*
X79306881Y-108488185D01*
X79293866Y-108498866D01*
X79283185Y-108511881D01*
X79275248Y-108526731D01*
X79270359Y-108542847D01*
X79268700Y-108559694D01*
X79268700Y-109285306D01*
X79270359Y-109302153D01*
X79275248Y-109318269D01*
X79283185Y-109333119D01*
X79293866Y-109346134D01*
X79306881Y-109356815D01*
X79321731Y-109364752D01*
X79337847Y-109369641D01*
X79354796Y-109371310D01*
X79356422Y-109372475D01*
X79356226Y-109374465D01*
X79354600Y-109375300D01*
X79309510Y-109375300D01*
X79309314Y-109375290D01*
X79297104Y-109374087D01*
X79296720Y-109374011D01*
X79289703Y-109371883D01*
X79289340Y-109371733D01*
X79282869Y-109368274D01*
X79282543Y-109368056D01*
X79276874Y-109363403D01*
X79276597Y-109363126D01*
X79268312Y-109353032D01*
X79254662Y-109339383D01*
X79238689Y-109328711D01*
X79220943Y-109321361D01*
X79202099Y-109317613D01*
X79182894Y-109317614D01*
X79164051Y-109321363D01*
X79146305Y-109328714D01*
X79130333Y-109339387D01*
X79116688Y-109353032D01*
X79108403Y-109363126D01*
X79108126Y-109363403D01*
X79102457Y-109368056D01*
X79102131Y-109368274D01*
X79095660Y-109371733D01*
X79095297Y-109371883D01*
X79088280Y-109374011D01*
X79087896Y-109374087D01*
X79075686Y-109375290D01*
X79075490Y-109375300D01*
X79030400Y-109375300D01*
X79028668Y-109374300D01*
X79028668Y-109372300D01*
X79030204Y-109371310D01*
X79047153Y-109369641D01*
X79063269Y-109364752D01*
X79078119Y-109356815D01*
X79091134Y-109346134D01*
X79101815Y-109333119D01*
X79109752Y-109318269D01*
X79114641Y-109302153D01*
X79116300Y-109285306D01*
X79116300Y-108559694D01*
X79114641Y-108542847D01*
X79109752Y-108526731D01*
X79101815Y-108511881D01*
X79091134Y-108498866D01*
X79078119Y-108488185D01*
X79063269Y-108480248D01*
X79047153Y-108475359D01*
X79030204Y-108473690D01*
X79028578Y-108472525D01*
X79028774Y-108470535D01*
X79030400Y-108469700D01*
X79075490Y-108469700D01*
X79075686Y-108469710D01*
G37*
G36*
X78575686Y-108469710D02*
G01*
X78587896Y-108470913D01*
X78588280Y-108470989D01*
X78595297Y-108473117D01*
X78595660Y-108473267D01*
X78602131Y-108476726D01*
X78602457Y-108476944D01*
X78608126Y-108481597D01*
X78608403Y-108481874D01*
X78616688Y-108491968D01*
X78630338Y-108505617D01*
X78646311Y-108516289D01*
X78664057Y-108523639D01*
X78682901Y-108527387D01*
X78702106Y-108527386D01*
X78720949Y-108523637D01*
X78738695Y-108516286D01*
X78754667Y-108505613D01*
X78768312Y-108491968D01*
X78776597Y-108481874D01*
X78776874Y-108481597D01*
X78782543Y-108476944D01*
X78782869Y-108476726D01*
X78789340Y-108473267D01*
X78789703Y-108473117D01*
X78796720Y-108470989D01*
X78797104Y-108470913D01*
X78809314Y-108469710D01*
X78809510Y-108469700D01*
X78854600Y-108469700D01*
X78856332Y-108470700D01*
X78856332Y-108472700D01*
X78854796Y-108473690D01*
X78837847Y-108475359D01*
X78821731Y-108480248D01*
X78806881Y-108488185D01*
X78793866Y-108498866D01*
X78783185Y-108511881D01*
X78775248Y-108526731D01*
X78770359Y-108542847D01*
X78768700Y-108559694D01*
X78768700Y-109285306D01*
X78770359Y-109302153D01*
X78775248Y-109318269D01*
X78783185Y-109333119D01*
X78793866Y-109346134D01*
X78806881Y-109356815D01*
X78821731Y-109364752D01*
X78837847Y-109369641D01*
X78854796Y-109371310D01*
X78856422Y-109372475D01*
X78856226Y-109374465D01*
X78854600Y-109375300D01*
X78809510Y-109375300D01*
X78809314Y-109375290D01*
X78797104Y-109374087D01*
X78796720Y-109374011D01*
X78789703Y-109371883D01*
X78789340Y-109371733D01*
X78782869Y-109368274D01*
X78782543Y-109368056D01*
X78776874Y-109363403D01*
X78776597Y-109363126D01*
X78768312Y-109353032D01*
X78754662Y-109339383D01*
X78738689Y-109328711D01*
X78720943Y-109321361D01*
X78702099Y-109317613D01*
X78682894Y-109317614D01*
X78664051Y-109321363D01*
X78646305Y-109328714D01*
X78630333Y-109339387D01*
X78616688Y-109353032D01*
X78608403Y-109363126D01*
X78608126Y-109363403D01*
X78602457Y-109368056D01*
X78602131Y-109368274D01*
X78595660Y-109371733D01*
X78595297Y-109371883D01*
X78588280Y-109374011D01*
X78587896Y-109374087D01*
X78575686Y-109375290D01*
X78575490Y-109375300D01*
X78530400Y-109375300D01*
X78528668Y-109374300D01*
X78528668Y-109372300D01*
X78530204Y-109371310D01*
X78547153Y-109369641D01*
X78563269Y-109364752D01*
X78578119Y-109356815D01*
X78591134Y-109346134D01*
X78601815Y-109333119D01*
X78609752Y-109318269D01*
X78614641Y-109302153D01*
X78616300Y-109285306D01*
X78616300Y-108559694D01*
X78614641Y-108542847D01*
X78609752Y-108526731D01*
X78601815Y-108511881D01*
X78591134Y-108498866D01*
X78578119Y-108488185D01*
X78563269Y-108480248D01*
X78547153Y-108475359D01*
X78530204Y-108473690D01*
X78528578Y-108472525D01*
X78528774Y-108470535D01*
X78530400Y-108469700D01*
X78575490Y-108469700D01*
X78575686Y-108469710D01*
G37*
G36*
X64312865Y-93612575D02*
G01*
X64313494Y-93613800D01*
X65513299Y-93613800D01*
X65515031Y-93614800D01*
X65515031Y-93616800D01*
X65513495Y-93617790D01*
X65494185Y-93619691D01*
X65475800Y-93625269D01*
X65458859Y-93634324D01*
X65444010Y-93646510D01*
X65431824Y-93661359D01*
X65422769Y-93678300D01*
X65417191Y-93696685D01*
X65415290Y-93715995D01*
X65414125Y-93717621D01*
X65412135Y-93717425D01*
X65411506Y-93716200D01*
X64211701Y-93716200D01*
X64209969Y-93715200D01*
X64209969Y-93713200D01*
X64211505Y-93712210D01*
X64230815Y-93710309D01*
X64249200Y-93704731D01*
X64266141Y-93695676D01*
X64280990Y-93683490D01*
X64293176Y-93668641D01*
X64302231Y-93651700D01*
X64307809Y-93633315D01*
X64309710Y-93614005D01*
X64310875Y-93612379D01*
X64312865Y-93612575D01*
G37*
M02*
