M48
; DRILL file {KiCad (5.1.8)-1} date 12/25/20 22:35:55
; FORMAT={-:-/ absolute / metric / decimal}
; #@! TF.CreationDate,2020-12-25T22:35:55+01:00
; #@! TF.GenerationSoftware,Kicad,Pcbnew,(5.1.8)-1
; #@! TF.FileFunction,Plated,1,2,PTH
FMAT,2
METRIC
T1C0.200
T2C0.400
T3C0.500
T4C1.000
T5C1.300
T6C3.000
%
G90
G05
T1
X54.685Y-116.285
X55.635Y-115.71
X55.635Y-116.86
X56.585Y-116.285
T2
X50.838Y-112.192
X50.838Y-113.678
X50.863Y-118.008
X50.889Y-50.863
X50.889Y-107.861
X50.914Y-129.134
X50.927Y-55.778
X50.978Y-124.358
X51.003Y-100.584
X51.041Y-94.564
X51.105Y-106.223
X51.156Y-76.416
X52.108Y-112.712
X52.235Y-106.248
X52.697Y-95.017
X53.232Y-117.2
X53.238Y-107.658
X53.264Y-108.941
X53.315Y-96.609
X53.391Y-112.941
X53.416Y-111.354
X53.467Y-106.248
X53.823Y-119.177
X54.105Y-74.01
X54.115Y-61.512
X54.122Y-60.597
X54.292Y-92.867
X54.419Y-57.747
X54.485Y-90.152
X54.515Y-86.843
X54.525Y-85.81
X54.537Y-81.485
X54.537Y-84.765
X54.56Y-80.292
X54.585Y-119.482
X54.673Y-74.587
X54.705Y-70.0
X54.98Y-68.06
X55.651Y-62.344
X55.867Y-124.473
X55.905Y-129.083
X56.002Y-71.24
X56.002Y-72.265
X56.045Y-105.905
X56.265Y-59.167
X56.292Y-57.71
X56.337Y-51.003
X56.375Y-81.686
X56.439Y-53.111
X56.807Y-84.277
X56.885Y-60.502
X57.015Y-70.162
X57.283Y-121.909
X57.31Y-118.415
X57.335Y-125.145
X57.424Y-95.129
X57.798Y-79.045
X57.972Y-70.177
X58.1Y-53.698
X58.207Y-57.847
X58.247Y-60.502
X58.432Y-107.647
X58.505Y-125.137
X58.549Y-98.064
X58.592Y-96.332
X58.65Y-71.257
X58.66Y-72.325
X58.66Y-73.425
X58.675Y-74.632
X59.22Y-64.859
X59.555Y-60.502
X59.588Y-79.057
X59.64Y-125.137
X59.682Y-119.657
X60.198Y-105.41
X60.2Y-83.513
X60.203Y-82.385
X60.23Y-59.087
X60.32Y-89.125
X60.41Y-110.74
X60.505Y-98.082
X60.697Y-79.765
X60.75Y-54.165
X60.8Y-119.655
X60.858Y-67.97
X60.884Y-105.943
X61.622Y-57.762
X61.646Y-64.872
X62.008Y-73.222
X62.054Y-124.911
X62.916Y-124.917
X62.992Y-122.288
X63.161Y-89.125
X63.297Y-121.082
X63.386Y-81.293
X63.397Y-76.975
X63.475Y-67.081
X63.517Y-95.892
X63.85Y-122.28
X64.7Y-63.087
X64.703Y-64.123
X64.98Y-126.1
X65.157Y-108.677
X65.38Y-62.11
X65.422Y-65.675
X65.422Y-67.325
X65.427Y-118.2
X65.457Y-117.232
X65.57Y-75.768
X65.597Y-103.387
X65.809Y-71.72
X65.822Y-107.335
X65.97Y-79.007
X66.085Y-110.858
X66.302Y-126.145
X66.317Y-95.245
X66.412Y-75.403
X66.435Y-62.11
X66.91Y-71.132
X67.102Y-81.854
X67.157Y-118.828
X67.16Y-76.208
X67.229Y-83.698
X67.468Y-84.7
X67.668Y-62.068
X67.697Y-80.255
X67.707Y-99.36
X67.885Y-76.97
X67.956Y-94.458
X68.085Y-54.115
X68.504Y-111.785
X68.504Y-112.954
X68.504Y-114.021
X68.64Y-95.227
X68.66Y-85.565
X68.745Y-91.227
X68.895Y-96.89
X68.915Y-98.078
X68.932Y-89.536
X69.065Y-121.89
X69.245Y-115.142
X69.291Y-92.099
X69.305Y-126.115
X69.349Y-88.627
X69.373Y-87.587
X69.392Y-62.068
X69.405Y-79.162
X69.557Y-67.265
X69.575Y-65.672
X69.642Y-52.773
X70.017Y-92.825
X70.13Y-80.031
X70.255Y-69.16
X70.26Y-70.355
X70.291Y-115.121
X70.337Y-95.92
X70.855Y-80.986
X71.067Y-104.38
X71.075Y-105.397
X71.183Y-101.511
X71.295Y-77.385
X71.298Y-55.588
X71.298Y-56.578
X71.298Y-57.62
X71.31Y-58.623
X71.593Y-80.263
X71.625Y-91.658
X71.806Y-107.061
X71.945Y-94.727
X71.984Y-109.36
X71.984Y-110.325
X71.984Y-111.316
X71.996Y-108.369
X72.051Y-90.753
X72.081Y-85.336
X72.177Y-115.102
X72.727Y-95.585
X73.005Y-54.372
X73.703Y-96.917
X73.886Y-87.341
X74.066Y-108.572
X74.191Y-54.413
X74.346Y-98.044
X74.507Y-68.763
X74.76Y-115.177
X74.892Y-83.134
X74.981Y-67.805
X75.012Y-70.373
X75.362Y-119.888
X75.489Y-85.574
X75.752Y-77.195
X75.755Y-95.78
X76.256Y-86.341
X76.403Y-67.818
X76.675Y-90.475
X76.869Y-87.131
X76.885Y-82.472
X76.975Y-115.182
X77.656Y-87.749
X77.733Y-83.127
X77.787Y-80.47
X77.942Y-88.792
X77.953Y-67.793
X77.958Y-100.532
X78.029Y-63.754
X78.029Y-64.821
X78.435Y-61.976
X78.522Y-81.307
X78.658Y-78.052
X78.689Y-95.123
X78.782Y-83.777
X78.816Y-102.311
X78.977Y-100.532
X79.096Y-51.156
X79.142Y-88.772
X79.331Y-58.953
X79.398Y-82.152
X79.68Y-96.622
X79.815Y-114.932
X80.017Y-100.515
X80.171Y-59.702
X80.192Y-127.8
X80.2Y-129.045
X80.218Y-125.562
X80.237Y-82.992
X80.543Y-51.156
X80.593Y-88.245
X80.645Y-72.975
X80.645Y-96.672
X80.787Y-102.073
X80.81Y-108.344
X80.944Y-60.413
X80.975Y-85.617
X81.153Y-114.757
X81.37Y-72.172
X81.513Y-54.135
X81.576Y-86.416
X81.661Y-125.959
X81.703Y-55.59
X81.737Y-61.112
X81.787Y-102.048
X81.86Y-76.587
X81.915Y-51.156
X82.45Y-100.545
X82.588Y-125.946
X82.901Y-85.64
X82.944Y-68.821
X83.019Y-71.887
X83.236Y-110.998
X83.299Y-102.756
X83.469Y-79.3
X83.629Y-81.041
X83.757Y-125.943
X83.792Y-72.647
X83.873Y-54.232
X83.88Y-58.099
X84.032Y-91.575
X84.034Y-97.896
X84.085Y-86.145
X84.117Y-82.16
X84.226Y-78.562
X84.506Y-114.846
X84.506Y-122.707
X84.607Y-62.193
X84.718Y-73.117
X84.745Y-68.675
X84.859Y-98.485
X85.057Y-90.832
X85.344Y-60.909
X85.357Y-57.798
X85.42Y-122.707
X85.674Y-77.038
X85.718Y-73.153
X85.82Y-125.872
X85.823Y-80.963
X85.84Y-99.237
X85.867Y-70.945
X85.915Y-58.725
X85.928Y-60.312
X86.335Y-122.707
X86.718Y-73.176
X87.067Y-79.132
X87.185Y-54.215
X87.233Y-51.63
X87.685Y-97.85
X87.742Y-73.185
X87.819Y-62.482
X87.915Y-123.122
X88.1Y-101.524
X88.125Y-104.229
X88.135Y-117.845
X88.151Y-110.147
X88.21Y-51.622
X88.242Y-54.205
X88.631Y-65.321
X88.781Y-75.284
X88.787Y-97.875
X88.796Y-62.27
X88.825Y-68.155
X88.837Y-74.017
X88.96Y-63.437
X88.965Y-70.975
X89.282Y-51.622
X89.347Y-54.197
X89.397Y-95.17
X89.84Y-97.88
X89.84Y-99.377
X90.068Y-58.56
X90.094Y-94.441
X90.25Y-117.067
X90.412Y-91.812
X90.46Y-51.61
X90.49Y-54.225
X90.492Y-114.065
X90.953Y-86.453
X91.047Y-80.125
X91.19Y-84.527
X91.4Y-123.822
X91.4Y-124.792
X91.6Y-105.55
X92.56Y-104.945
X93.47Y-94.797
X93.52Y-104.925
X93.726Y-74.993
X93.828Y-82.572
X93.929Y-56.062
X94.047Y-70.82
X94.06Y-68.832
X94.17Y-61.965
X94.197Y-123.392
X94.221Y-110.147
X94.259Y-50.902
X94.399Y-129.019
X94.412Y-72.631
X94.412Y-80.125
X94.435Y-104.925
X94.45Y-75.717
X94.513Y-124.727
X94.52Y-86.43
X94.572Y-90.177
X94.755Y-56.07
X95.047Y-96.642
X95.161Y-76.568
X95.197Y-106.941
X95.216Y-107.941
X95.337Y-67.947
X95.796Y-70.968
X96.012Y-73.487
X96.375Y-114.957
X97.02Y-101.735
X97.02Y-102.62
X97.387Y-121.982
X97.44Y-114.957
X97.915Y-113.915
X98.27Y-101.072
X98.85Y-113.905
X99.085Y-129.083
X99.098Y-55.575
X99.123Y-109.918
X99.123Y-118.516
X99.123Y-124.574
X99.2Y-50.902
X99.248Y-101.082
T3
X96.4Y-93.132
X98.3Y-93.132
T4
X63.64Y-100.47
X63.64Y-103.01
X63.64Y-105.55
X63.64Y-108.09
X63.64Y-110.63
X63.64Y-113.17
X63.64Y-115.71
X63.64Y-118.25
X86.5Y-100.47
X86.5Y-103.01
X86.5Y-105.55
X86.5Y-108.09
X86.5Y-110.63
X86.5Y-113.17
X86.5Y-115.71
X86.5Y-118.25
X76.67Y-69.542
X52.862Y-98.275
X52.862Y-102.775
T5
X55.362Y-97.025
X55.362Y-104.025
T6
X53.0Y-53.0
X53.0Y-127.003
X97.0Y-53.0
X97.0Y-127.003
T0
M30
